<svg width="159" height="113" xmlns="http://www.w3.org/2000/svg"><title>Imported Layers Copy 5</title><g fill="none" fill-rule="evenodd"><path d="M145.132 50.276v.612c1.728-.205 2.735.045 3.084.16v-.587c-.51-.154-1.522-.35-3.084-.184" fill="#FFF"/><path d="M145.028 58.026c-3.13 2.558-9.037 9.084-19.45 25.658-3.955 6.296-8.86 11.856-14.576 16.524-7.55 6.172-15.93 9.41-23.594 9.106-3.247-.14-5.91-1.394-8.34-3.007 1.41.568 2.982.968 4.778 1.104.67.052 1.343.077 2.02.077 7.55 0 15.38-3.172 22.767-9.25 6.22-5.112 11.47-10.784 15.6-16.856 9.823-14.433 15.975-20.745 19.56-23.5-.217-.057-.42-.137-.617-.23-3.733 2.947-9.858 9.396-19.403 23.42-4.102 6.03-9.315 11.662-15.494 16.74-7.938 6.53-16.37 9.656-24.392 9.05-3.732-.283-6.488-1.753-8.802-3.516l-.214-.168c1.552.8 3.34 1.437 5.422 1.778 1.174.192 2.367.288 3.577.288 7.006 0 14.55-3.206 22.04-9.405 6.818-5.636 12.22-11.213 16.51-17.05 9.463-12.88 15.836-18.937 19.87-21.77-.13-.135-.25-.286-.358-.45-4.13 2.915-10.533 9.06-19.962 21.893-4.263 5.8-9.633 11.346-16.416 16.95-8.654 7.166-17.36 10.277-25.17 8.998-3.486-.57-6.134-1.996-8.207-3.624 1.405.775 2.925 1.344 4.57 1.712 1.47.33 2.976.492 4.515.492 6.858 0 14.347-3.246 21.926-9.552 7.498-6.23 13.032-11.71 17.415-17.247 9.715-12.274 16.47-18.004 20.863-20.647-.054-.19-.095-.394-.128-.606-4.48 2.658-11.32 8.462-21.172 20.91-4.358 5.507-9.867 10.962-17.335 17.165-9.14 7.606-18.117 10.698-25.96 8.945-2.475-.554-4.435-1.518-6.008-2.636.72.344 1.51.596 2.377.725 1.447.215 2.892.322 4.333.322 7.79 0 15.47-3.128 22.892-9.33 6.24-5.21 12.78-10.927 18.323-17.444 10.423-12.252 17.738-17.605 22.475-19.884v-.668c-4.82 2.262-12.25 7.676-22.9 20.194-5.518 6.486-12.035 12.184-18.256 17.376-8.667 7.246-17.678 10.237-26.786 8.886-1.81-.268-3.267-1.11-4.448-2.245.26.122.52.235.788.326 1.928.657 3.945.985 6.04.984 6.714 0 14.217-3.36 22.042-9.928 7.544-6.322 13.75-11.635 19.23-17.64 11.266-12.345 19.213-17.27 24.29-19.132v-.214c0-.41.243-.56 1.08-.722v-.072c-5.088 1.516-13.458 6.264-25.782 19.768-5.456 5.98-11.648 11.28-19.176 17.59C87.274 96.7 77.75 99.758 69.84 97.056c-.76-.26-1.487-.667-2.174-1.176-.073-.097-.143-.195-.213-.293 1.712.528 3.497.794 5.35.794 6.69 0 14.244-3.425 22.216-10.144.916-.77 1.828-1.535 2.736-2.295 6.28-5.26 12.21-10.23 17.4-15.54 20.986-21.474 31.42-19.118 33.054-18.556-.007-.203-.025-.405-.058-.606-1.032-.315-3.554-.753-7.73.502-5.04 1.513-13.584 5.912-25.665 18.273-5.17 5.292-11.09 10.253-17.36 15.505-.908.76-1.82 1.526-2.737 2.297-10.313 8.69-19.872 11.798-27.7 9.028-.197-.316-.382-.637-.556-.962 1.118.22 2.266.333 3.444.333 6.694 0 14.317-3.5 22.45-10.376 2.094-1.77 4.192-3.505 6.22-5.185 5.308-4.395 10.322-8.546 14.822-12.852 12.406-11.87 21.322-15.867 26.617-17.13 4.314-1.028 6.978-.456 8.037-.108-.065-.218-.142-.436-.232-.652-1.314-.36-3.9-.726-7.854.204-5.374 1.263-14.412 5.288-26.954 17.288-4.485 4.292-9.492 8.437-14.792 12.825-2.03 1.68-4.128 3.418-6.225 5.19-9.613 8.126-18.47 11.473-25.857 9.833-.206-.417-.395-.836-.57-1.25.443.032.89.055 1.342.055 6.715 0 14.424-3.58 22.722-10.618 3.24-2.744 6.452-5.346 9.557-7.863 4.407-3.57 8.568-6.943 12.394-10.37 12.86-11.523 22.268-15.148 27.895-16.16 3.906-.704 6.57-.278 7.985.12-.124-.23-.26-.457-.403-.684-1.556-.358-4.083-.62-7.612.006-5.708 1.012-15.24 4.663-28.238 16.307-3.816 3.418-7.972 6.786-12.372 10.352-3.108 2.52-6.322 5.124-9.567 7.87-8.858 7.515-17.004 11.03-23.938 10.41-.212-.533-.4-1.05-.572-1.543 6.546-.303 14.04-3.948 22.148-10.845 4.39-3.727 8.695-7.116 12.858-10.395 3.528-2.778 6.86-5.402 10-8.037 13.31-11.176 23.208-14.43 29.17-15.192 3.403-.435 5.934-.128 7.576.26-.166-.23-.34-.46-.518-.69-1.667-.32-4.02-.51-7.067-.127-6.046.76-16.075 4.035-29.522 15.327-3.13 2.63-6.46 5.25-9.985 8.026-4.168 3.28-8.477 6.673-12.873 10.407-8.08 6.873-15.518 10.473-21.974 10.715-.097-.284-.187-.558-.27-.815-.125-.377-.237-.715-.34-1.01 6.053-.957 12.87-4.6 20.222-10.87C89.69 71.9 95.088 67.8 100.31 63.834c2.655-2.018 5.163-3.923 7.58-5.828 13.754-10.833 24.145-13.716 30.44-14.227 2.898-.236 5.21-.003 6.92.343l-.323-.395-.23-.28c-1.654-.277-3.772-.43-6.357-.224-6.38.506-16.902 3.406-30.795 14.35-2.414 1.9-4.92 3.805-7.574 5.82-5.225 3.97-10.63 8.077-16.204 12.823-8.142 6.945-15.6 10.627-22.046 10.963-.246-.644-.456-1.27-.626-1.855 6.058-1.038 12.9-4.752 20.31-11.087 6.798-5.802 13.613-10.763 19.626-15.14 1.726-1.256 3.41-2.482 5.045-3.69 14.193-10.495 25.076-13.007 31.707-13.265 2.46-.096 4.526.104 6.187.407-.175-.218-.345-.437-.512-.658-1.568-.243-3.45-.387-5.647-.304-6.717.252-17.733 2.777-32.067 13.376-1.633 1.207-3.316 2.432-5.04 3.688-6.022 4.383-12.847 9.35-19.66 15.167-7.357 6.288-14.128 9.962-20.096 10.966-.22-.85-.343-1.595-.37-2.186 5.486-1.56 11.567-5.16 18.105-10.762 8.097-6.928 16.12-12.482 23.197-17.38l2.38-1.65c14.628-10.16 26.004-12.3 32.97-12.305h.03c2.123 0 3.968.195 5.535.47-.144-.21-.282-.422-.412-.636-1.474-.23-3.175-.386-5.107-.387h-.016c-7.057 0-18.56 2.154-33.32 12.405l-2.378 1.648c-7.09 4.907-15.124 10.47-23.243 17.416-7.303 6.257-14.008 9.98-19.922 11.13-.23-.94-.357-1.722-.39-2.24 5.438-1.668 11.463-5.3 17.95-10.872 9.49-8.138 18.913-14.288 26.485-19.23 15.063-9.83 26.937-11.596 34.235-11.35 1.954.068 3.69.28 5.203.558-.097-.203-.185-.408-.264-.613-1.435-.246-3.058-.43-4.876-.495-7.397-.263-19.397 1.514-34.602 11.438-7.586 4.95-17.025 11.11-26.542 19.274-7.272 6.244-13.935 10.022-19.815 11.3-.09-.908-.072-1.665.047-2.165.023-.094-.01-.185-.072-.25 5.31-1.808 11.17-5.437 17.48-10.866 9.39-8.07 18.715-14.108 27.392-19.43 15.494-9.508 27.858-10.9 35.498-10.398 1.948.128 3.687.386 5.222.7-.043-.196-.08-.393-.1-.59-1.49-.295-3.17-.534-5.046-.66-7.73-.517-20.227.882-35.865 10.476-8.697 5.335-18.043 11.388-27.462 19.483-7.193 6.19-13.78 10.013-19.603 11.438-.016-1.153.12-2.088.366-2.636 5.145-1.945 10.8-5.545 16.878-10.783C80.837 55.75 91.06 49.48 98.81 45.007c15.925-9.185 28.78-10.206 36.762-9.446 2.113.2 3.997.537 5.65.926v-.567c-1.637-.38-3.49-.706-5.56-.905-8.07-.775-21.06.246-37.13 9.515-7.774 4.483-18.024 10.773-28.383 19.69C62.99 70.39 56.44 74.26 50.646 75.8c.125-1.31.454-2.342.865-2.894 4.982-2.06 10.433-5.62 16.278-10.666 11.182-9.645 22.023-15.938 29.205-19.832 16.355-8.87 29.704-9.517 38.023-8.5 2.332.286 4.403.715 6.204 1.195v-.373c0-.064.005-.13.007-.196-1.784-.47-3.823-.89-6.11-1.17-8.408-1.035-21.89-.39-38.392 8.558-7.204 3.907-18.08 10.22-29.302 19.9-7.43 6.415-14.197 10.395-20.15 11.92.194-1.246.63-2.27 1.26-2.85.06-.056.086-.13.086-.207 5.027-2.113 10.532-5.73 16.446-10.845 9.014-7.79 18.582-14.155 30.11-20.033 16.785-8.556 30.627-8.83 39.285-7.555 2.59.382 4.882.92 6.846 1.503.028-.18.068-.36.115-.542-1.97-.582-4.262-1.12-6.848-1.504-8.745-1.295-22.722-1.026-39.652 7.605-11.57 5.9-21.173 12.288-30.222 20.108-7.645 6.61-14.582 10.69-20.66 12.222.273-1.423.893-2.584 1.758-3.204.006-.002.008-.007.012-.01 5.05-2.173 10.583-5.84 16.533-10.99 9.36-8.1 19.505-14.718 31.018-20.234 17.213-8.248 31.55-8.15 40.546-6.614 2.967.507 5.56 1.2 7.74 1.917.066-.172.143-.34.226-.51-2.207-.73-4.837-1.433-7.843-1.948-9.082-1.555-23.552-1.662-40.91 6.656-11.56 5.538-21.746 12.183-31.144 20.315C54.382 63.6 47.49 67.73 41.435 69.39c.476-1.633 1.394-2.977 2.566-3.656.014-.008.024-.022.036-.032 4.793-2.268 10.005-5.824 15.583-10.66 9.794-8.49 20.238-15.174 31.928-20.438 17.642-7.943 32.473-7.47 41.808-5.674 3.466.667 6.448 1.56 8.877 2.448.105-.16.217-.315.34-.465-2.477-.913-5.53-1.835-9.084-2.52-9.42-1.817-24.383-2.3-42.17 5.708-11.742 5.287-22.23 12-32.064 20.524C51.59 61.272 44.64 65.468 38.54 67.2c.655-1.83 1.872-3.334 3.38-4.09 4.626-2.33 9.628-5.823 14.98-10.47 10.21-8.86 20.95-15.612 32.833-20.637 18.073-7.642 33.397-6.795 43.07-4.738 4.11.874 7.568 2.032 10.266 3.122.14-.134.293-.26.454-.38l.02-.025c-2.757-1.13-6.333-2.343-10.6-3.252-9.755-2.078-25.21-2.94-43.428 4.764-11.94 5.048-22.727 11.83-32.983 20.73-5.283 4.587-10.214 8.04-14.765 10.346-.005 0-.01 0-.014.003-.037.018-.072.04-.108.057-2.29 1.152-4.484 2.016-6.578 2.584.61-1.68 1.753-3.094 3.225-3.973 4.876-2.372 10.18-6.043 15.882-11 10.468-9.095 21.82-16.107 33.742-20.84 18.504-7.342 34.323-6.12 44.334-3.802 4.825 1.117 8.792 2.587 11.726 3.88.14-.142.285-.28.444-.408-2.98-1.328-7.052-2.853-12.018-4.005-10.094-2.342-26.042-3.58-44.69 3.823-11.982 4.755-23.388 11.8-33.902 20.936-5.288 4.597-10.222 8.077-14.778 10.432-.004 0-.008 0-.01.002-.364.148-.71.326-1.044.527-2.053.995-4.025 1.752-5.916 2.275.64-1.574 1.747-2.96 3.146-3.953 4.978-2.422 10.403-6.182 16.244-11.266 10.853-9.443 22.51-16.522 34.65-21.04 18.936-7.05 35.25-5.453 45.598-2.872 5.643 1.407 10.174 3.25 13.294 4.742.19-.117.394-.223.61-.32-3.155-1.533-7.848-3.48-13.744-4.952-10.43-2.605-26.87-4.22-45.953 2.883-12.202 4.544-23.918 11.658-34.82 21.145-4.945 4.303-9.58 7.646-13.89 10.025-.818.29-1.587.695-2.29 1.192-2.12 1.028-4.154 1.807-6.102 2.338.616-1.46 1.66-2.793 2.973-3.842 5.172-2.464 10.834-6.366 16.952-11.696 11.228-9.783 23.19-16.93 35.558-21.245 19.368-6.757 36.174-4.784 46.862-1.94 6.752 1.796 11.974 4.155 15.175 5.822.23-.07.468-.13.722-.174.038-.006.073-.007.11-.013-3.16-1.69-8.64-4.246-15.84-6.164-10.77-2.87-27.7-4.862-47.214 1.945-12.434 4.338-24.458 11.522-35.74 21.35-4.7 4.096-9.12 7.337-13.25 9.726-1.367.42-2.625 1.095-3.704 1.953-2.14 1.01-4.195 1.77-6.157 2.277.526-1.34 1.433-2.57 2.616-3.594 1.59-.718 3.226-1.577 4.91-2.57.007-.004.016-.007.023-.012 4.127-2.435 8.532-5.688 13.203-9.762 28.248-24.64 55.01-27.155 72.488-24.926 14.724 1.877 25.508 7.34 29.642 9.72.947.05 1.706.406 2.285.93.01-.096-.028-.195-.114-.253-.125-.085-12.644-8.504-31.715-10.943-11.198-1.43-22.437-.553-33.402 2.61-13.7 3.954-27.006 11.506-39.548 22.446-4.646 4.052-9.02 7.29-13.113 9.705-1.892.51-3.594 1.42-4.963 2.592-1.943.872-3.813 1.535-5.606 1.987 1.202-3.947 5.07-7.414 9.432-8.442.15-.035.242-.184.206-.332-.036-.15-.185-.24-.335-.205-4.563 1.076-8.615 4.724-9.853 8.873-.025.085-.045.17-.067.254-1.09.248-2.153.415-3.186.503-.102-1.295.12-2.482.435-3.453 1.374-4.23 5.633-7.876 10.357-8.865.15-.032.246-.178.215-.327-.032-.15-.18-.246-.33-.214-4.91 1.028-9.34 4.826-10.773 9.236-.402 1.237-.55 2.47-.45 3.665-.778.046-1.54.048-2.283 0-.81-1.986-.855-4.163-.092-6.35 1.57-4.49 6.204-8.29 11.27-9.235.15-.028.25-.173.22-.323-.027-.15-.172-.25-.323-.22-5.252.98-10.06 4.927-11.692 9.597-.778 2.226-.763 4.443 0 6.48-.032-.002-.064-.003-.096-.007-.528-.055-1.046-.138-1.555-.242-1.925-2.633-2.344-5.775-1.17-8.923 1.77-4.743 6.775-8.686 12.174-9.59.15-.025.253-.167.227-.318-.024-.152-.166-.253-.32-.228-5.585.935-10.767 5.023-12.601 9.942-1.168 3.13-.847 6.252.885 8.93-.357-.093-.71-.197-1.058-.314-.42-.434-.828-.895-1.224-1.384-2.31-2.868-2.822-6.383-1.44-9.897 1.967-5.002 7.35-9.098 13.09-9.96.15-.023.256-.164.233-.315-.023-.15-.163-.255-.317-.232-5.927.89-11.49 5.128-13.525 10.305-1.458 3.705-.916 7.414 1.524 10.444.162.2.328.394.494.586-.2-.087-.396-.177-.592-.272-1.064-.88-2.065-1.916-2.995-3.11C4.12 49.97 3.67 46.31 5.174 42.658c2.17-5.26 7.93-9.506 14.008-10.328.153-.02.26-.16.238-.312-.02-.15-.162-.258-.313-.236C12.84 32.63 6.9 37.017 4.66 42.45c-1.584 3.84-1.106 7.695 1.347 10.853.418.538.852 1.043 1.297 1.52-1.597-1.112-3.062-2.547-4.383-4.31C.58 47.394.187 43.587 1.817 39.797c2.37-5.513 8.51-9.91 14.927-10.692.152-.02.26-.157.242-.31-.018-.15-.156-.26-.31-.24-6.604.806-12.925 5.34-15.37 11.025-1.71 3.977-1.296 7.978 1.17 11.265 1.93 2.573 4.16 4.474 6.66 5.7 1.024.84 2.108 1.54 3.248 2.1 1.016.837 2.088 1.538 3.218 2.094 1.007.83 2.073 1.52 3.19 2.076 1.017.847 2.092 1.553 3.224 2.116 1.01.842 2.075 1.54 3.193 2.097 1.005.838 2.062 1.54 3.174 2.098.995.833 2.043 1.524 3.14 2.08.995.837 2.04 1.536 3.138 2.096.978.824 2.006 1.515 3.083 2.072.025.02.046.04.07.06.96.805 1.967 1.482 3.02 2.03.167.148.338.29.515.43.825.648 1.683 1.202 2.572 1.668.304.278.624.544.965.793.686.503 1.393.943 2.122 1.324.44.41.91.794 1.415 1.138.562.38 1.138.722 1.728 1.025.55.542 1.154 1.026 1.81 1.435.452.283.917.533 1.387.768.6.63 1.308 1.213 2.15 1.692.345.196.693.375 1.045.544.72.77 1.548 1.43 2.496 1.917.185.094.374.18.562.266.855.912 1.844 1.675 2.98 2.193.08.037.163.068.245.104.878.937 1.867 1.707 2.97 2.21.155.16.313.315.473.465.707.966 1.458 1.837 2.255 2.614.01.015.016.03.028.045.666.737 1.42 1.513 2.274 2.273l.004.005.607.556c.847.777 1.727 1.58 2.676 2.35.246.19.492.385.74.58l.125.097c.478.376.96.752 1.445 1.124 4.302 5.004 9.815 7.61 16.05 7.61.7 0 1.41-.033 2.127-.1 11.87-1.09 24.617-11.06 33.267-26.022 15.95-27.587 19.88-28.436 20.087-28.46.144 0 .266-.11.278-.255.013-.152-.102-.285-.255-.298-.38-.04-4.264.497-20.59 28.736-8.562 14.808-21.144 24.674-32.837 25.748-5.895.543-11.206-1.222-15.533-5.107 2.428 1.578 5.103 2.79 8.373 2.93.35.013.7.02 1.054.02 7.592 0 15.492-3.184 22.915-9.25 5.764-4.708 10.708-10.313 14.694-16.66 11.346-18.06 17.274-24.052 19.994-26.042-.35.06-.69.088-1.016.09zM64.65 91.36c-.33-.043-.66-.096-.985-.157-.26-.436-.505-.88-.736-1.324.294.013.59.025.888.025.1 0 .203-.003.304-.005.16.464.334.953.53 1.46zm-1.305-3.77c.11.31.233.68.37 1.1l.22.658c-.436.002-.866-.013-1.293-.042-.258-.53-.493-1.06-.706-1.58.465-.03.934-.074 1.41-.137zm-1.366 1.66c-.36-.04-.715-.09-1.066-.15-.245-.445-.473-.9-.686-1.354.175.005.35.017.526.017.19 0 .384-.003.577-.01.197.493.413.994.65 1.496zm-.86-2.05c-.387.006-.768.003-1.146-.014-.242-.55-.46-1.096-.658-1.632.402-.035.808-.082 1.217-.14.16.566.356 1.167.586 1.785zm-1.797-.057c-.516-.042-1.025-.106-1.526-.196-.227-.437-.436-.88-.624-1.327.164.004.33.008.495.008.346 0 .696-.012 1.047-.032.183.51.385 1.026.608 1.547zm.704-4.39c.038.59.16 1.313.362 2.118-.426.06-.848.112-1.266.144-.232-.674-.427-1.322-.587-1.92.49-.097.988-.21 1.49-.342zm-1.503 2.293c-.534.025-1.06.028-1.58.006-.212-.553-.395-1.105-.55-1.645.52-.05 1.044-.118 1.576-.21.15.58.336 1.203.554 1.85zm-1.062-4.573c.043.558.167 1.31.373 2.183-.537.09-1.067.155-1.59.202-.18-.698-.31-1.366-.397-1.98.532-.116 1.07-.25 1.614-.405zm-1.603 2.98c.146.515.317 1.04.513 1.57-.517-.04-1.023-.106-1.524-.192-.21-.438-.395-.886-.558-1.337.09 0 .18.005.27.005.427 0 .86-.015 1.297-.045zm-.148-.55c-.546.035-1.083.04-1.614.026-.182-.566-.332-1.132-.45-1.688.55-.063 1.11-.148 1.675-.257.088.6.218 1.247.39 1.92zm-.433-4.838c-.125.548-.136 1.375-.028 2.366-.58.113-1.15.2-1.714.263-.13-.724-.21-1.422-.247-2.07.655-.156 1.317-.342 1.99-.558zm-2.325-2.394c-.186.654-.27 1.52-.245 2.513-.688.15-1.366.27-2.032.352-.084-.758-.105-1.48-.074-2.144.77-.2 1.554-.438 2.35-.72zm.038 5.074c-.636.052-1.262.074-1.877.063-.105-.38-.188-.734-.25-1.045-.045-.226-.082-.45-.115-.67.653-.083 1.315-.197 1.988-.342.04.63.125 1.302.255 1.994zm-2.305-7.51c-.324.713-.532 1.657-.613 2.715-.97.234-1.92.398-2.846.5-.006-.044-.013-.087-.017-.13-.065-.688-.065-1.356-.01-1.982 1.134-.28 2.295-.648 3.485-1.104zm-2.39 6.017c.624 0 1.258-.033 1.9-.096.037.24.075.477.122.714.055.278.127.59.214.92-.718-.038-1.42-.12-2.11-.247-.21-.417-.394-.85-.555-1.298.142.004.285.01.43.01zm-.617-.575c-.163-.54-.293-1.097-.38-1.666.894-.1 1.81-.258 2.743-.478-.02.665.007 1.362.085 2.067-.834.08-1.65.103-2.447.075zm-.023-7.6c-.49.714-.82 1.688-.966 2.814-.937.216-1.852.364-2.748.456-.03-.298-.05-.597-.054-.9-.005-.41.016-.81.06-1.196 1.205-.294 2.44-.685 3.71-1.174zm-.998 5.297c.004.046.012.09.016.137-.778.062-1.54.074-2.284.04-.17-.534-.297-1.083-.38-1.642.854-.09 1.728-.235 2.62-.435-.042.603-.035 1.24.027 1.9zm-1.513.76c.525 0 1.058-.025 1.597-.07.08.54.2 1.068.35 1.584-.657-.046-1.3-.13-1.928-.253-.22-.41-.41-.836-.575-1.273.185.006.37.012.557.012zm-.613-8.18c-.536.75-.908 1.725-1.085 2.84-.805.183-1.595.32-2.368.412-.006-.26-.006-.52.01-.782.025-.482.09-.954.186-1.41 1.06-.278 2.146-.63 3.256-1.06zM43.39 74.4c-.678.05-1.34.062-1.993.04-.144-.545-.24-1.106-.286-1.677.742-.086 1.497-.214 2.266-.383-.032.348-.05.706-.044 1.074.004.317.026.633.057.946zm-1.405.617c.483 0 .974-.02 1.47-.06.08.53.196 1.048.346 1.557-.575-.046-1.14-.123-1.696-.228-.21-.414-.39-.84-.537-1.278.14.003.278.01.418.01zm.33-8.55c-.687.826-1.205 1.885-1.503 3.083-.952.236-1.883.41-2.79.523.004-.275.017-.55.048-.828.053-.48.145-.948.27-1.402 1.288-.35 2.613-.808 3.974-1.375zm-1.787 5.788c-.768.07-1.52.092-2.254.07-.136-.55-.218-1.112-.245-1.684.865-.103 1.748-.26 2.65-.476-.07.4-.122.81-.145 1.228-.016.29-.015.577-.007.863zm-1.714.648c.572 0 1.154-.03 1.744-.083.044.54.132 1.07.26 1.59-.63-.045-1.25-.12-1.857-.233-.21-.416-.383-.844-.524-1.283.126.003.25.01.378.01zm.887-8.753c-.793.887-1.416 1.998-1.802 3.23-1.134.293-2.238.496-3.31.614-.003-.426.026-.854.094-1.283.047-.297.113-.59.192-.877 1.556-.4 3.166-.963 4.827-1.683zm-2.183 5.035c-.035.318-.05.635-.053.95-.874.083-1.726.105-2.558.07-.155-.54-.254-1.088-.297-1.643 1.012-.11 2.05-.298 3.115-.56-.092.386-.164.78-.208 1.183zm.176 3.116c-.686-.043-1.36-.128-2.015-.255-.23-.412-.424-.835-.582-1.265.18.005.357.012.537.012.604 0 1.218-.032 1.842-.09.027.542.098 1.077.218 1.6zm-1.39-10.15c-.842.9-1.488 2.004-1.873 3.227-1.014.248-2.003.425-2.968.533.01-.45.056-.9.146-1.354.06-.294.138-.582.228-.867 1.444-.38 2.932-.89 4.467-1.54zm-3.857 6.533c.53 0 1.066-.025 1.61-.07.04.527.125 1.05.26 1.563-.62-.048-1.23-.133-1.828-.25-.23-.41-.422-.83-.576-1.256.178.005.355.013.534.013zm-.715-.588c-.145-.533-.233-1.077-.26-1.627.91-.1 1.84-.263 2.792-.485-.05.212-.095.425-.13.642-.075.474-.105.95-.1 1.42-.784.065-1.55.08-2.3.05zm1.71-8.176c-.898.954-1.604 2.085-2.04 3.314-1.1.275-2.172.468-3.215.58.01-.52.076-1.042.2-1.565.05-.215.112-.426.18-.637 1.572-.405 3.197-.97 4.876-1.694zm-2.377 4.528c-.102.51-.152 1.015-.16 1.518-.824.07-1.63.085-2.416.05-.16-.54-.26-1.092-.29-1.648.978-.103 1.982-.277 3.01-.52-.056.198-.104.398-.144.6zm.083 3.617c-.642-.05-1.27-.137-1.884-.257-.233-.4-.426-.812-.584-1.228.2.007.403.01.606.01.535 0 1.08-.025 1.63-.07.027.52.104 1.037.232 1.545zM30.16 57.87c-.89.97-1.585 2.084-2.02 3.282-1.165.286-2.298.482-3.4.586-.01-.73.09-1.392.245-1.963.015-.058.037-.116.054-.174 1.645-.4 3.352-.977 5.12-1.73zm-2.317 4.253c-.137.583-.207 1.165-.214 1.743-.856.068-1.69.078-2.507.033-.19-.56-.302-1.1-.352-1.61 1.03-.096 2.088-.27 3.172-.524-.034.12-.07.237-.1.357zm.05 3.856c-.64-.052-1.268-.14-1.882-.264-.27-.424-.492-.84-.667-1.25.248.01.5.016.752.016.508 0 1.024-.02 1.547-.063.03.525.114 1.046.25 1.56zm-6.097-8.464c1.508-.363 3.068-.873 4.68-1.53-.844.95-1.488 2.017-1.873 3.152-1.035.238-2.044.404-3.027.498-.02-.765.07-1.48.22-2.12zm1.092 4.868c.44 0 .886-.018 1.337-.048.052.51.16 1.018.315 1.522-.587-.053-1.164-.137-1.73-.25-.26-.416-.477-.83-.647-1.24.24.01.482.016.725.016zm-.935-.58c-.182-.553-.29-1.093-.343-1.615.916-.09 1.853-.235 2.81-.445-.17.677-.248 1.358-.23 2.038-.762.052-1.508.06-2.237.02zm-.575-.038h-.017c-.613-.054-1.213-.143-1.803-.263-.276-.414-.504-.826-.69-1.235.267.01.537.02.81.02.458 0 .922-.02 1.39-.053.055.52.16 1.03.31 1.53zm-.178-4.11c-.137.682-.195 1.36-.17 2.028-.82.057-1.62.062-2.4.017-.2-.54-.335-1.072-.413-1.59.97-.083 1.964-.233 2.983-.455zm-4.74.535c.4 0 .806-.015 1.215-.04.075.51.2 1.014.368 1.508l-.056-.004c-.568-.054-1.126-.138-1.673-.25-.28-.4-.524-.812-.732-1.235.29.012.583.02.88.02zm-3.778-.017c-.208-.173-.413-.35-.615-.535.223.06.448.114.676.164.107.14.214.28.33.418.064.078.132.15.198.226-.197-.086-.394-.18-.588-.273zm.9-.212c.322.053.646.1.974.133.13.014.26.02.39.03.17.375.365.742.586 1.102-.373-.096-.74-.21-1.103-.334-.288-.297-.57-.605-.848-.93zm2.325 2.312c-.21-.175-.416-.354-.62-.54.23.06.464.114.698.165.158.216.324.43.502.64-.195-.085-.388-.172-.58-.265zm1.117.044c-.076-.086-.145-.175-.217-.263.372.062.746.115 1.127.15.107.012.216.016.323.025.157.375.34.744.55 1.105-.397-.1-.788-.22-1.173-.352-.206-.214-.41-.435-.61-.664zm2.073 2.032c-.202-.17-.402-.345-.6-.526.242.064.486.123.732.176.147.213.3.423.468.63-.202-.09-.403-.182-.6-.28zm1.452.418c-.19-.205-.362-.41-.525-.616.424.07.852.13 1.287.167.086.007.172.01.258.016.143.377.313.747.512 1.11-.414-.104-.823-.22-1.224-.36-.103-.106-.208-.206-.31-.317zm1.777 1.7c-.21-.174-.414-.36-.618-.547.252.066.507.128.764.184.146.22.304.437.47.65-.207-.09-.412-.187-.617-.287zm.93-.214c.474.078.952.14 1.44.177.014 0 .03 0 .044.002.15.376.323.75.53 1.116-.416-.105-.824-.226-1.226-.365-.295-.31-.552-.62-.786-.93zm2.228 2.282c-.196-.165-.392-.33-.583-.506.257.07.518.132.78.19.14.206.287.412.445.615-.216-.094-.43-.194-.642-.3zm.976-.17c.522.086 1.052.15 1.59.185h.02c.128.372.287.74.472 1.1-.452-.11-.897-.243-1.334-.395-.276-.3-.525-.596-.747-.89zm2.206 2.272c-.195-.165-.387-.336-.578-.512.278.075.557.142.84.2.134.218.278.43.433.64-.234-.1-.464-.214-.694-.328zm1.02-.172c.533.086 1.076.145 1.628.18.126.38.28.756.462 1.125-.466-.115-.925-.245-1.375-.4-.26-.296-.498-.598-.714-.906zm2.138 2.275c-.198-.17-.393-.344-.587-.523.298.082.598.155.902.22.128.214.264.427.413.636-.245-.106-.49-.214-.73-.334zm1.065-.166c.524.085 1.058.143 1.6.178.13.383.287.76.47 1.13-.468-.114-.93-.248-1.38-.406-.253-.293-.484-.594-.69-.902zm2.057 2.244c-.1-.085-.203-.165-.302-.253-.092-.083-.178-.167-.266-.25.31.086.624.163.942.23.13.218.27.433.42.645-.27-.115-.534-.24-.795-.372zm1.115-.136c.583.094 1.176.16 1.78.192.12.395.263.782.433 1.16-.524-.123-1.036-.277-1.54-.454-.243-.292-.47-.59-.673-.898zm1.988 2.226c-.185-.16-.362-.322-.533-.488.355.1.715.184 1.08.26.124.227.258.45.402.67-.322-.136-.64-.282-.95-.442zm1.26-.1c.546.085 1.103.145 1.67.177.122.396.27.782.44 1.16-.504-.12-.998-.264-1.484-.433-.228-.292-.437-.594-.627-.905zm1.822 2.182c-.166-.15-.325-.304-.48-.46.358.1.72.184 1.087.26.123.228.254.454.395.675-.34-.145-.673-.305-1.003-.475zm1.324-.07c.502.08 1.014.137 1.532.17.14.39.296.773.476 1.146-.47-.115-.934-.248-1.39-.407-.224-.294-.43-.597-.618-.91zm1.77 2.18c-.162-.153-.32-.31-.47-.47.347.1.697.19 1.053.264.127.23.265.452.41.672-.336-.144-.667-.298-.993-.467zm1.303-.072c.57.094 1.15.156 1.74.19.137.402.292.795.467 1.177-.536-.125-1.06-.28-1.577-.463-.224-.292-.437-.592-.63-.904zm1.782 2.183c-.16-.15-.315-.307-.465-.468.398.115.802.215 1.21.298.132.246.272.484.42.72-.396-.165-.782-.35-1.165-.55zm1.45-.043c.634.1 1.28.163 1.937.19.12.392.266.805.442 1.23-.602-.128-1.192-.29-1.77-.49-.217-.3-.42-.608-.61-.93zm1.706 2.216c-.163-.164-.322-.332-.474-.506.468.133.943.244 1.426.334.124.263.264.526.414.788-.464-.18-.918-.388-1.366-.615zm1.334-.672c-.208-.46-.378-.91-.517-1.34.05 0 .1.003.152.003.548 0 1.105-.028 1.67-.077.116.532.26 1.07.432 1.61-.59-.036-1.17-.1-1.738-.195zm.45 2.1c-.07-.045-.14-.094-.21-.14.09.032.18.065.272.096.03.043.056.087.087.13-.048-.03-.098-.056-.147-.086zm-.154-1.487c.536.077 1.08.128 1.634.154.148.415.312.83.495 1.235-.528-.112-1.048-.25-1.558-.415-.213-.322-.403-.648-.572-.974zm1.593 2.283c-.172-.186-.336-.375-.49-.57.436.12.878.225 1.326.308.14.277.292.55.45.818-.435-.166-.864-.35-1.285-.556zm1.343 1.174c.138.05.278.09.417.137.06.086.12.17.182.254-.208-.124-.408-.253-.6-.39zm.127-1.33c.472.068.95.115 1.435.144.167.41.348.82.546 1.224-.47-.105-.933-.235-1.39-.383-.212-.32-.41-.65-.59-.986zm1.652 2.346c-.184-.2-.358-.407-.525-.62.387.105.78.195 1.177.272.153.284.315.563.484.838-.384-.148-.762-.312-1.136-.49zm1.21 1.103c.144.052.287.11.434.16.07.098.142.195.214.29-.225-.14-.44-.292-.65-.45zm.75-.324c-.227-.33-.44-.667-.638-1.014.476.072.958.13 1.447.163.19.413.39.824.605 1.23-.478-.105-.95-.23-1.414-.38zm1.137 1.43c-.207-.223-.405-.454-.595-.692.404.11.81.208 1.224.287.17.3.348.597.534.887-.394-.146-.782-.305-1.165-.482zm1.145 1.063c.176.062.354.12.533.178.098.138.198.276.3.41-.29-.18-.566-.377-.833-.59zm.212-1.354c.328.048.66.085.994.114.204.406.418.81.646 1.21-.322-.076-.64-.162-.955-.26-.24-.344-.466-.7-.683-1.064zm1.897 2.593c-.235-.257-.46-.525-.678-.804.265.068.533.13.802.185.187.307.384.608.585.904-.238-.09-.474-.184-.71-.285zm1.03.988c.077.026.156.053.235.078.07.094.143.185.215.277-.153-.113-.304-.23-.452-.355zm-.14-1.465c.276.043.552.083.83.114.153.373.318.75.495 1.13-.197-.052-.392-.11-.586-.17-.257-.347-.503-.707-.74-1.074zm1.316 1.815c.107.028.216.053.324.08.126.248.257.495.395.74-.248-.26-.487-.535-.72-.82z" fill="#FFF"/><path d="M145.273 53.13c.07.194.17.372.303.522 1.46-.418 2.268-.304 2.527-.243.05-.187.08-.372.097-.55-.397-.096-1.335-.204-2.927.27M145.132 51.704v.613c1.855-.4 2.844-.15 3.084-.07v-.582c-.462-.128-1.463-.285-3.084.04M59.596 37.26c-1.416 1.817-3.414 2.372-4.37 2.54-.96.165-1.625.28-2.583.448-.416.072-.79.18-1-.116-.207-.254-.207-.71-.207-1V12.77c0-.414 0-.828.25-1.12.333-.348.666-.323 1-.38l2.497-.435c1.333-.232 3.123-.212 4.37.688 1.25.942 1.542 2.546 1.542 4.036V32.94c0 .993 0 2.318-1.5 4.317zM58.39 16.03c0-.91-.126-1.634-.876-2.248-.457-.376-.79-.484-1.915-.288-.75.13-1.167.203-1.333.522-.125.27-.125.476-.125.724v21.232c0 .456-.04.918.25 1.157.167.136.79-.015.958-.043.457-.08 1.457-.378 2.206-1.295.833-1.055.833-1.717.833-2.338V16.03zM65.467 37.976c-1.125.195-1.25.217-1.25-.362V9.924c0-.536.25-.663 1.25-.836 1.123-.196 1.415-.205 1.415.415v27.564c0 .62-.083.677-1.415.91M79.456 35.542c-.21.244-.542.094-.916.16-.334.057-.167-.882-.75-1.153-.458-.21-.916 1.483-2.956 1.838-3.538.615-4.83-2.057-4.83-3.96V13.14c0-1.614 1.083-5.072 4.83-5.723 3.664-.638 4.83 2.553 4.83 4.043v1.863c0 .372-.333.554-1.458.75-1.04.18-1.29.183-1.29-.19 0-.58-.042-1.44-.042-2.02 0-.91-.79-2.097-2.04-1.88-1.29.224-2.123 1.694-2.123 2.562V31.79c0 1.035.46 2.197 2.124 1.907 1.624-.282 2.04-1.638 2.04-2.506v-7.118c0-.207.042-.463-.166-.592-.292-.156-1.166.12-1.582.192-.333.058-.375-.265-.375-1.135 0-.91.043-1.29.334-1.34 1.124-.196 4.08-.834 4.538-.83.167.01.042.323.042.488v13.782c0 .29.04.614-.208.905M84.035 34.746c-1.124.195-1.25.217-1.25-.363V6.696c0-.538.25-.664 1.25-.838 1.124-.196 1.416-.205 1.416.416v27.563c0 .62-.082.677-1.415.91M96.442 6.017c-.5.087-1.082.147-1.79.31-.333.06-.666.117-.874.236-.375.355-.292 1.044-.292 1.583V32.73c0 .372-.624.522-1.498.674-.75.13-1.29.225-1.29-.19V8.632c0-.537.082-1.255-.292-1.48-.21-.047-.542.01-.875.07l-1.54.267c-.623.11-.748-.076-.748-.987 0-.91.083-1.256.582-1.343L96.4 3.665c.5-.087.542.32.542 1.148 0 .95-.042 1.124-.5 1.204M104.936 31.152c-1.207.21-1.415.33-1.5-.236-.332-2.26-.582-4.286-.914-6.504-.042-.407-.625-.264-1.29-.148-.792.137-1.208.17-1.25.59-.25 2.36-.458 4.425-.666 6.86-.042.464-.417.488-1.75.72-.623.108-1.165.202-1.123-.178 1.29-10.985 2.415-19.127 3.58-28.64.084-.595.292-.673 1.208-.832 1.042-.18 1.375-.198 1.416.5 1.416 10.348 2.165 16.673 3.58 27.23.042.448-.166.442-1.29.638zM101.522 12.5c0-.165-.042-.447-.29-.404-.21.036-.25.333-.25.457-.25 3.52-.417 6.446-.626 9.214-.04.297.333.314.916.213.5-.087.958-.166.916-.49-.29-3.51-.416-5.763-.666-8.99zM115.76 29.27l-6.203 1.078c-.458.08-.915.118-1.082-.102-.208-.295-.167-.922-.167-1.46V2.132c0-.62.417-.61 1.25-.755 1.082-.188 1.456-.253 1.456.367V26.12c0 .54-.083 1.216.292 1.44.167.054.625.016.957-.042l3.498-.608c.542-.094.584.23.584 1.016 0 1.035-.042 1.25-.583 1.343M71.9 69.054c-1.416 1.82-3.372 2.367-4.372 2.54-.75.13-1.29.266-2.04.355-.5.044-1.25.258-1.415.038-.25-.328-.333-.232-.333-1.35V44.566c0-.414 0-.786.25-1.078.333-.347.665-.364 1-.422l2.372-.413c1.29-.225 3.122-.212 4.37.688 1.25.942 1.54 2.547 1.54 4.037V51.1c0 .995.043 1.69-.456 2.688-.625 1.268-1.915 1.824-1.915 1.99 0 .165 1.416.166 2.04 1.3.5.906.46 1.534.46 2.527v5.132c0 1.035 0 2.318-1.5 4.317zm-1.332-21.207c0-.952-.125-1.634-.875-2.248-.457-.377-.75-.492-1.915-.29-.583.102-1.04.182-1.207.5-.124.27-.124.477-.124.726v7.74c0 .455-.042.834.25 1.074.25.204.416.134.75.076.582-.1 1.54-.392 2.29-1.31.832-1.054.832-1.675.832-2.337v-3.933zm.166 12.098c0-1.904-1.124-2.536-2.373-2.32-1.79.312-1.914.458-1.914 1.45v8.693c0 .455.042 1.234.416 1.21.333-.016.375-.024.75-.09.458-.078 1.498-.384 2.248-1.3.833-1.055.874-1.642.874-2.346v-5.297zM80.727 69.298c-3.372.587-4.83-1.89-4.83-3.92V41.79c0-.538.458-.7 1.333-.852.874-.153 1.373-.074 1.373.38v23.385c0 1.12.625 2.086 2.124 1.825 1.415-.246 2.123-1.404 2.123-2.52v-23.55c0-.373.25-.54 1.25-.714 1.04-.18 1.456-.17 1.456.203v23.715c0 2.607-1.457 5.054-4.83 5.64M92.8 67.198c-2.706.47-4.83-.69-4.83-3.96V60.92c0-.456.292-.59 1.375-.777 1-.174 1.415-.205 1.415.208v2.278c0 1.035.542 2.058 2.04 1.797 1.79-.31 2.123-1.694 2.123-2.645v-2.525c0-2.194-1.623-4.23-3.288-6.257-1.75-2.138-3.705-4.446-3.705-6.888V44c0-2.152 1.29-5.15 4.746-5.75 3.164-.552 4.746 1.947 4.746 4.057v1.904c0 .332-.5.42-1.457.586-.792.137-1.333.23-1.333-.14v-1.947c0-1.366-1.04-2.055-1.956-1.895-1.166.203-2.04 1.514-2.04 2.548v2.276c0 1.572 1.623 3.4 3.205 5.32 1.833 2.205 3.79 4.76 3.79 7.866v2.73c0 2.815-2.123 5.172-4.83 5.642M102.127 65.535c-1.125.195-1.25.217-1.25-.363V37.484c0-.538.25-.664 1.25-.838 1.123-.195 1.415-.205 1.415.417v27.563c0 .62-.083.677-1.415.91M115.49 63.25c-.623.11-1.165-.003-1.497-1.352-1.25-5.04-1.916-7.903-3.248-12.803-.29-1.026-.625-2.913-.874-2.87-.25.044-.29.548-.29.796v16.515c0 .662-.21.78-1.333.976-1.207.21-1.374.157-1.374-.505V36.193c0-.414.292-.464 1.04-.595 1.167-.203 1.458-.005 1.874 1.495 1.29 4.908 2.124 8.157 3.415 13.064.083.36.25.95.457.914.207-.035.25-.54.25-.788V35.3c0-.662.207-.78 1.415-.99.957-.168 1.207-.17 1.207.41v26.654c0 1.49-.042 1.704-1.04 1.877M128.023 61.07c-1.79.313-4.455.776-6.245 1.088-.666.115-1.374.322-1.665.124-.333-.232-.25-.867-.25-1.364V34.76c0-.537.042-.585.292-.96.25-.374.54-.425.957-.498l6.91-1.2c.5-.09.5.408.5 1.153 0 .786 0 1.117-.54 1.212l-4.164.724c-.333.058-.832.187-.957.374-.208.326-.208.285-.208.823v7.864c0 .373-.082.843.25 1.033.292.157.583.064.916.006.708-.124 1.582-.276 1.957-.34.5-.088.583.23.583 1.098 0 .828-.042 1.166-.583 1.26l-1.873.326c-.417.072-.875.194-1.04.305-.376.312-.292.712-.292 1.25v8.898c0 .54 0 1.325.207 1.413.21.09.79.03 1.25-.05 1.123-.197 2.83-.494 3.954-.69.5-.086.542.155.542 1.066 0 .91-.04 1.166-.5 1.245M134.727 59.905c-2.707.47-4.83-.69-4.83-3.96v-2.318c0-.455.29-.59 1.374-.777 1-.174 1.417-.205 1.417.21v2.275c0 1.035.54 2.058 2.04 1.798 1.79-.312 2.123-1.694 2.123-2.646v-2.525c0-2.193-1.624-4.23-3.29-6.256-1.748-2.138-3.705-4.447-3.705-6.888v-2.112c0-2.15 1.29-5.15 4.747-5.75 3.164-.55 4.746 1.948 4.746 4.058v1.904c0 .33-.5.418-1.458.585-.79.137-1.332.23-1.332-.14v-1.946c0-1.366-1.04-2.054-1.956-1.895-1.166.203-2.04 1.514-2.04 2.55v2.275c0 1.572 1.623 3.4 3.205 5.32 1.832 2.205 3.79 4.762 3.79 7.866v2.73c0 2.816-2.124 5.172-4.83 5.642" fill="#FFF"/><path d="M146.093 57.928c-2.706.47-4.83-.69-4.83-3.96V51.65c0-.455.292-.59 1.374-.777 1-.174 1.416-.205 1.416.21v2.275c0 1.035.54 2.058 2.04 1.797 1.79-.31 2.123-1.693 2.123-2.645v-2.525c0-2.194-1.624-4.23-3.29-6.257-1.747-2.137-3.704-4.445-3.704-6.887v-2.11c0-2.152 1.29-5.15 4.746-5.75 3.164-.55 4.746 1.947 4.746 4.057v1.904c0 .332-.5.42-1.457.586-.79.137-1.332.23-1.332-.14V33.44c0-1.366-1.04-2.054-1.957-1.895-1.166.203-2.04 1.514-2.04 2.548v2.277c0 1.572 1.623 3.4 3.206 5.32 1.832 2.205 3.788 4.762 3.788 7.866v2.732c0 2.814-2.123 5.17-4.83 5.64M85.748 102.36c-1.207.21-1.415.33-1.498-.236-.334-2.26-.583-4.285-.916-6.504-.042-.406-.625-.263-1.29-.148-.792.138-1.208.17-1.25.59-.25 2.36-.458 4.426-.666 6.862-.042.463-.416.487-1.75.718-.623.11-1.164.203-1.123-.177 1.29-10.985 2.415-19.127 3.58-28.642.084-.594.292-.67 1.208-.83 1.04-.18 1.374-.198 1.415.498 1.416 10.35 2.166 16.676 3.58 27.232.043.448-.166.443-1.29.638zm-3.414-18.65c0-.167-.04-.45-.29-.405-.21.036-.25.333-.25.457-.25 3.52-.417 6.446-.626 9.214-.04.297.334.314.917.213.5-.088.957-.167.916-.49-.29-3.51-.416-5.765-.666-8.99zM93.534 101.006c-3.247.565-4.83-1.767-4.83-3.96V77.758c0-2.236 1.583-5.16 4.83-5.725 3.456-.6 4.83 2.264 4.83 4.044v1.86c0 .415-.625.565-1.374.695-.833.145-1.416.288-1.416-.21v-1.944c0-.91-.79-2.096-2.04-1.88-1.29.225-2.123 1.612-2.123 2.564v19.162c0 1.16.584 2.175 2.124 1.907 1.416-.246 2.04-1.39 2.04-2.507v-2.442c0-.33.542-.425 1.29-.555 1-.175 1.5-.345 1.5.07v2.524c0 2.607-1.416 5.088-4.83 5.682M108.522 98.4c-1.207.21-1.416.328-1.498-.237-.334-2.26-.584-4.286-.916-6.504-.042-.407-.625-.265-1.29-.15-.792.14-1.208.17-1.25.59-.25 2.362-.458 4.426-.666 6.863-.042.462-.416.486-1.75.718-.623.11-1.165.203-1.123-.176 1.29-10.985 2.413-19.127 3.58-28.642.083-.594.29-.67 1.207-.83 1.04-.182 1.373-.198 1.415.498 1.416 10.35 2.165 16.675 3.58 27.23.043.45-.166.443-1.29.64zm-3.414-18.652c0-.166-.04-.448-.29-.404-.21.036-.25.332-.25.457-.25 3.52-.418 6.447-.626 9.214-.04.297.334.315.916.213.5-.086.958-.166.916-.49-.29-3.51-.416-5.763-.666-8.99zM120.054 94.614c-1.415 1.818-3.413 2.373-4.37 2.54l-2.582.448c-.417.073-.79.18-1-.116-.207-.253-.207-.708-.207-.998V70.124c0-.413 0-.827.25-1.12.332-.347.666-.322.998-.38l2.5-.435c1.33-.232 3.12-.212 4.37.688 1.25.942 1.54 2.546 1.54 4.036v17.383c0 .993 0 2.317-1.5 4.317zm-1.207-21.23c0-.91-.125-1.633-.874-2.247-.458-.376-.79-.484-1.915-.288-.75.13-1.166.202-1.332.52-.125.27-.125.477-.125.725v21.232c0 .456-.04.918.25 1.157.167.136.792-.013.958-.042.458-.08 1.457-.378 2.206-1.295.833-1.055.833-1.717.833-2.338V73.384zM132.836 94.17c-1.79.31-4.455.775-6.245 1.086-.665.116-1.372.322-1.664.124-.333-.232-.25-.867-.25-1.364V67.86c0-.538.042-.587.292-.96.25-.376.54-.427.957-.5l6.91-1.2c.5-.088.5.408.5 1.154 0 .786 0 1.117-.54 1.21l-4.164.725c-.332.057-.83.185-.956.373-.21.326-.21.285-.21.822v7.864c0 .37-.082.84.25 1.03.293.158.584.066.917.008.71-.124 1.583-.276 1.958-.34.5-.087.583.23.583 1.098 0 .828-.04 1.167-.582 1.26-.333.06-1.124.196-1.874.327-.416.072-.874.193-1.04.304-.375.314-.292.713-.292 1.25v8.9c0 .538 0 1.324.208 1.412.21.087.79.027 1.25-.053l3.954-.688c.5-.087.542.153.542 1.064 0 .91-.042 1.166-.5 1.246M145.41 91.983c-1.083.188-1.333.15-1.333-.513V77.025c0-1.614 0-4.22-.29-4.17-.293.05-.418.527-.5.79-.584 2.336-.917 3.512-1.542 5.773-.082.303-.124.642-.582.722-.375.065-.5-.244-.625-.47-.5-1.86-.833-3.084-1.416-5.218-.083-.275-.25-.618-.582-.56-.25.043-.208 2.56-.208 4.133V92.47c0 .66-.25.788-1.333.976-1.166.203-1.375.156-1.375-.506V65.334c0-.662.375-.644 1.166-.782.917-.16 1.084.02 1.75 1.972.832 2.463 1.457 4.258 2.165 6.328.083.193.25.412.5.37.207-.037.416-.322.5-.544.873-2.76 1.29-4.197 2.164-7.08.623-2.096.706-2.44 1.623-2.6.915-.16 1.29-.225 1.29.396V91c0 .66-.125.766-1.374.983M155.235 75.623c-.166.94-.29 1.83-.375 2.506-.04.38-.25 1.326-.25 2.07v9.85c0 .374-.916.492-1.457.586-.666.116-1.332.273-1.332-.224 0-3.352.043-5.925.043-9.61 0-.744-.125-1.55-.21-1.99-.082-.524-.33-1.515-.498-2.438-.874-4.69-1.5-8.638-2.29-13.342-.083-.524.29-.63 1-.754 1.29-.224 1.623-.24 1.706.366.5 3.514.917 6.96 1.375 10.23 0 .126.083.36.25.33.166-.028.208-.325.208-.45.54-3.777.874-6.856 1.374-10.668.083-.552.458-.742 1.54-.93 1.125-.196 1.333-.19 1.25.362-.833 5.03-1.5 9.035-2.332 14.105" fill="#FFF"/><path d="M60.675 36.186c-1.415 1.818-3.414 2.373-4.37 2.54-.96.166-1.625.282-2.582.45-.417.07-.79.178-1-.117-.208-.255-.208-.71-.208-1V11.698c0-.414 0-.828.25-1.12.333-.348.666-.323 1-.38l2.497-.435c1.333-.232 3.123-.212 4.37.688 1.25.942 1.542 2.546 1.542 4.037V31.87c0 .993 0 2.317-1.5 4.316zm-1.207-21.23c0-.91-.125-1.633-.874-2.247-.458-.377-.79-.485-1.916-.29-.75.132-1.165.204-1.332.523-.124.27-.124.476-.124.725v21.23c0 .457-.042.92.25 1.158.166.137.79-.013.957-.042.456-.08 1.456-.378 2.205-1.294.833-1.056.833-1.718.833-2.34V14.958zM66.546 36.903c-1.124.195-1.25.217-1.25-.362V8.854c0-.538.25-.664 1.25-.838 1.124-.196 1.415-.205 1.415.416v27.564c0 .622-.082.677-1.414.91M80.535 34.47c-.21.243-.54.094-.916.16-.334.057-.167-.883-.75-1.153-.46-.21-.916 1.483-2.956 1.838-3.54.615-4.83-2.057-4.83-3.96V12.067c0-1.614 1.083-5.072 4.83-5.724 3.663-.638 4.83 2.553 4.83 4.043v1.863c0 .372-.334.554-1.458.75-1.04.18-1.29.183-1.29-.19 0-.58-.042-1.44-.042-2.02 0-.91-.792-2.097-2.04-1.88-1.29.224-2.124 1.694-2.124 2.562v19.246c0 1.034.458 2.196 2.124 1.906 1.623-.282 2.04-1.637 2.04-2.506v-7.12c0-.206.04-.462-.167-.59-.29-.157-1.166.12-1.582.192-.333.058-.375-.266-.375-1.135 0-.91.042-1.29.334-1.34 1.124-.197 4.08-.835 4.537-.832.168.012.043.324.043.49v13.782c0 .29.042.613-.208.905M85.115 33.673c-1.125.196-1.25.217-1.25-.362V5.624c0-.538.25-.664 1.25-.838 1.123-.196 1.416-.205 1.416.416v27.565c0 .62-.083.676-1.415.908M97.522 4.944c-.5.087-1.083.147-1.79.312-.334.058-.667.115-.875.234-.375.356-.292 1.045-.292 1.583v24.584c0 .372-.624.522-1.498.674-.75.13-1.29.226-1.29-.188V7.558c0-.538.082-1.256-.292-1.48-.21-.048-.54.01-.874.068l-1.54.268c-.624.11-.75-.076-.75-.986s.084-1.257.583-1.344c2.623-.456 5.954-1.036 8.577-1.49.5-.088.54.318.54 1.146 0 .952-.04 1.124-.498 1.204M106.015 30.08c-1.207.21-1.415.328-1.498-.237-.334-2.26-.584-4.286-.916-6.504-.04-.407-.624-.265-1.29-.15-.79.138-1.207.17-1.25.59-.25 2.362-.457 4.426-.665 6.863-.042.462-.416.486-1.748.718-.625.11-1.166.203-1.125-.176 1.29-10.986 2.415-19.127 3.58-28.642.084-.594.292-.672 1.208-.83 1.04-.182 1.374-.2 1.416.498 1.415 10.35 2.164 16.675 3.58 27.23.042.45-.167.443-1.29.64zM102.6 11.427c0-.166-.04-.448-.29-.405-.208.036-.25.333-.25.458-.25 3.52-.416 6.447-.624 9.214-.042.297.333.315.915.214.5-.087.96-.167.917-.49-.29-3.51-.416-5.764-.666-8.99zM116.84 28.196l-6.203 1.08c-.46.08-.916.117-1.083-.103-.208-.294-.167-.922-.167-1.46V1.06c0-.62.417-.61 1.25-.756 1.082-.188 1.457-.253 1.457.368v24.376c0 .54-.084 1.215.29 1.44.168.053.626.016.96-.042l3.496-.61c.54-.093.583.23.583 1.017 0 1.035-.042 1.25-.583 1.343M72.98 67.98c-1.416 1.82-3.373 2.368-4.373 2.54-.75.13-1.29.267-2.04.356-.5.045-1.25.26-1.415.04-.25-.33-.333-.232-.333-1.35V43.492c0-.414 0-.786.25-1.078.332-.347.665-.364.998-.422.874-.152 1.5-.26 2.373-.413 1.292-.226 3.124-.213 4.373.687 1.248.942 1.54 2.547 1.54 4.037v3.725c0 .992.04 1.688-.458 2.686-.624 1.267-1.915 1.823-1.915 1.988 0 .166 1.415.168 2.04 1.3.5.907.458 1.535.458 2.53v5.13c0 1.035 0 2.318-1.5 4.317zm-1.333-21.206c0-.95-.125-1.633-.875-2.248-.457-.376-.75-.49-1.915-.288-.583.102-1.04.18-1.207.5-.125.27-.125.477-.125.725v7.74c0 .455-.04.835.25 1.074.25.204.416.134.75.076.582-.1 1.54-.392 2.29-1.308.832-1.056.832-1.677.832-2.34v-3.93zm.166 12.098c0-1.904-1.124-2.536-2.373-2.32-1.79.312-1.915.458-1.915 1.452v8.69c0 .456.042 1.235.417 1.21.332-.015.374-.022.75-.088.457-.08 1.498-.384 2.247-1.3.832-1.056.873-1.643.873-2.347V58.87zM81.806 68.226c-3.372.586-4.83-1.892-4.83-3.92v-23.59c0-.54.458-.7 1.333-.853.873-.152 1.372-.074 1.372.38V63.63c0 1.118.625 2.085 2.124 1.824 1.415-.246 2.123-1.404 2.123-2.52V39.38c0-.373.25-.54 1.248-.714 1.04-.18 1.457-.17 1.457.202v23.715c0 2.607-1.457 5.054-4.83 5.64M93.88 66.125c-2.706.47-4.83-.69-4.83-3.96v-2.318c0-.455.29-.59 1.374-.777 1-.174 1.415-.205 1.415.21v2.275c0 1.035.54 2.058 2.04 1.797 1.79-.31 2.123-1.693 2.123-2.645v-2.525c0-2.193-1.624-4.23-3.29-6.256-1.747-2.138-3.704-4.447-3.704-6.888v-2.112c0-2.15 1.29-5.15 4.745-5.75 3.164-.55 4.746 1.948 4.746 4.058v1.904c0 .33-.5.418-1.456.585-.79.137-1.333.23-1.333-.14v-1.946c0-1.366-1.04-2.054-1.955-1.895-1.166.203-2.04 1.514-2.04 2.548v2.277c0 1.572 1.623 3.4 3.205 5.32 1.832 2.205 3.79 4.76 3.79 7.866v2.732c0 2.814-2.124 5.17-4.83 5.64M103.206 64.462c-1.124.195-1.25.217-1.25-.362V36.41c0-.536.25-.663 1.25-.836 1.124-.196 1.415-.205 1.415.416v27.564c0 .62-.082.676-1.414.908M116.57 62.18c-.624.107-1.165-.006-1.498-1.355-1.25-5.04-1.916-7.903-3.248-12.803-.29-1.025-.624-2.913-.874-2.87-.25.044-.292.548-.292.796v16.514c0 .662-.208.78-1.332.976-1.207.21-1.374.157-1.374-.506V35.12c0-.414.292-.464 1.04-.595 1.167-.202 1.458-.005 1.874 1.496 1.29 4.908 2.124 8.157 3.415 13.065.084.358.25.95.458.913.21-.036.25-.54.25-.788V34.228c0-.663.208-.78 1.416-.992.957-.166 1.207-.168 1.207.41v26.655c0 1.49-.04 1.705-1.04 1.88M129.103 60l-6.246 1.085c-.665.116-1.373.322-1.665.124-.333-.233-.25-.868-.25-1.365V33.69c0-.54.042-.588.292-.963.25-.374.54-.425.958-.497l6.91-1.202c.5-.087.5.41.5 1.154 0 .786 0 1.118-.542 1.212l-4.163.724c-.333.058-.832.186-.957.373-.21.328-.21.286-.21.824v7.864c0 .372-.08.842.25 1.032.293.157.584.064.917.007.708-.123 1.582-.276 1.957-.34.5-.088.583.23.583 1.098 0 .828-.042 1.166-.583 1.26l-1.873.326c-.416.074-.874.195-1.04.306-.375.314-.29.713-.29 1.25v8.9c0 .538 0 1.324.207 1.412.208.088.79.028 1.248-.052l3.955-.688c.5-.087.542.154.542 1.065 0 .91-.042 1.166-.5 1.246M135.806 58.833c-2.706.47-4.83-.692-4.83-3.96v-2.32c0-.454.29-.587 1.374-.776 1-.174 1.416-.205 1.416.21v2.276c0 1.034.54 2.057 2.04 1.797 1.79-.312 2.123-1.694 2.123-2.646V50.89c0-2.194-1.625-4.23-3.29-6.257-1.748-2.138-3.706-4.446-3.706-6.888v-2.11c0-2.153 1.29-5.15 4.747-5.752 3.165-.55 4.747 1.948 4.747 4.058v1.905c0 .33-.5.418-1.457.585-.79.138-1.333.232-1.333-.14v-1.946c0-1.366-1.04-2.054-1.956-1.895-1.165.202-2.04 1.513-2.04 2.548v2.276c0 1.573 1.624 3.4 3.206 5.32 1.832 2.205 3.79 4.762 3.79 7.866v2.732c0 2.814-2.124 5.17-4.83 5.64M147.172 56.855c-2.706.47-4.83-.69-4.83-3.96v-2.318c0-.455.292-.588 1.375-.777 1-.174 1.415-.205 1.415.21v2.275c0 1.035.54 2.058 2.04 1.798 1.79-.312 2.123-1.694 2.123-2.646v-2.524c0-2.194-1.624-4.23-3.29-6.257-1.747-2.138-3.704-4.446-3.704-6.888v-2.11c0-2.153 1.292-5.15 4.747-5.752 3.164-.55 4.746 1.948 4.746 4.06v1.903c0 .33-.5.416-1.457.583-.79.138-1.332.232-1.332-.14v-1.946c0-1.366-1.04-2.054-1.957-1.895-1.166.203-2.04 1.514-2.04 2.55v2.275c0 1.572 1.623 3.4 3.206 5.32 1.832 2.205 3.788 4.762 3.788 7.866v2.732c0 2.814-2.122 5.17-4.828 5.64M86.828 101.288c-1.208.21-1.416.33-1.5-.236-.332-2.26-.582-4.286-.915-6.505-.042-.406-.625-.263-1.29-.148-.792.137-1.208.168-1.25.59-.25 2.36-.458 4.425-.666 6.86-.042.464-.416.488-1.748.72-.626.108-1.167.202-1.126-.178 1.29-10.985 2.415-19.127 3.58-28.642.084-.594.292-.67 1.208-.83 1.04-.18 1.374-.198 1.416.498 1.415 10.35 2.165 16.675 3.58 27.23.042.45-.167.444-1.29.64zm-3.415-18.652c0-.165-.04-.447-.29-.404-.21.036-.25.333-.25.457-.25 3.52-.417 6.445-.625 9.213-.042.297.333.315.916.213.5-.087.957-.166.916-.49-.292-3.51-.417-5.764-.667-8.99zM94.613 99.933c-3.247.565-4.83-1.767-4.83-3.96V76.685c0-2.235 1.583-5.16 4.83-5.724 3.456-.6 4.83 2.264 4.83 4.044v1.862c0 .414-.624.564-1.374.694-.834.146-1.417.288-1.417-.208V75.41c0-.912-.79-2.1-2.04-1.882-1.29.225-2.123 1.61-2.123 2.563v19.163c0 1.16.583 2.175 2.123 1.907 1.416-.246 2.04-1.39 2.04-2.506v-2.442c0-.332.542-.426 1.29-.556 1-.174 1.5-.343 1.5.07v2.525c0 2.608-1.416 5.09-4.83 5.683M109.6 97.326c-1.206.21-1.415.33-1.497-.235-.334-2.26-.583-4.286-.916-6.504-.042-.406-.625-.264-1.29-.148-.792.138-1.208.17-1.25.59-.25 2.36-.458 4.426-.666 6.862-.04.463-.415.486-1.748.718-.624.11-1.166.203-1.124-.177 1.29-10.984 2.415-19.126 3.58-28.64.084-.595.292-.672 1.208-.83 1.04-.182 1.374-.2 1.415.497 1.417 10.35 2.167 16.675 3.582 27.23.042.45-.166.444-1.29.64zm-3.413-18.65c0-.166-.04-.45-.29-.405-.21.037-.25.333-.25.458-.25 3.52-.417 6.446-.625 9.214-.042.297.333.314.916.213.5-.087.957-.167.915-.49-.29-3.51-.416-5.764-.666-8.99zM121.134 93.54c-1.416 1.82-3.414 2.374-4.372 2.54l-2.58.45c-.418.072-.792.18-1-.116-.208-.254-.208-.71-.208-1V69.053c0-.414 0-.828.25-1.12.333-.348.666-.323.998-.38l2.5-.435c1.33-.232 3.12-.212 4.37.688 1.25.942 1.54 2.546 1.54 4.037v17.382c0 .993 0 2.317-1.498 4.317zm-1.207-21.228c0-.91-.126-1.634-.875-2.248-.458-.376-.79-.484-1.915-.288-.75.13-1.166.203-1.332.52-.125.272-.125.478-.125.726v21.232c0 .456-.042.918.25 1.157.166.138.79-.012.957-.04.458-.08 1.457-.38 2.207-1.296.833-1.055.833-1.717.833-2.338V72.312zM133.915 93.097c-1.79.31-4.454.775-6.244 1.086-.666.116-1.373.322-1.665.124-.333-.232-.25-.866-.25-1.363V66.787c0-.538.042-.587.292-.96.25-.376.54-.426.957-.5l6.91-1.2c.5-.088.5.41.5 1.154 0 .787 0 1.118-.54 1.212l-4.164.724c-.333.058-.832.187-.957.374-.208.326-.208.285-.208.823v7.863c0 .373-.084.842.25 1.032.29.157.582.065.915.007l1.957-.34c.5-.087.583.23.583 1.098 0 .828-.042 1.167-.583 1.26-.333.06-1.124.196-1.873.327-.417.072-.875.193-1.04.305-.376.313-.293.712-.293 1.25v8.9c0 .537 0 1.323.21 1.41.208.09.79.03 1.248-.05l3.955-.688c.5-.087.542.154.542 1.064 0 .912-.042 1.167-.5 1.247M146.488 90.91c-1.082.188-1.332.15-1.332-.513V75.952c0-1.613 0-4.22-.29-4.17-.293.05-.417.528-.5.79-.584 2.337-.917 3.512-1.542 5.773-.082.304-.124.642-.582.722-.375.065-.5-.244-.625-.47-.5-1.86-.833-3.084-1.415-5.218-.083-.276-.25-.62-.583-.56-.25.042-.21 2.56-.21 4.132v14.444c0 .662-.25.79-1.33.977-1.167.203-1.376.156-1.376-.506V64.262c0-.663.375-.645 1.166-.782.916-.16 1.083.018 1.75 1.972.832 2.462 1.456 4.257 2.164 6.327.083.192.25.412.5.368.207-.036.416-.32.5-.542.874-2.76 1.29-4.198 2.164-7.08.624-2.097.708-2.442 1.624-2.6.915-.16 1.29-.226 1.29.395v27.607c0 .66-.125.766-1.374.983M156.314 74.55c-.166.94-.29 1.83-.375 2.507-.042.38-.25 1.326-.25 2.07v9.852c0 .37-.916.49-1.458.583-.666.116-1.332.273-1.332-.224 0-3.353.042-5.926.042-9.61 0-.745-.125-1.55-.208-1.99-.084-.525-.333-1.516-.5-2.44-.874-4.69-1.5-8.636-2.29-13.34-.083-.525.292-.63 1-.754 1.29-.225 1.623-.242 1.706.365.5 3.515.916 6.96 1.374 10.233 0 .124.083.358.25.33.166-.03.208-.327.208-.45.54-3.78.875-6.858 1.374-10.67.083-.552.458-.74 1.54-.93 1.125-.196 1.333-.19 1.25.362-.833 5.03-1.5 9.035-2.332 14.105" fill="#000403"/></g></svg>