<svg width="39" height="44" xmlns="http://www.w3.org/2000/svg"><title>Imported Layers</title><g fill="#000" fill-rule="evenodd"><path d="M9.9 10.764C8.48 9.79 6.48 9.817 5 10.112c-1.02.202-1.76.348-2.778.552-.37.073-.744.054-1.107.45-.27.334-.26.797-.248 1.26l.706 29.456c.008.323.02.832.26 1.11.24.324.655.194 1.118.102l2.873-.57c1.064-.21 3.28-.884 4.814-2.954 1.62-2.273 1.584-3.752 1.557-4.863l-.465-19.422c-.04-1.664-.41-3.45-1.83-4.47zM9.185 35.3c.017.693.035 1.434-.867 2.634-.814 1.045-1.923 1.403-2.43 1.504-.187.038-.88.222-1.07.074-.33-.26-.297-.778-.31-1.286l-.568-23.723c-.007-.277-.012-.508.12-.813.177-.36.64-.452 1.473-.618 1.25-.25 1.625-.137 2.148.27.853.667 1.013 1.472 1.036 2.49L9.185 35.3zM25.1 21.88c-.73-1.25-2.31-1.214-2.315-1.4-.004-.184 1.422-.84 2.087-2.272.53-1.128.465-1.905.438-3.014l-.1-4.162c-.04-1.665-.407-3.45-1.828-4.47-1.42-.97-3.466-.938-4.9-.652-.974.193-1.668.33-2.64.524-.37.074-.742.1-1.105.5-.27.33-.26.747-.25 1.21l.698 29.132c.03 1.25.12 1.14.41 1.498.19.242 1.022-.016 1.58-.08.833-.12 1.434-.286 2.268-.452 1.11-.22 3.282-.883 4.814-2.953 1.62-2.274 1.586-3.708 1.558-4.864l-.137-5.734c-.026-1.11.002-1.812-.58-2.812zm-7.33-2.96l-.208-8.646c-.007-.278-.012-.51.12-.814.177-.36.687-.46 1.336-.59 1.296-.258 1.625-.137 2.146.27.854.668 1.01 1.426 1.037 2.49l.107 4.392c.017.74.034 1.434-.87 2.635-.81 1.045-1.872 1.394-2.52 1.523-.37.074-.555.157-.84-.066-.33-.258-.296-.684-.307-1.193zm5.083 12.14c.02.787-.012 1.443-.914 2.645-.814 1.043-1.967 1.412-2.476 1.513-.418.083-.464.093-.835.12-.42.037-.487-.833-.5-1.342l-.232-9.71c-.027-1.11.11-1.277 2.1-1.673 1.39-.275 2.662.402 2.713 2.53l.143 5.917zM38.962 31.72c-1.863-11.757-2.87-18.806-4.728-30.33C34.17.61 33.797.64 32.64.87c-1.02.202-1.25.293-1.327.96-1.048 10.66-2.084 19.788-3.232 32.097-.035.425.567.305 1.262.168 1.48-.295 1.9-.33 1.933-.85.168-2.727.345-5.038.56-7.684.036-.47.5-.516 1.38-.69.74-.148 1.388-.323 1.446.13.432 2.47.765 4.727 1.198 7.243.108.63.337.49 1.68.224 1.25-.25 1.483-.25 1.424-.748zm-5.76-9.403c-.65.128-1.07.12-1.03-.215.158-3.098.266-6.37.45-10.31-.002-.138.035-.472.267-.518.277-.055.33.26.335.444.366 3.598.566 6.114.984 10.026.055.36-.454.462-1.01.573z"/></g></svg>