<svg width="246" height="175" xmlns="http://www.w3.org/2000/svg" xmlns:xlink="http://www.w3.org/1999/xlink"><title>DBA_logo_CMYK_AW</title><defs><path id="a" d="M.033.19H245.62V175H.033"/><path id="c" d="M.033.19H245.62V175H.033V.19z"/></defs><g fill="none" fill-rule="evenodd"><mask id="b" fill="#fff"><use xlink:href="#a"/></mask><path d="M224.64 78.03v.95c2.678-.32 4.24.07 4.78.25v-.914c-.79-.24-2.36-.544-4.78-.287" fill="#44BBC7" mask="url(#b)"/><path d="M100.954 145.412c.167.044.334.082.502.122.195.386.4.772.613 1.153-.384-.406-.755-.834-1.116-1.275zm-2.04-2.82c.427.066.855.13 1.288.176.237.58.492 1.168.766 1.757-.304-.082-.607-.17-.907-.263-.397-.54-.78-1.1-1.146-1.67zm.215 2.275c.12.04.243.082.365.12.11.147.223.29.335.433-.238-.176-.472-.36-.7-.553zm-1.597-1.536c-.364-.397-.714-.813-1.052-1.247.413.107.828.202 1.246.288.29.477.594.944.907 1.404-.37-.14-.736-.286-1.1-.443zm-2.942-4.028c.51.075 1.025.134 1.542.18.315.63.648 1.257 1 1.88-.498-.12-.99-.255-1.48-.404-.37-.536-.724-1.09-1.06-1.656zm-.327 2.103c.274.098.55.19.826.278.152.214.306.43.465.638-.448-.28-.878-.586-1.292-.915zm-1.778-1.653c-.32-.345-.626-.704-.92-1.075.626.17 1.257.325 1.898.447.265.467.54.925.83 1.376-.61-.226-1.214-.474-1.808-.748zm-1.763-2.22c-.35-.51-.68-1.037-.99-1.575.74.112 1.486.203 2.245.253.292.64.605 1.28.937 1.912-.74-.165-1.473-.36-2.192-.59zm-1.164.5c.225.084.447.175.674.25.11.154.22.304.332.454-.348-.22-.683-.455-1.006-.703zm-1.875-1.713c-.284-.31-.555-.633-.814-.964.6.164 1.21.304 1.824.423.237.44.488.874.75 1.3-.594-.23-1.18-.484-1.76-.76zm-2.56-3.646c.73.107 1.473.18 2.224.225.258.637.54 1.272.847 1.9-.73-.162-1.45-.365-2.158-.594-.328-.497-.633-1.008-.914-1.532zm-.198 2.068c.213.077.43.14.647.212.09.134.187.263.28.394-.322-.192-.63-.395-.927-.606zm-2.082-1.825c-.268-.288-.522-.583-.76-.884.676.187 1.36.348 2.055.477.218.432.453.854.697 1.27-.673-.257-1.34-.542-1.992-.863zm-2.47-3.546c.832.12 1.677.2 2.534.24.23.645.484 1.287.767 1.92-.818-.176-1.624-.388-2.415-.646-.33-.5-.624-1.006-.887-1.513zm.24 2.31c-.11-.068-.216-.145-.324-.217l.418.15c.046.067.087.135.135.203-.076-.047-.154-.088-.23-.135zm-.7-3.26c-.32-.716-.585-1.417-.8-2.083.08 0 .157.004.236.004.85 0 1.712-.042 2.586-.118.182.826.407 1.663.672 2.5-.913-.054-1.812-.153-2.694-.302zm-2.066 1.043c-.253-.254-.5-.515-.737-.786.726.207 1.463.38 2.21.52.195.406.41.815.643 1.222-.718-.283-1.423-.603-2.116-.957zm-2.645-3.442c.982.156 1.982.255 3 .297.19.61.416 1.25.69 1.91-.934-.2-1.85-.453-2.745-.76-.337-.465-.653-.946-.945-1.446zm-2.25.07c-.25-.237-.49-.48-.722-.73.618.18 1.244.334 1.878.464.203.382.42.753.65 1.117-.613-.254-1.213-.542-1.806-.85zm-2.764-3.39c.884.143 1.785.24 2.7.293.21.625.45 1.236.723 1.83-.83-.196-1.644-.437-2.443-.72-.35-.454-.68-.92-.98-1.404zm-2.02.108c-.253-.236-.496-.48-.73-.728.537.154 1.08.293 1.632.41.2.354.413.702.637 1.044-.52-.224-1.033-.463-1.538-.726zm-2.747-3.385c.78.124 1.573.213 2.378.265.215.606.46 1.2.737 1.78-.73-.18-1.448-.386-2.153-.632-.35-.455-.668-.927-.96-1.413zm-2.05.108c-.258-.23-.505-.47-.743-.716.553.157 1.116.29 1.683.407.192.356.395.707.615 1.05-.527-.226-1.044-.474-1.556-.74zm-2.828-3.39c.85.134 1.712.228 2.59.277.19.614.42 1.215.683 1.8-.78-.184-1.548-.408-2.3-.67-.355-.455-.68-.924-.973-1.406zm-1.953.157c-.288-.246-.562-.5-.827-.758.55.153 1.11.286 1.674.4.193.356.4.703.623 1.044-.497-.21-.988-.44-1.47-.687zm-3.083-3.458c.903.145 1.824.247 2.762.298.18.613.405 1.214.668 1.8-.812-.19-1.605-.43-2.387-.704-.377-.453-.728-.918-1.043-1.395zm-1.73.21c-.155-.133-.314-.256-.468-.394-.143-.127-.276-.258-.413-.388.482.134.97.253 1.462.358.2.34.42.673.65 1.002-.416-.18-.827-.372-1.233-.58zm-3.19-3.486c.813.13 1.642.222 2.484.276.203.595.445 1.182.728 1.757-.726-.178-1.44-.386-2.14-.63-.392-.458-.75-.925-1.072-1.403zm-1.65.257c-.31-.26-.612-.532-.913-.81.462.126.928.24 1.4.34.2.334.41.665.64.99-.378-.166-.757-.333-1.128-.52zm-3.318-3.534c.826.133 1.668.225 2.524.28.195.59.434 1.174.716 1.747-.722-.176-1.434-.38-2.13-.62-.406-.46-.776-.93-1.11-1.407zm-1.582.267c-.302-.256-.6-.52-.896-.795.43.115.864.22 1.302.313.21.336.432.668.672.995-.364-.158-.72-.335-1.078-.512zm-3.42-3.53c.81.135 1.63.23 2.467.288l.026.003c.202.578.448 1.148.735 1.708-.7-.17-1.39-.377-2.067-.612-.428-.465-.814-.926-1.16-1.384zm-1.513.265c-.303-.257-.607-.513-.904-.787.4.11.804.207 1.21.294.216.323.446.643.69.96-.335-.148-.666-.303-.995-.466zm-3.453-3.546c.733.12 1.474.217 2.23.275l.07.004c.23.586.5 1.165.818 1.736-.643-.164-1.276-.35-1.9-.567-.456-.482-.856-.965-1.218-1.448zm-1.443.334c-.326-.272-.644-.56-.96-.852.392.105.788.2 1.187.287.225.344.472.68.73 1.013-.323-.14-.642-.29-.958-.447zm-2.76-2.642c-.29-.32-.56-.638-.81-.958.656.108 1.32.2 1.995.26.132.01.267.016.4.025.22.587.485 1.162.793 1.726-.642-.162-1.276-.344-1.898-.558-.16-.166-.322-.322-.48-.494zm-2.25-.65c-.314-.263-.624-.536-.93-.817.375.1.753.19 1.135.274.228.33.467.658.726.978-.312-.137-.622-.28-.93-.433zm-3.215-3.156c-.117-.135-.224-.272-.336-.41.575.096 1.156.18 1.746.236.166.015.335.023.502.035.243.583.526 1.156.852 1.717-.616-.157-1.22-.34-1.82-.547-.32-.334-.635-.677-.945-1.032zm-1.733-.07c-.324-.27-.644-.55-.96-.838.357.094.718.178 1.082.257.244.336.503.668.778.994-.302-.132-.602-.267-.9-.412zm-3.604-3.59c.5.082 1 .153 1.51.206.2.02.404.03.605.047.263.583.565 1.153.91 1.712-.58-.15-1.15-.326-1.712-.52-.445-.46-.884-.94-1.312-1.444zm-1.396.33c-.322-.268-.64-.545-.954-.83.347.09.695.176 1.048.253.166.22.332.437.51.65.102.122.207.234.31.352-.31-.133-.612-.278-.914-.425zm5.86.028c.62 0 1.248-.025 1.882-.064.117.795.312 1.576.57 2.344l-.085-.007c-.882-.086-1.748-.215-2.597-.387-.433-.624-.812-1.265-1.135-1.922.45.022.905.036 1.364.036zm7.348-.833c-.212 1.06-.303 2.114-.265 3.152-1.27.088-2.51.097-3.72.027-.31-.84-.52-1.667-.64-2.47 1.504-.132 3.045-.365 4.625-.71zm.276 6.388h-.026c-.95-.083-1.882-.223-2.797-.408-.428-.643-.78-1.284-1.072-1.92.418.018.837.03 1.26.03.71 0 1.43-.03 2.157-.08.083.806.246 1.6.48 2.38zm.892.06c-.28-.86-.45-1.7-.53-2.51 1.418-.137 2.87-.364 4.358-.69-.266 1.05-.386 2.11-.36 3.167-1.18.08-2.337.09-3.468.032zm1.45.9c.683 0 1.375-.028 2.074-.075.08.793.247 1.583.49 2.364-.913-.082-1.806-.213-2.684-.39-.405-.645-.74-1.288-1.005-1.924.373.015.748.024 1.126.024zm-1.694-7.563c2.34-.564 4.76-1.356 7.258-2.378-1.31 1.476-2.307 3.134-2.905 4.897-1.605.37-3.17.627-4.693.774-.034-1.188.11-2.298.34-3.293zm9.455 13.15c-.994-.08-1.967-.218-2.92-.41-.42-.66-.764-1.308-1.036-1.942.386.016.775.025 1.168.025.787 0 1.587-.034 2.397-.098.048.817.176 1.627.39 2.424zm-.078-5.993c-.213.906-.32 1.81-.332 2.71-1.327.104-2.622.12-3.886.05-.294-.868-.47-1.706-.546-2.5 1.597-.15 3.236-.422 4.918-.814-.053.184-.11.368-.154.554zm3.592-6.607c-1.382 1.507-2.457 3.24-3.132 5.1-1.806.444-3.564.748-5.27.91-.02-1.133.14-2.163.377-3.05.024-.09.057-.18.084-.27 2.552-.624 5.2-1.52 7.94-2.69zm1.53 15.838c-.996-.075-1.968-.212-2.922-.4-.362-.622-.66-1.26-.906-1.906.312.01.625.015.94.015.83 0 1.674-.04 2.527-.11.043.81.163 1.612.36 2.4zm-.13-5.618c-.157.79-.234 1.577-.246 2.357-1.278.11-2.527.134-3.748.08-.248-.843-.4-1.698-.45-2.562 1.517-.16 3.074-.43 4.666-.808-.085.308-.16.62-.222.933zm3.69-7.037c-1.396 1.485-2.49 3.242-3.167 5.15-1.705.427-3.368.728-4.985.9.016-.806.118-1.618.31-2.43.078-.332.174-.66.28-.988 2.437-.63 4.957-1.505 7.56-2.632zm-2.653 12.703c-.226-.83-.362-1.673-.405-2.527 1.41-.156 2.856-.41 4.33-.754-.077.33-.147.66-.2.997-.117.736-.163 1.472-.157 2.205-1.216.1-2.405.126-3.567.078zm1.11.913c.82 0 1.652-.038 2.495-.108.063.818.195 1.63.406 2.428-.964-.074-1.91-.207-2.836-.387-.356-.638-.654-1.29-.892-1.954.275.008.55.02.828.02zm5.98-10.152c-1.305 1.402-2.307 3.116-2.904 5.015-1.572.385-3.106.66-4.603.828.016-.697.087-1.4.227-2.104.09-.456.215-.903.354-1.346 2.238-.588 4.547-1.384 6.926-2.394zm2.156 15.774c-1.064-.07-2.107-.2-3.125-.4-.355-.64-.656-1.296-.902-1.965.278.01.554.02.834.02.936 0 1.89-.05 2.856-.14.042.84.153 1.672.338 2.485zm-.273-4.842c-.055.495-.077.986-.082 1.475-1.354.13-2.675.164-3.965.11-.242-.838-.395-1.69-.46-2.55 1.57-.173 3.18-.465 4.83-.872-.142.6-.254 1.213-.322 1.838zm3.388-7.823c-1.23 1.38-2.198 3.105-2.796 5.02-1.76.454-3.47.77-5.134.953-.003-.663.042-1.328.146-1.993.074-.465.177-.92.3-1.365 2.41-.624 4.908-1.495 7.485-2.615zm-1.375 13.6c.886 0 1.79-.047 2.703-.13.07.84.206 1.663.404 2.47-.98-.07-1.94-.186-2.88-.362-.326-.644-.596-1.31-.814-1.992.196.005.39.014.587.014zm2.657-1.008c-1.19.108-2.356.143-3.496.108-.21-.853-.337-1.726-.38-2.614 1.343-.163 2.713-.41 4.113-.743-.112.62-.192 1.256-.227 1.91-.024.45-.023.894-.01 1.338zm2.77-8.99c-1.064 1.28-1.867 2.927-2.33 4.788-1.476.368-2.92.64-4.327.813.007-.427.028-.855.075-1.287.082-.746.226-1.473.42-2.18 1.996-.54 4.052-1.254 6.162-2.134zm-.51 13.28c.75 0 1.51-.03 2.28-.09.12.82.303 1.627.536 2.416-.894-.07-1.77-.19-2.633-.352-.324-.643-.604-1.305-.83-1.986.215.005.43.014.646.014zm2.177-.957c-1.05.08-2.08.096-3.09.062-.224-.847-.37-1.717-.444-2.604 1.15-.135 2.32-.334 3.513-.595-.05.54-.077 1.096-.07 1.668.006.493.042.983.09 1.47zm1.775-8.463c-.832 1.164-1.41 2.68-1.683 4.412-1.248.284-2.472.5-3.67.64-.01-.403-.01-.808.013-1.215.04-.75.14-1.484.29-2.19 1.645-.434 3.328-.98 5.05-1.647zm.95 12.708c.813 0 1.64-.04 2.477-.11.126.84.31 1.66.54 2.46-1.016-.07-2.012-.2-2.988-.39-.34-.64-.637-1.3-.892-1.98.286.01.573.02.863.02zm2.345-1.18c.007.07.02.14.026.21-1.207.1-2.386.118-3.542.067-.262-.83-.46-1.684-.59-2.552 1.324-.14 2.68-.366 4.063-.677-.066.94-.054 1.93.043 2.952zm1.547-8.23c-.76 1.11-1.272 2.623-1.498 4.37-1.455.338-2.874.57-4.263.71-.045-.462-.078-.927-.084-1.396-.008-.64.024-1.26.095-1.86 1.866-.456 3.783-1.063 5.75-1.824zm.037 11.806c-.254-.84-.456-1.704-.59-2.588 1.386-.154 2.804-.4 4.253-.74-.032 1.03.01 2.114.13 3.21-1.292.125-2.556.16-3.793.117zm.96.894c.964 0 1.948-.052 2.945-.15.054.37.114.74.187 1.11.085.43.195.914.332 1.428-1.115-.06-2.206-.184-3.272-.383-.326-.65-.614-1.326-.862-2.02.222.006.443.014.667.014zm3.703-9.348c-.502 1.11-.825 2.574-.95 4.218-1.506.365-2.976.62-4.414.778-.007-.068-.018-.134-.024-.2-.103-1.07-.103-2.108-.016-3.08 1.757-.437 3.558-1.007 5.403-1.716zm3.574 11.667c-.985.082-1.956.116-2.91.098-.162-.587-.29-1.138-.387-1.623-.07-.35-.127-.697-.18-1.04 1.013-.128 2.04-.305 3.082-.53.065.98.194 2.022.396 3.096zm-.058-7.88c-.287 1.014-.42 2.36-.38 3.9-1.067.236-2.117.42-3.15.55-.13-1.178-.163-2.3-.115-3.33 1.195-.312 2.41-.684 3.645-1.12zm3.604 3.72c-.192.85-.21 2.135-.04 3.675-.9.174-1.786.31-2.66.406-.203-1.125-.328-2.21-.382-3.213 1.013-.244 2.04-.532 3.082-.868zm.67 7.517c-.845.053-1.678.06-2.5.038-.283-.877-.515-1.756-.7-2.62.855-.098 1.72-.23 2.598-.4.136.932.338 1.938.603 2.982zm.23.852c.227.8.492 1.617.796 2.437-.8-.06-1.586-.164-2.363-.297-.324-.68-.61-1.377-.865-2.078.14.002.278.008.418.008.664 0 1.335-.024 2.014-.07zm2.486-4.63c.066.867.258 2.034.578 3.392-.833.14-1.654.242-2.467.314-.277-1.084-.48-2.122-.614-3.077.824-.178 1.658-.387 2.502-.627zm1.646 7.106c-.828.04-1.644.043-2.45.01-.33-.86-.612-1.717-.853-2.556.805-.078 1.62-.185 2.443-.326.235.902.522 1.868.86 2.872zm2.33-3.565c.06.92.25 2.043.563 3.292-.66.093-1.314.173-1.96.223-.36-1.047-.664-2.054-.912-2.983.762-.15 1.532-.328 2.31-.532zm-1.09 6.823c-.8-.066-1.59-.165-2.368-.305-.352-.678-.676-1.367-.967-2.06.255.006.51.012.768.012.537 0 1.08-.02 1.625-.05.283.79.596 1.595.942 2.404zm2.783.086c-.596.012-1.188.006-1.774-.02-.374-.853-.715-1.703-1.02-2.536.624-.054 1.253-.126 1.888-.22.247.883.552 1.816.907 2.776zm1.336 3.185c-.556-.06-1.108-.136-1.653-.23-.38-.693-.732-1.398-1.062-2.104.272.007.54.026.816.026.297 0 .595-.007.895-.016.304.765.64 1.543 1.006 2.323zm2.117-2.58c.174.486.363 1.06.576 1.71.107.326.22.67.338 1.024-.676.005-1.343-.02-2.004-.064-.4-.824-.765-1.647-1.095-2.457.72-.046 1.447-.114 2.183-.212zm2.026 5.858c-.515-.065-1.024-.147-1.53-.242-.403-.677-.784-1.365-1.14-2.058.457.022.914.042 1.378.042.156 0 .313-.005.47-.008.247.72.52 1.48.82 2.265zM224.477 90.07c-4.852 3.973-14.014 14.112-30.163 39.862-6.13 9.78-13.735 18.418-22.6 25.67-11.71 9.59-24.7 14.62-36.586 14.148-5.037-.217-9.167-2.165-12.934-4.67 2.184.882 4.623 1.502 7.408 1.713 1.04.08 2.084.12 3.132.12 11.71 0 23.85-4.93 35.305-14.373 9.647-7.942 17.786-16.753 24.194-26.186 15.23-22.425 24.77-32.232 30.33-36.51-.338-.09-.655-.214-.958-.36-5.788 4.58-15.287 14.6-30.087 36.39-6.362 9.364-14.446 18.114-24.03 26.004-12.305 10.144-25.38 15-37.82 14.06-5.788-.44-10.062-2.725-13.65-5.462l-.332-.262c2.408 1.242 5.178 2.233 8.408 2.762 1.82.3 3.67.447 5.547.447 10.863 0 22.563-4.98 34.175-14.61 10.574-8.756 18.948-17.42 25.6-26.49 14.676-20.01 24.558-29.42 30.813-33.82-.202-.21-.385-.446-.553-.7-6.405 4.528-16.332 14.077-30.954 34.013-6.612 9.01-14.938 17.626-25.457 26.335-13.42 11.132-26.917 15.964-39.03 13.978-5.406-.885-9.51-3.1-12.727-5.63 2.18 1.204 4.536 2.088 7.088 2.66 2.278.51 4.613.765 7 .764 10.634 0 22.247-5.043 34-14.84 11.627-9.676 20.208-18.19 27.005-26.795 15.065-19.066 25.54-27.97 32.352-32.075-.084-.294-.148-.612-.198-.942-6.947 4.13-17.552 13.148-32.832 32.486-6.758 8.556-15.3 17.03-26.88 26.667-14.175 11.818-28.096 16.62-40.258 13.898-3.837-.86-6.878-2.358-9.316-4.095 1.118.533 2.34.925 3.687 1.125 2.245.333 4.485.5 6.72.5 12.078 0 23.99-4.86 35.498-14.497 9.676-8.09 19.815-16.974 28.413-27.1 16.164-19.034 27.506-27.35 34.852-30.89v-1.037c-7.475 3.515-18.997 11.926-35.51 31.373-8.556 10.076-18.663 18.93-28.31 26.996-13.44 11.256-27.413 15.902-41.536 13.805-2.81-.417-5.067-1.723-6.9-3.488.402.19.808.365 1.223.507 2.99 1.02 6.117 1.53 9.366 1.53 10.41 0 22.045-5.22 34.18-15.424 11.698-9.823 21.322-18.077 29.82-27.408 17.47-19.18 29.792-26.827 37.667-29.722v-.333c0-.636.375-.868 1.674-1.12v-.112c-7.89 2.355-20.87 9.732-39.98 30.71-8.46 9.292-18.064 17.528-29.737 27.33-15.677 13.184-30.446 17.934-42.71 13.736-1.18-.405-2.307-1.037-3.373-1.827-.112-.15-.22-.303-.33-.457 2.654.82 5.423 1.235 8.295 1.235 10.377 0 22.088-5.324 34.45-15.76 1.42-1.198 2.837-2.386 4.243-3.567 9.738-8.173 18.936-15.894 26.983-24.145 32.542-33.36 48.724-29.7 51.255-28.826-.01-.317-.037-.632-.088-.943-1.6-.49-5.51-1.17-11.988.78-7.815 2.35-21.063 9.185-39.796 28.39-8.018 8.22-17.2 15.927-26.92 24.086-1.408 1.182-2.823 2.37-4.245 3.568-15.992 13.503-30.814 18.332-42.954 14.028-.305-.49-.593-.99-.862-1.494 1.734.338 3.514.515 5.34.515 10.38-.002 22.202-5.44 34.81-16.12 3.25-2.75 6.503-5.447 9.648-8.056 8.23-6.827 16.006-13.277 22.984-19.967 19.238-18.44 33.064-24.65 41.275-26.612 6.69-1.597 10.82-.71 12.463-.168-.102-.34-.22-.678-.36-1.014-2.037-.56-6.048-1.127-12.18.317-8.332 1.963-22.348 8.216-41.797 26.86-6.953 6.667-14.717 13.107-22.936 19.924-3.146 2.61-6.4 5.31-9.653 8.06-14.906 12.627-28.637 17.827-40.096 15.28-.318-.65-.612-1.3-.883-1.943.69.05 1.38.086 2.082.086 10.412 0 22.367-5.56 35.234-16.495 5.025-4.262 10.005-8.305 14.82-12.216 6.833-5.546 13.285-10.785 19.22-16.11 19.94-17.9 34.53-23.535 43.254-25.108 6.058-1.092 10.187-.43 12.383.188-.19-.355-.402-.71-.625-1.062-2.412-.556-6.33-.962-11.802.01-8.852 1.572-23.635 7.243-43.79 25.333-5.917 5.31-12.36 10.544-19.184 16.083-4.82 3.914-9.803 7.96-14.835 12.23-13.735 11.673-26.368 17.134-37.12 16.17-.33-.828-.622-1.634-.887-2.397 10.15-.47 21.774-6.133 34.345-16.848 6.805-5.79 13.48-11.056 19.936-16.15 5.472-4.315 10.64-8.392 15.507-12.486 20.64-17.362 35.99-22.418 45.233-23.603 5.278-.675 9.202-.197 11.75.405-.26-.357-.528-.714-.804-1.07-2.585-.5-6.234-.793-10.96-.2-9.373 1.18-24.923 6.27-45.776 23.81-4.856 4.087-10.02 8.16-15.484 12.47-6.462 5.1-13.144 10.37-19.962 16.17-12.527 10.68-24.063 16.273-34.075 16.648-.15-.442-.29-.867-.42-1.265-.193-.586-.366-1.11-.527-1.57 9.386-1.486 19.96-7.146 31.36-16.887 8.624-7.357 16.995-13.73 25.09-19.89 4.12-3.135 8.008-6.095 11.757-9.054 21.327-16.832 37.44-21.31 47.2-22.104 4.495-.366 8.082-.004 10.732.533-.167-.205-.333-.41-.5-.613-.12-.144-.238-.29-.357-.436-2.565-.428-5.85-.666-9.857-.348-9.895.787-26.21 5.294-47.754 22.294-3.743 2.954-7.63 5.912-11.744 9.044-8.105 6.168-16.486 12.547-25.13 19.92-12.626 10.79-24.188 16.51-34.185 17.032-.382-1-.71-1.97-.972-2.88 9.394-1.614 20.006-7.383 31.497-17.225 10.54-9.015 21.108-16.722 30.432-23.522 2.677-1.952 5.29-3.857 7.822-5.734 22.01-16.303 38.885-20.205 49.167-20.607 3.814-.148 7.02.16 9.596.632-.27-.337-.533-.678-.793-1.02-2.43-.38-5.35-.602-8.757-.473-10.417.39-27.5 4.314-49.727 20.78-2.532 1.876-5.143 3.78-7.817 5.73-9.338 6.81-19.92 14.527-30.485 23.563-11.41 9.77-21.908 15.48-31.163 17.04-.34-1.32-.532-2.48-.572-3.397 8.506-2.426 17.935-8.016 28.074-16.72 12.556-10.764 24.996-19.39 35.97-27.003 1.247-.864 2.477-1.717 3.69-2.562 22.686-15.785 40.326-19.11 51.13-19.117h.044c3.294 0 6.155.302 8.585.732-.223-.327-.437-.657-.64-.99-2.285-.36-4.92-.6-7.917-.602h-.026c-10.942 0-28.78 3.347-51.667 19.273l-3.69 2.56c-10.992 7.623-23.45 16.264-36.04 27.057-11.325 9.72-21.722 15.506-30.893 17.294-.354-1.462-.553-2.675-.603-3.48 8.43-2.59 17.773-8.234 27.835-16.89C132.09 95.155 146.7 85.6 158.442 77.924c23.36-15.274 41.77-18.018 53.09-17.633 3.027.104 5.72.43 8.065.865-.15-.315-.287-.633-.41-.953-2.226-.382-4.742-.67-7.56-.768-11.472-.41-30.08 2.352-53.658 17.77-11.763 7.692-26.4 17.262-41.16 29.943-11.275 9.7-21.607 15.57-30.725 17.556-.14-1.412-.114-2.588.07-3.364.036-.146-.014-.287-.11-.39 8.233-2.81 17.323-8.446 27.108-16.88 14.56-12.535 29.018-21.916 42.474-30.187 24.026-14.768 43.198-16.933 55.045-16.152 3.02.2 5.718.6 8.098 1.088-.067-.304-.123-.61-.154-.918-2.313-.456-4.918-.828-7.826-1.022-11.99-.805-31.367 1.37-55.617 16.274-13.485 8.29-27.978 17.693-42.585 30.268-11.153 9.614-21.368 15.555-30.397 17.77-.024-1.79.187-3.244.568-4.096 7.98-3.022 16.748-8.615 26.172-16.754 16.01-13.806 31.86-23.55 43.88-30.497 24.694-14.27 44.625-15.857 57.004-14.676 3.278.312 6.2.833 8.762 1.438v-.88c-2.538-.592-5.413-1.1-8.624-1.41-12.51-1.202-32.656.384-57.575 14.784-12.053 6.965-27.948 16.737-44.01 30.59-11.103 9.587-21.257 15.596-30.244 17.992.195-2.037.704-3.64 1.342-4.497 7.726-3.2 16.177-8.73 25.242-16.57 17.34-14.985 34.15-24.762 45.287-30.812 25.362-13.778 46.06-14.786 58.96-13.205 3.62.443 6.83 1.112 9.622 1.856v-.58c0-.1.008-.203.01-.304-2.764-.73-5.926-1.38-9.473-1.818-13.038-1.607-33.945-.605-59.532 13.297-11.17 6.07-28.035 15.878-45.438 30.917-11.523 9.966-22.014 16.15-31.246 18.517.302-1.934.98-3.526 1.953-4.427.09-.086.134-.203.133-.32 7.796-3.283 16.332-8.905 25.502-16.85 13.98-12.1 28.816-21.99 46.693-31.122 26.026-13.293 47.49-13.72 60.917-11.738 4.017.593 7.57 1.43 10.616 2.335.047-.278.108-.56.18-.84-3.055-.905-6.61-1.743-10.62-2.338-13.558-2.01-35.232-1.593-61.486 11.817-17.94 9.166-32.832 19.092-46.864 31.24-11.856 10.27-22.612 16.61-32.036 18.988.423-2.21 1.384-4.014 2.726-4.978.007-.005.01-.012.016-.018 7.832-3.374 16.41-9.07 25.636-17.073 14.514-12.584 30.247-22.867 48.1-31.436 26.692-12.814 48.924-12.66 62.874-10.276 4.602.788 8.625 1.862 12.004 2.978.102-.265.22-.528.35-.79-3.422-1.134-7.5-2.227-12.162-3.026-14.083-2.416-36.52-2.583-63.44 10.34-17.923 8.603-33.72 18.927-48.292 31.56-11.78 10.22-22.47 16.637-31.855 19.215.74-2.537 2.16-4.627 3.978-5.68.023-.014.038-.034.057-.05C75.308 98.47 83.39 92.946 92.04 85.43c15.186-13.188 31.38-23.573 49.508-31.75 27.357-12.34 50.355-11.606 64.83-8.816 5.375 1.036 10 2.423 13.766 3.802.163-.246.336-.49.526-.722-3.84-1.418-8.573-2.85-14.085-3.915-14.606-2.82-37.808-3.573-65.393 8.87-18.205 8.212-34.47 18.64-49.72 31.884-11.888 10.33-22.663 16.848-32.12 19.54 1.013-2.845 2.9-5.182 5.24-6.355 7.17-3.62 14.928-9.048 23.226-16.267 15.834-13.77 32.488-24.256 50.916-32.062 28.025-11.872 51.788-10.556 66.786-7.36 6.373 1.357 11.737 3.157 15.92 4.85.22-.208.456-.403.706-.59l.03-.04c-4.274-1.753-9.82-3.64-16.434-5.052-15.13-3.23-39.094-4.566-67.346 7.402-18.512 7.842-35.242 18.377-51.145 32.206-8.19 7.127-15.837 12.488-22.895 16.072-.007.003-.015.003-.022.006-.057.027-.11.06-.167.088-3.55 1.79-6.954 3.132-10.2 4.015.944-2.61 2.718-4.807 5-6.173 7.562-3.687 15.788-9.39 24.63-17.09 16.23-14.13 33.834-25.024 52.322-32.376 28.693-11.41 53.223-9.51 68.747-5.91 7.48 1.737 13.63 4.02 18.18 6.03.217-.22.444-.435.69-.635-4.62-2.062-10.935-4.43-18.636-6.22-15.654-3.64-40.383-5.562-69.303 5.938-18.577 7.388-36.265 18.332-52.57 32.528-8.198 7.14-15.85 12.548-22.915 16.206-.005.002-.01 0-.017.003-.562.23-1.1.507-1.617.82-3.183 1.544-6.24 2.72-9.174 3.534.992-2.444 2.71-4.596 4.88-6.14 7.717-3.765 16.13-9.605 25.188-17.504 16.83-14.67 34.906-25.67 53.73-32.69 29.365-10.952 54.66-8.47 70.71-4.46 8.75 2.186 15.775 5.05 20.613 7.367.296-.182.61-.347.944-.497-4.892-2.383-12.168-5.407-21.312-7.694-16.175-4.047-41.668-6.555-71.257 4.48C113.88 47.808 95.71 58.86 78.805 73.6c-7.666 6.685-14.855 11.878-21.536 15.576-1.27.447-2.462 1.078-3.552 1.85-3.287 1.598-6.442 2.808-9.462 3.633.954-2.268 2.57-4.34 4.61-5.97 8.02-3.827 16.8-9.89 26.286-18.17 17.41-15.2 35.963-26.304 55.14-33.007 30.035-10.497 56.094-7.432 72.668-3.014 10.47 2.79 18.568 6.455 23.532 9.045.357-.107.726-.2 1.12-.27.058-.01.112-.01.17-.02-4.9-2.624-13.397-6.596-24.564-9.577-16.698-4.457-42.955-7.55-73.213 3.025-19.28 6.74-37.927 17.9-55.42 33.17-7.288 6.36-14.144 11.397-20.547 15.11-2.12.65-4.07 1.7-5.745 3.03-3.318 1.57-6.5 2.753-9.544 3.538.814-2.078 2.22-3.99 4.056-5.582 2.465-1.115 5.005-2.45 7.615-3.99.01-.01.025-.014.036-.022 6.4-3.783 13.23-8.836 20.474-15.166 43.804-38.28 85.305-42.188 112.406-38.725 22.83 2.917 39.554 11.403 45.965 15.102 1.468.076 2.645.63 3.543 1.445.015-.15-.044-.303-.178-.394-.193-.132-19.606-13.212-49.18-17-17.366-2.224-34.794-.86-51.797 4.056-21.243 6.14-41.877 17.873-61.326 34.87-7.205 6.295-13.99 11.324-20.334 15.078-2.935.79-5.574 2.206-7.697 4.025-3.015 1.356-5.913 2.385-8.694 3.087C35.5 82.204 41.5 76.818 48.262 75.22c.23-.053.375-.285.32-.516-.055-.23-.286-.374-.52-.32-7.077 1.672-13.36 7.34-15.28 13.785-.04.132-.07.263-.104.394-1.693.386-3.338.644-4.94.782-.16-2.013.183-3.856.674-5.366 2.132-6.573 8.737-12.236 16.062-13.772.233-.05.382-.276.333-.51-.05-.23-.278-.38-.51-.33-7.613 1.596-14.483 7.496-16.707 14.348-.623 1.92-.85 3.835-.697 5.693-1.206.07-2.386.073-3.54 0-1.257-3.088-1.326-6.47-.142-9.867 2.435-6.977 9.62-12.878 17.477-14.35.233-.042.388-.267.344-.5-.043-.234-.27-.388-.503-.343-8.144 1.524-15.6 7.657-18.13 14.912-1.207 3.46-1.184 6.903 0 10.07l-.15-.012c-.818-.086-1.62-.215-2.41-.377-2.984-4.09-3.633-8.973-1.813-13.865C20.767 67.71 28.53 61.584 36.9 60.18c.236-.04.394-.26.355-.494-.04-.234-.26-.39-.497-.353-8.662 1.452-16.7 7.804-19.543 15.447-1.808 4.86-1.31 9.713 1.374 13.872-.554-.144-1.102-.305-1.64-.488-.652-.674-1.285-1.39-1.9-2.15-3.582-4.456-4.375-9.916-2.232-15.375 3.05-7.772 11.398-14.134 20.298-15.474.236-.035.397-.255.362-.49-.035-.234-.252-.394-.49-.36-9.192 1.384-17.816 7.967-20.974 16.01-2.26 5.757-1.42 11.52 2.364 16.226.253.312.51.612.768.91-.308-.134-.615-.274-.918-.42-1.65-1.37-3.202-2.98-4.645-4.835-3.607-4.653-4.308-10.34-1.973-16.01 3.362-8.17 12.295-14.77 21.722-16.046.236-.03.4-.248.37-.482-.033-.236-.252-.402-.487-.368-9.717 1.317-18.93 8.13-22.403 16.57-2.457 5.968-1.715 11.956 2.09 16.862.648.836 1.32 1.62 2.01 2.36-2.475-1.726-4.747-3.956-6.797-6.693-3.632-4.85-4.24-10.764-1.713-16.652C6.08 53.182 15.597 46.35 25.55 45.136c.236-.03.404-.243.375-.48-.03-.234-.242-.403-.48-.373C15.2 45.533 5.4 52.576 1.608 61.41-1.045 67.59-.4 73.807 3.423 78.913c2.994 3.998 6.45 6.95 10.327 8.854 1.59 1.31 3.27 2.396 5.038 3.265 1.575 1.3 3.238 2.388 4.99 3.253 1.56 1.29 3.213 2.363 4.947 3.226 1.576 1.317 3.243 2.414 4.998 3.29 1.564 1.306 3.217 2.39 4.95 3.257 1.56 1.304 3.2 2.394 4.923 3.26 1.54 1.294 3.166 2.368 4.87 3.232 1.54 1.298 3.162 2.385 4.864 3.256 1.516 1.28 3.11 2.352 4.78 3.218.037.03.07.063.107.094 1.488 1.25 3.05 2.3 4.685 3.155.257.23.523.45.797.668 1.277 1.007 2.61 1.867 3.987 2.59.472.432.968.845 1.496 1.233 1.064.78 2.16 1.464 3.29 2.057.682.637 1.41 1.23 2.196 1.765.87.593 1.765 1.123 2.68 1.594.855.84 1.79 1.593 2.805 2.228.703.44 1.424.828 2.152 1.193.93.982 2.03 1.884 3.336 2.63.532.304 1.073.583 1.62.846 1.114 1.197 2.398 2.22 3.87 2.977.286.148.58.28.87.415 1.327 1.416 2.86 2.603 4.62 3.408.125.057.254.106.38.162 1.362 1.455 2.896 2.65 4.606 3.434.24.248.484.488.733.72 1.097 1.504 2.26 2.858 3.498 4.065.015.023.023.05.042.07 1.033 1.146 2.2 2.352 3.526 3.532.003 0 .003.005.006.007l.942.863c1.313 1.207 2.678 2.456 4.15 3.65v.002c.382.297.764.597 1.148.9l.195.15c.74.584 1.485 1.17 2.238 1.746 6.67 7.775 15.22 11.823 24.89 11.822 1.085 0 2.186-.05 3.298-.153 18.407-1.695 38.174-17.186 51.586-40.43 24.733-42.858 30.828-44.176 31.148-44.215.223 0 .41-.17.43-.395.02-.236-.157-.443-.395-.463-.592-.06-6.613.774-31.93 44.646-13.275 23.004-32.786 38.332-50.92 40-9.14.844-17.375-1.897-24.085-7.932 3.764 2.45 7.913 4.332 12.983 4.55.544.02 1.088.033 1.635.033 11.773 0 24.024-4.947 35.534-14.373 8.938-7.313 16.605-16.02 22.785-25.88 17.596-28.057 26.79-37.367 31.006-40.46-.542.092-1.068.138-1.575.142z" fill="#44BBC7" mask="url(#b)"/><path d="M224.857 82.462c.11.302.264.58.47.812 2.265-.648 3.518-.472 3.92-.377.076-.29.124-.577.15-.854-.615-.15-2.07-.316-4.54.42M224.64 80.248V81.2c2.876-.62 4.41-.23 4.78-.11v-.903c-.714-.198-2.268-.443-4.78.06" fill="#44BBC7"/><path d="M90.13 24.825c0-1.415-.195-2.538-1.357-3.493-.71-.584-1.227-.75-2.97-.447-1.162.202-1.808.315-2.066.81-.194.42-.194.74-.194 1.127v32.985c0 .707-.064 1.426.388 1.797.26.213 1.227-.02 1.486-.066.71-.124 2.26-.586 3.42-2.01 1.293-1.64 1.293-2.67 1.293-3.633v-27.07zM92 57.805c-2.194 2.826-5.293 3.688-6.778 3.947-1.485.26-2.518.44-4.003.697-.646.112-1.228.277-1.55-.18-.323-.394-.323-1.102-.323-1.552v-40.96c0-.64 0-1.284.387-1.737.517-.54 1.033-.502 1.55-.59 1.42-.25 2.453-.43 3.873-.677 2.066-.36 4.842-.33 6.78 1.07 1.936 1.463 2.388 3.956 2.388 6.27V51.1c0 1.543 0 3.6-2.324 6.706zM101.104 58.92c-1.743.303-1.937.337-1.937-.563V15.34c0-.834.387-1.03 1.937-1.3 1.743-.304 2.195-.32 2.195.646v42.822c0 .965-.13 1.05-2.196 1.41M122.796 55.14c-.323.377-.84.145-1.42.247-.517.09-.258-1.37-1.162-1.79-.71-.327-1.42 2.304-4.584 2.855-5.487.957-7.49-3.195-7.49-6.153V20.335c0-2.508 1.68-7.88 7.49-8.893 5.68-.99 7.49 3.968 7.49 6.283v2.893c0 .578-.517.86-2.26 1.164-1.614.28-2.002.285-2.002-.294 0-.9-.065-2.24-.065-3.14 0-1.413-1.226-3.258-3.163-2.92-2 .35-3.292 2.63-3.292 3.98v29.9c0 1.608.71 3.413 3.292 2.963 2.518-.44 3.163-2.545 3.163-3.895v-11.06c0-.32.065-.718-.258-.92-.452-.24-1.808.188-2.453.3-.516.09-.58-.413-.58-1.764 0-1.413.064-2.004.516-2.083 1.743-.302 6.327-1.294 7.037-1.29.258.02.064.504.064.76v21.413c0 .45.064.953-.324 1.406M129.898 53.902c-1.743.303-1.936.337-1.936-.563V10.322c0-.836.386-1.03 1.936-1.302 1.743-.302 2.196-.317 2.196.648V52.49c0 .965-.13 1.052-2.196 1.412M149.137 9.27c-.774.134-1.678.227-2.776.483-.515.09-1.03.18-1.354.364-.582.552-.452 1.623-.452 2.46v38.192c0 .577-.97.81-2.324 1.047-1.163.202-2.002.35-2.002-.294V13.33c0-.837.13-1.952-.45-2.3-.324-.073-.84.016-1.358.107l-2.388.416c-.97.17-1.162-.12-1.162-1.534 0-1.416.13-1.952.903-2.087 4.068-.71 9.233-1.61 13.3-2.317.774-.136.84.496.84 1.782 0 1.48-.066 1.747-.776 1.87M157.014 19.342c0-.258-.064-.696-.45-.63-.324.057-.39.52-.39.712-.386 5.468-.645 10.014-.968 14.314-.064.46.518.49 1.42.33.776-.134 1.486-.257 1.42-.76-.45-5.452-.644-8.954-1.032-13.966zm5.294 28.976c-1.87.326-2.194.51-2.324-.366-.516-3.51-.904-6.66-1.42-10.105-.065-.632-.968-.41-2-.23-1.228.214-1.874.262-1.938.916-.388 3.67-.71 6.875-1.033 10.66-.065.72-.646.756-2.71 1.116-.97.168-1.81.314-1.745-.276 2.002-17.066 3.745-29.716 5.552-44.497.13-.923.452-1.044 1.873-1.29 1.614-.283 2.13-.308 2.195.774 2.195 16.08 3.357 25.907 5.552 42.306.064.697-.26.688-2.002.992zM179.094 45.393l-9.62 1.676c-.71.123-1.42.182-1.678-.16-.323-.457-.26-1.432-.26-2.268V3.232c0-.963.648-.948 1.938-1.172 1.68-.293 2.26-.394 2.26.57v37.872c0 .836-.13 1.887.452 2.236.258.084.97.025 1.484-.065 1.1-.19 4.326-.754 5.424-.945.84-.146.904.357.904 1.58 0 1.605-.065 1.94-.904 2.085M109.272 93.05c0-2.958-1.743-3.94-3.68-3.602-2.776.484-2.97.71-2.97 2.254v13.502c0 .708.065 1.918.646 1.88.516-.025.58-.036 1.162-.137.71-.124 2.324-.598 3.486-2.023 1.292-1.64 1.356-2.55 1.356-3.643v-8.23zm-.258-18.794c0-1.48-.194-2.538-1.356-3.493-.71-.584-1.162-.762-2.97-.447-.904.157-1.613.28-1.872.776-.193.42-.193.74-.193 1.126v12.025c0 .707-.065 1.297.387 1.67.388.316.645.207 1.162.117.904-.157 2.388-.61 3.55-2.033 1.292-1.64 1.292-2.604 1.292-3.633v-6.108zm2.066 32.947c-2.195 2.825-5.23 3.676-6.78 3.946-1.16.2-2 .412-3.162.55-.775.07-1.938.402-2.195.06-.388-.51-.517-.36-.517-2.095V69.157c0-.644 0-1.223.387-1.675.517-.54 1.033-.566 1.55-.656l3.68-.642c2-.348 4.842-.33 6.78 1.07 1.935 1.463 2.387 3.955 2.387 6.27v5.787c0 1.545.064 2.626-.71 4.176-.968 1.97-2.97 2.832-2.97 3.09 0 .257 2.195.26 3.164 2.02.774 1.408.71 2.384.71 3.927v7.973c0 1.607 0 3.6-2.324 6.707zM124.767 107.582c-5.23.91-7.49-2.94-7.49-6.09v-36.65c0-.835.712-1.088 2.068-1.324 1.355-.236 2.13-.114 2.13.593v36.33c0 1.736.968 3.238 3.292 2.834 2.196-.383 3.293-2.18 3.293-3.917V62.77c0-.578.387-.838 1.936-1.108 1.615-.28 2.26-.266 2.26.313v36.843c0 4.05-2.26 7.853-7.49 8.764M143.49 104.32c-4.197.73-7.49-1.074-7.49-6.155v-3.6c0-.707.452-.914 2.13-1.207 1.55-.27 2.197-.32 2.197.324v3.537c0 1.607.84 3.196 3.162 2.79 2.776-.483 3.292-2.63 3.292-4.11v-3.92c0-3.41-2.518-6.57-5.1-9.72-2.71-3.323-5.746-6.91-5.746-10.703v-3.28c0-3.342 2.002-8 7.36-8.933 4.906-.855 7.36 3.025 7.36 6.305v2.957c0 .514-.775.65-2.26.907-1.227.214-2.066.36-2.066-.218v-3.022c0-2.122-1.614-3.19-3.034-2.944-1.808.316-3.164 2.352-3.164 3.96v3.536c0 2.443 2.518 5.284 4.972 8.265 2.84 3.427 5.875 7.4 5.875 12.222v4.244c0 4.37-3.294 8.032-7.49 8.763M157.952 101.734c-1.743.304-1.937.338-1.937-.562V58.156c0-.835.387-1.032 1.937-1.302 1.743-.303 2.195-.318 2.195.647v42.823c0 .965-.13 1.05-2.195 1.41M178.676 98.188c-.97.168-1.808-.007-2.324-2.103-1.937-7.828-2.97-12.278-5.036-19.89-.452-1.594-.97-4.526-1.356-4.458-.387.067-.45.85-.45 1.235v25.656c0 1.028-.325 1.214-2.068 1.517-1.872.326-2.13.242-2.13-.786V56.15c0-.643.452-.722 1.614-.924 1.808-.315 2.26-.008 2.905 2.323 2.003 7.623 3.294 12.67 5.295 20.295.13.556.387 1.476.71 1.42.323-.057.387-.84.387-1.226V54.762c0-1.03.323-1.214 2.195-1.54 1.485-.26 1.873-.26 1.873.64V95.27c0 2.315-.065 2.647-1.614 2.918M198.11 94.8l-9.685 1.69c-1.033.178-2.13.498-2.582.192-.517-.36-.387-1.348-.387-2.12V53.926c0-.836.064-.912.45-1.494.39-.58.84-.66 1.486-.773 3.55-.62 7.167-1.25 10.717-1.868.773-.135.773.636.773 1.794 0 1.22 0 1.736-.84 1.882-1.742.304-5.228.91-6.455 1.125-.516.09-1.29.29-1.485.58-.323.507-.323.443-.323 1.28v12.215c0 .58-.128 1.31.388 1.604.452.243.904.1 1.42.01 1.097-.19 2.454-.428 3.035-.53.775-.134.903.358.903 1.71 0 1.285-.064 1.81-.903 1.957-.517.088-1.744.302-2.905.505-.646.112-1.356.3-1.615.473-.58.488-.45 1.108-.45 1.944v13.824c0 .837 0 2.058.32 2.195.324.137 1.228.044 1.938-.08l6.134-1.068c.775-.135.84.24.84 1.654s-.065 1.81-.775 1.935M208.504 92.99c-4.197.73-7.49-1.075-7.49-6.154v-3.6c0-.708.453-.915 2.13-1.208 1.55-.27 2.196-.32 2.196.325v3.536c0 1.607.84 3.197 3.164 2.79 2.775-.483 3.292-2.63 3.292-4.108V80.65c0-3.41-2.518-6.57-5.1-9.72-2.71-3.323-5.746-6.91-5.746-10.703v-3.28c0-3.343 2.002-8 7.36-8.933 4.906-.855 7.36 3.025 7.36 6.305v2.957c0 .514-.775.65-2.26.908-1.227.213-2.066.36-2.066-.22v-3.02c0-2.123-1.614-3.192-3.034-2.944-1.808.316-3.164 2.352-3.164 3.96v3.536c0 2.443 2.518 5.284 4.97 8.264 2.842 3.427 5.877 7.4 5.877 12.222v4.244c0 4.372-3.293 8.032-7.49 8.763M226.13 89.918c-4.197.73-7.49-1.074-7.49-6.154v-3.6c0-.707.452-.915 2.13-1.207 1.55-.27 2.196-.32 2.196.324v3.538c0 1.607.84 3.196 3.163 2.792 2.775-.484 3.29-2.63 3.29-4.11v-3.922c0-3.41-2.517-6.57-5.1-9.72-2.71-3.322-5.744-6.91-5.744-10.702v-3.28c0-3.343 2-8 7.36-8.933 4.906-.855 7.36 3.025 7.36 6.304v2.958c0 .514-.776.65-2.26.908-1.227.214-2.066.36-2.066-.22v-3.02c0-2.122-1.614-3.19-3.035-2.944-1.807.314-3.163 2.35-3.163 3.958v3.537c0 2.443 2.518 5.283 4.97 8.264 2.842 3.426 5.876 7.398 5.876 12.22v4.244c0 4.372-3.292 8.032-7.49 8.764M127.26 129.97c0-.257-.064-.695-.452-.627-.322.055-.387.516-.387.71-.387 5.468-.644 10.014-.968 14.314-.064.462.517.49 1.42.33.776-.134 1.486-.258 1.42-.76-.45-5.45-.644-8.954-1.032-13.967zm5.294 28.977c-1.872.326-2.195.51-2.323-.366-.517-3.51-.904-6.658-1.42-10.104-.065-.632-.97-.41-2.002-.23-1.226.213-1.872.262-1.936.916-.388 3.67-.71 6.875-1.033 10.66-.066.72-.646.756-2.713 1.116-.968.17-1.808.315-1.743-.275 2.002-17.066 3.744-29.716 5.552-44.497.13-.923.452-1.043 1.872-1.29 1.615-.282 2.13-.308 2.196.773 2.194 16.078 3.357 25.906 5.552 42.306.065.695-.26.687-2.002.99zM144.627 156.843c-5.035.878-7.488-2.746-7.488-6.154v-29.964c0-3.472 2.452-8.015 7.487-8.892 5.36-.935 7.49 3.517 7.49 6.282v2.893c0 .642-.97.876-2.13 1.078-1.292.225-2.196.447-2.196-.325v-3.02c0-1.416-1.225-3.26-3.163-2.922-2 .35-3.292 2.503-3.292 3.982v29.77c0 1.8.904 3.38 3.292 2.963 2.196-.383 3.164-2.158 3.164-3.894v-3.793c0-.515.84-.66 2.002-.864 1.55-.27 2.324-.534 2.324.11v3.922c0 4.05-2.194 7.905-7.49 8.828M162.575 123.816c0-.257-.064-.695-.452-.628-.322.056-.387.517-.387.71-.387 5.47-.646 10.015-.968 14.314-.065.462.516.49 1.42.332.774-.135 1.485-.26 1.42-.762-.45-5.45-.646-8.954-1.033-13.966zm5.294 28.977c-1.873.326-2.197.51-2.325-.367-.517-3.51-.904-6.658-1.42-10.104-.065-.632-.968-.41-2.002-.23-1.226.214-1.872.262-1.936.916-.388 3.668-.71 6.875-1.033 10.66-.065.72-.646.756-2.71 1.116-.97.17-1.81.315-1.745-.275 2-17.067 3.744-29.717 5.55-44.5.13-.92.453-1.042 1.873-1.29 1.614-.28 2.13-.306 2.196.776 2.193 16.077 3.355 25.906 5.55 42.305.065.697-.258.69-2 .993zM183.88 113.93c0-1.413-.193-2.538-1.356-3.492-.71-.584-1.226-.75-2.97-.447-1.162.203-1.807.316-2.065.81-.195.42-.195.742-.195 1.127v32.986c0 .708-.065 1.425.387 1.797.26.212 1.227-.02 1.485-.066.71-.123 2.26-.586 3.422-2.01 1.29-1.64 1.29-2.67 1.29-3.633v-27.07zm1.872 32.982c-2.195 2.825-5.294 3.687-6.78 3.945-1.483.26-2.516.44-4 .698-.647.113-1.228.278-1.55-.18-.323-.394-.323-1.102-.323-1.55v-40.96c0-.642 0-1.286.386-1.74.516-.54 1.033-.5 1.55-.59l3.873-.676c2.065-.36 4.84-.33 6.777 1.07 1.937 1.462 2.39 3.954 2.39 6.27v27.005c0 1.543 0 3.6-2.325 6.707zM205.572 146.222l-9.683 1.688c-1.035.18-2.132.5-2.584.193-.516-.36-.388-1.347-.388-2.12v-40.636c0-.836.065-.91.453-1.493.388-.582.84-.66 1.485-.773l10.717-1.867c.776-.135.776.636.776 1.794 0 1.222 0 1.736-.84 1.882l-6.457 1.124c-.514.09-1.29.29-1.483.58-.323.507-.323.443-.323 1.28v12.215c0 .578-.13 1.308.388 1.603.452.244.904.1 1.42.01 1.098-.19 2.453-.427 3.034-.53.775-.134.904.358.904 1.71 0 1.285-.065 1.81-.904 1.956l-2.905.506c-.644.112-1.355.3-1.613.474-.58.487-.452 1.107-.452 1.943v13.825c0 .836 0 2.058.323 2.194.323.137 1.226.043 1.937-.08l6.133-1.07c.774-.134.84.24.84 1.655s-.066 1.81-.776 1.935M225.07 142.824c-1.68.293-2.067.232-2.067-.796v-22.44c0-2.51 0-6.56-.452-6.48-.45.078-.644.82-.773 1.227-.904 3.63-1.42 5.456-2.39 8.968-.128.473-.193.998-.903 1.122-.582.102-.775-.38-.97-.73-.773-2.888-1.29-4.79-2.194-8.106-.13-.43-.387-.962-.903-.872-.388.067-.323 3.978-.323 6.42v22.442c0 1.028-.387 1.225-2.066 1.517-1.807.315-2.13.243-2.13-.786v-42.886c0-1.03.58-1.002 1.807-1.216 1.42-.247 1.68.03 2.712 3.065 1.292 3.825 2.26 6.614 3.357 9.83.128.3.387.64.774.573.323-.056.646-.498.775-.843 1.356-4.286 2.002-6.52 3.357-11 .97-3.256 1.098-3.792 2.518-4.04 1.42-.247 2-.35 2 .616v42.886c0 1.03-.192 1.19-2.13 1.528M240.306 117.407c-.258 1.46-.452 2.844-.582 3.895-.064.59-.387 2.06-.387 3.22v15.302c0 .58-1.42.762-2.26.908-1.032.18-2.066.424-2.066-.348 0-5.207.066-9.206.066-14.928 0-1.158-.193-2.41-.323-3.095-.13-.812-.515-2.352-.774-3.786-1.357-7.286-2.325-13.418-3.552-20.728-.13-.814.452-.978 1.55-1.17 2-.35 2.517-.375 2.646.567.775 5.46 1.42 10.813 2.13 15.896 0 .192.13.556.39.51.256-.044.32-.506.32-.698.84-5.87 1.357-10.653 2.132-16.575.128-.858.71-1.152 2.388-1.445 1.743-.304 2.066-.296 1.937.563-1.29 7.812-2.323 14.036-3.614 21.912" fill="#FFF"/><path d="M91.802 23.158c0-1.415-.193-2.538-1.356-3.492-.71-.584-1.227-.752-2.97-.448-1.162.203-1.807.315-2.065.81-.193.42-.193.74-.193 1.127V54.14c0 .708-.065 1.426.387 1.798.258.212 1.227-.02 1.485-.066.71-.124 2.26-.587 3.42-2.01 1.292-1.64 1.292-2.67 1.292-3.634v-27.07zm1.872 32.98c-2.195 2.826-5.294 3.688-6.78 3.947-1.483.26-2.517.44-4 .697-.647.113-1.228.28-1.55-.18-.324-.393-.324-1.1-.324-1.55v-40.96c0-.642 0-1.285.388-1.738.516-.54 1.033-.502 1.55-.592l3.873-.675c2.067-.36 4.843-.33 6.78 1.07 1.936 1.462 2.388 3.955 2.388 6.27v27.005c0 1.544 0 3.6-2.324 6.707zM102.778 57.253c-1.744.304-1.938.337-1.938-.563V13.674c0-.835.388-1.03 1.938-1.3 1.742-.305 2.194-.32 2.194.645V55.84c0 .964-.13 1.05-2.194 1.41M124.47 53.472c-.323.38-.84.146-1.42.248-.517.09-.26-1.37-1.163-1.79-.71-.327-1.42 2.304-4.583 2.856-5.488.956-7.49-3.196-7.49-6.154V18.67c0-2.51 1.68-7.88 7.49-8.893 5.68-.99 7.488 3.967 7.488 6.282v2.892c0 .58-.516.862-2.26 1.166-1.613.28-2 .284-2-.295 0-.9-.065-2.24-.065-3.14 0-1.413-1.226-3.257-3.163-2.92-2 .35-3.293 2.63-3.293 3.98v29.9c0 1.608.71 3.413 3.294 2.963 2.518-.44 3.163-2.544 3.163-3.894v-11.06c0-.32.065-.72-.258-.92-.453-.242-1.81.187-2.455.3-.516.09-.58-.414-.58-1.764 0-1.414.064-2.005.516-2.084 1.744-.303 6.328-1.295 7.038-1.29.258.02.064.503.064.76v21.412c0 .45.066.953-.322 1.406M131.572 52.235c-1.744.303-1.937.337-1.937-.563V8.656c0-.835.387-1.03 1.937-1.302 1.743-.303 2.195-.318 2.195.647v42.824c0 .964-.13 1.05-2.195 1.41M150.81 7.602c-.774.135-1.678.23-2.775.484-.517.09-1.033.18-1.356.365-.582.552-.453 1.623-.453 2.46V49.1c0 .58-.97.812-2.324 1.05-1.162.2-2 .347-2-.296V11.663c0-.836.128-1.952-.453-2.3-.323-.073-.84.016-1.356.107l-2.39.416c-.967.17-1.16-.12-1.16-1.533 0-1.415.128-1.952.903-2.087 4.067-.71 9.232-1.61 13.3-2.317.773-.137.84.495.84 1.782 0 1.478-.067 1.746-.776 1.87" fill="#000403"/><mask id="d" fill="#fff"><use xlink:href="#c"/></mask><path d="M158.688 17.675c0-.257-.064-.696-.452-.628-.322.056-.388.517-.388.71-.387 5.47-.645 10.014-.968 14.314-.064.463.517.49 1.42.333.775-.135 1.486-.26 1.42-.762-.45-5.45-.645-8.953-1.032-13.965zm5.294 28.976c-1.872.328-2.195.512-2.324-.365-.517-3.51-.905-6.66-1.42-10.105-.065-.632-.97-.41-2.002-.23-1.227.214-1.872.262-1.936.917-.388 3.668-.71 6.875-1.034 10.66-.065.72-.645.755-2.71 1.116-.97.17-1.808.315-1.744-.275 2-17.067 3.745-29.716 5.552-44.498.13-.923.452-1.043 1.872-1.29 1.614-.282 2.13-.308 2.195.774 2.196 16.078 3.36 25.906 5.554 42.305.064.696-.26.687-2.002.99zM180.767 43.726l-9.62 1.676c-.71.124-1.42.184-1.678-.158-.324-.457-.26-1.432-.26-2.268V1.566c0-.964.647-.948 1.938-1.173 1.68-.292 2.26-.394 2.26.57v37.873c0 .836-.13 1.887.452 2.236.258.084.968.024 1.484-.066 1.098-.19 4.326-.754 5.423-.944.84-.147.904.356.904 1.578 0 1.607-.063 1.94-.903 2.086" fill="#000403" mask="url(#d)"/><path d="M110.945 91.383c0-2.957-1.742-3.94-3.68-3.602-2.775.485-2.97.71-2.97 2.255v13.502c0 .708.065 1.918.647 1.88.516-.025.58-.036 1.162-.137.71-.124 2.323-.598 3.485-2.022 1.29-1.64 1.355-2.55 1.355-3.644v-8.23zm-.258-18.794c0-1.48-.193-2.54-1.355-3.494-.71-.584-1.162-.762-2.97-.447-.904.157-1.614.28-1.872.776-.194.42-.194.74-.194 1.126v12.024c0 .707-.065 1.297.387 1.67.388.317.646.207 1.162.117.904-.157 2.39-.61 3.55-2.032 1.292-1.64 1.292-2.604 1.292-3.633V72.59zm2.066 32.946c-2.195 2.826-5.23 3.676-6.778 3.946-1.163.202-2.002.414-3.164.55-.774.072-1.936.403-2.194.062-.387-.51-.516-.36-.516-2.096V67.49c0-.643 0-1.222.387-1.675.516-.54 1.033-.566 1.55-.656l3.68-.642c2-.35 4.84-.33 6.778 1.07 1.937 1.462 2.39 3.955 2.39 6.27v5.786c0 1.544.063 2.625-.71 4.175-.97 1.968-2.97 2.832-2.97 3.09 0 .256 2.194.26 3.162 2.02.775 1.408.71 2.383.71 3.926v7.973c0 1.607 0 3.6-2.324 6.706zM126.44 105.916c-5.228.91-7.488-2.94-7.488-6.09v-36.65c0-.836.71-1.088 2.066-1.325 1.356-.235 2.13-.113 2.13.594v36.33c0 1.735.97 3.238 3.293 2.833 2.196-.383 3.293-2.18 3.293-3.917V61.104c0-.578.388-.84 1.937-1.11 1.614-.28 2.26-.265 2.26.314v36.844c0 4.05-2.26 7.852-7.49 8.764M145.163 102.653c-4.196.73-7.488-1.074-7.488-6.155v-3.6c0-.707.45-.914 2.13-1.206 1.55-.27 2.195-.32 2.195.324v3.536c0 1.608.84 3.197 3.163 2.792 2.776-.483 3.292-2.63 3.292-4.11v-3.92c0-3.41-2.517-6.572-5.1-9.722-2.71-3.32-5.745-6.908-5.745-10.7v-3.28c0-3.344 2-8 7.36-8.935 4.906-.855 7.36 3.026 7.36 6.305v2.958c0 .514-.776.65-2.26.908-1.227.214-2.066.36-2.066-.22v-3.02c0-2.122-1.614-3.192-3.034-2.945-1.808.316-3.164 2.352-3.164 3.96v3.536c0 2.442 2.518 5.283 4.97 8.264 2.842 3.426 5.876 7.398 5.876 12.222v4.243c0 4.37-3.293 8.03-7.49 8.763M159.626 100.068c-1.744.304-1.938.338-1.938-.562V56.49c0-.836.387-1.032 1.938-1.302 1.742-.304 2.194-.32 2.194.646v42.823c0 .965-.13 1.05-2.194 1.41M180.35 96.52c-.97.17-1.81-.006-2.325-2.102-1.936-7.828-2.97-12.278-5.035-19.89-.453-1.594-.97-4.526-1.356-4.458-.387.067-.452.85-.452 1.236V96.96c0 1.03-.324 1.215-2.066 1.518-1.872.326-2.13.243-2.13-.786v-43.21c0-.64.452-.72 1.614-.923 1.807-.316 2.258-.01 2.904 2.322 2.002 7.625 3.293 12.672 5.295 20.296.128.556.386 1.476.708 1.42.323-.057.388-.84.388-1.225V53.096c0-1.028.323-1.213 2.195-1.54 1.486-.258 1.874-.26 1.874.64v41.408c0 2.314-.066 2.647-1.615 2.917M199.783 93.134l-9.684 1.688c-1.034.18-2.132.5-2.584.193-.516-.36-.387-1.347-.387-2.12V52.26c0-.837.064-.913.45-1.494.388-.582.84-.66 1.486-.774l10.717-1.867c.774-.135.774.637.774 1.794 0 1.22 0 1.735-.84 1.88-1.742.305-5.23.912-6.455 1.126-.516.09-1.29.29-1.485.58-.323.507-.323.443-.323 1.278v12.218c0 .578-.128 1.308.388 1.604.45.242.904.1 1.42.01l3.034-.53c.775-.134.904.357.904 1.708 0 1.286-.065 1.812-.904 1.958l-2.905.506c-.644.113-1.355.3-1.613.474-.58.487-.45 1.107-.45 1.944V88.5c0 .836 0 2.058.32 2.194.324.137 1.227.043 1.938-.08l6.132-1.07c.775-.134.84.24.84 1.655 0 1.413-.065 1.81-.774 1.934M210.177 91.323c-4.196.73-7.49-1.075-7.49-6.154v-3.602c0-.707.453-.914 2.13-1.206 1.55-.27 2.197-.32 2.197.324v3.537c0 1.607.84 3.197 3.163 2.79 2.776-.482 3.292-2.63 3.292-4.11v-3.92c0-3.41-2.52-6.57-5.1-9.72-2.712-3.322-5.746-6.91-5.746-10.702v-3.28c0-3.342 2-8 7.36-8.933 4.906-.855 7.36 3.026 7.36 6.305v2.958c0 .514-.776.65-2.26.908-1.227.214-2.066.36-2.066-.22v-3.02c0-2.122-1.615-3.192-3.034-2.944-1.808.315-3.164 2.352-3.164 3.96v3.535c0 2.443 2.518 5.283 4.97 8.263 2.84 3.428 5.876 7.4 5.876 12.222v4.244c0 4.372-3.292 8.032-7.49 8.763M227.802 88.25c-4.196.732-7.488-1.073-7.488-6.152v-3.6c0-.708.45-.915 2.13-1.208 1.55-.27 2.195-.318 2.195.324v3.537c0 1.61.838 3.198 3.162 2.793 2.776-.484 3.293-2.63 3.293-4.11V75.91c0-3.407-2.518-6.57-5.1-9.72-2.71-3.32-5.746-6.907-5.746-10.7v-3.28c0-3.343 2-8 7.36-8.934 4.905-.855 7.358 3.026 7.358 6.305v2.958c0 .515-.774.65-2.26.91-1.226.213-2.065.36-2.065-.22v-3.022c0-2.122-1.614-3.19-3.034-2.944-1.808.315-3.164 2.352-3.164 3.96v3.536c0 2.443 2.517 5.284 4.97 8.264 2.84 3.427 5.875 7.4 5.875 12.222v4.243c0 4.372-3.29 8.032-7.488 8.764M128.934 128.303c0-.256-.065-.695-.452-.627-.323.056-.387.517-.387.71-.388 5.468-.646 10.014-.97 14.315-.063.462.518.49 1.42.332.776-.135 1.486-.26 1.422-.762-.452-5.45-.646-8.954-1.033-13.967zm5.294 28.978c-1.873.327-2.196.512-2.324-.366-.517-3.51-.904-6.658-1.42-10.105-.066-.633-.97-.41-2.002-.23-1.227.213-1.872.262-1.936.915-.388 3.67-.71 6.876-1.034 10.66-.064.72-.645.757-2.71 1.117-.97.168-1.81.315-1.744-.275 2-17.067 3.744-29.716 5.552-44.498.13-.924.452-1.044 1.872-1.29 1.614-.283 2.13-.31 2.195.773 2.195 16.078 3.357 25.906 5.552 42.306.064.694-.26.687-2.002.99zM146.3 155.177c-5.034.877-7.487-2.746-7.487-6.155V119.06c0-3.473 2.453-8.016 7.488-8.893 5.36-.934 7.49 3.517 7.49 6.282v2.893c0 .643-.968.876-2.13 1.078-1.292.226-2.196.448-2.196-.323v-3.022c0-1.415-1.225-3.26-3.163-2.92-2 .347-3.29 2.5-3.29 3.98v29.77c0 1.8.903 3.38 3.29 2.963 2.197-.383 3.164-2.158 3.164-3.894v-3.794c0-.514.84-.66 2.002-.863 1.55-.27 2.324-.534 2.324.11v3.92c0 4.052-2.195 7.906-7.49 8.83M164.25 122.15c0-.258-.065-.696-.453-.63-.323.058-.388.518-.388.712-.388 5.47-.646 10.014-.97 14.314-.064.46.517.488 1.42.33.776-.134 1.487-.258 1.42-.76-.45-5.452-.644-8.954-1.03-13.967zm5.293 28.976c-1.873.326-2.196.51-2.324-.367-.518-3.51-.906-6.66-1.422-10.105-.065-.632-.968-.41-2-.23-1.228.214-1.873.262-1.937.916-.387 3.67-.71 6.876-1.033 10.662-.065.72-.645.755-2.71 1.116-.97.168-1.81.314-1.744-.276 2-17.066 3.744-29.715 5.552-44.498.13-.922.45-1.042 1.872-1.29 1.614-.28 2.13-.307 2.195.775 2.194 16.077 3.357 25.905 5.552 42.304.065.697-.258.688-2 .992zM185.554 112.264c0-1.414-.194-2.538-1.356-3.493-.71-.582-1.227-.75-2.97-.446-1.162.203-1.808.315-2.066.81-.194.42-.194.742-.194 1.127v32.987c0 .707-.064 1.425.388 1.796.258.213 1.226-.02 1.485-.066.71-.123 2.26-.586 3.422-2.01 1.292-1.64 1.292-2.67 1.292-3.633v-27.07zm1.872 32.98c-2.195 2.827-5.295 3.688-6.78 3.947-1.484.26-2.516.44-4.002.698-.646.113-1.226.28-1.55-.18-.322-.394-.322-1.1-.322-1.55v-40.96c0-.642 0-1.285.387-1.74.516-.54 1.032-.5 1.55-.59l3.872-.675c2.067-.36 4.842-.33 6.78 1.07 1.936 1.463 2.388 3.955 2.388 6.27v27.005c0 1.544 0 3.6-2.324 6.707zM207.246 144.555l-9.683 1.688c-1.034.18-2.13.5-2.583.193-.517-.36-.388-1.347-.388-2.12v-40.635c0-.836.065-.91.453-1.493.387-.582.838-.66 1.484-.773 3.55-.618 7.165-1.25 10.716-1.867.775-.136.775.635.775 1.793 0 1.222 0 1.736-.84 1.883l-6.455 1.124c-.516.09-1.29.29-1.485.58-.323.507-.323.443-.323 1.28v12.216c0 .578-.128 1.308.388 1.604.452.243.904.1 1.42.01l3.035-.53c.775-.134.903.357.903 1.708 0 1.286-.064 1.812-.903 1.958l-2.905.506c-.646.112-1.357.3-1.615.473-.58.487-.45 1.108-.45 1.944v13.824c0 .837 0 2.06.32 2.195.324.137 1.228.043 1.938-.08l6.133-1.07c.776-.134.84.24.84 1.656 0 1.415-.064 1.812-.774 1.935" fill="#000403"/><g fill="#000403"><path d="M226.742 141.158c-1.678.293-2.065.23-2.065-.797v-22.44c0-2.508 0-6.558-.452-6.48-.452.08-.646.82-.775 1.228-.903 3.63-1.42 5.456-2.39 8.97-.127.47-.192.996-.903 1.12-.58.102-.774-.38-.968-.73-.775-2.888-1.292-4.79-2.196-8.106-.13-.428-.387-.96-.904-.87-.388.066-.322 3.977-.322 6.42v22.44c0 1.03-.388 1.226-2.067 1.52-1.806.314-2.13.24-2.13-.788V99.757c0-1.03.582-1 1.81-1.215 1.42-.248 1.677.03 2.71 3.064 1.292 3.826 2.26 6.615 3.358 9.83.128.3.386.64.774.573.323-.057.646-.5.775-.843 1.356-4.287 2-6.52 3.357-11 .968-3.256 1.097-3.793 2.518-4.04 1.42-.248 2-.35 2 .615v42.887c0 1.028-.193 1.19-2.13 1.528M241.98 115.74c-.26 1.46-.453 2.844-.582 3.896-.065.59-.388 2.06-.388 3.218v15.303c0 .58-1.42.762-2.26.91-1.032.178-2.065.422-2.065-.35 0-5.207.065-9.205.065-14.928 0-1.158-.193-2.41-.323-3.096-.13-.812-.516-2.352-.775-3.786-1.355-7.286-2.324-13.42-3.55-20.73-.13-.812.45-.977 1.55-1.17 2-.347 2.516-.374 2.646.57.775 5.458 1.42 10.81 2.13 15.895 0 .193.13.556.388.51.258-.044.323-.506.323-.698.838-5.87 1.354-10.653 2.13-16.574.128-.858.71-1.152 2.388-1.445 1.743-.304 2.065-.296 1.936.563-1.29 7.813-2.324 14.036-3.615 21.913"/></g></g></svg>