<svg width="28" height="30" xmlns="http://www.w3.org/2000/svg"><title>Imported Layers</title><g fill="#FFF" fill-rule="evenodd"><path d="M26.756 16.178H3.11c-.342 0-.62-.28-.62-.622V1.866c0-.343.278-.622.62-.622h23.646c.343 0 .622.28.622.623v13.69c0 .342-.28.62-.622.62zM3.733 14.933h22.4V2.49h-22.4v12.443zM.622 29.867c-.343 0-.622-.28-.622-.623V.622C0 .28.28 0 .622 0c.344 0 .622.28.622.622v28.622c0 .344-.278.623-.622.623"/><path d="M3.733 4.978h2.49v-2.49h-2.49v2.49zM8.71 4.978h2.49v-2.49H8.71v2.49zM13.69 4.978h2.488v-2.49h-2.49v2.49zM18.667 4.978h2.49v-2.49h-2.49v2.49zM23.644 4.978h2.49v-2.49h-2.49v2.49z"/><path d="M6.222 7.467h2.49v-2.49H6.22v2.49zM11.2 7.467h2.49v-2.49H11.2v2.49zM16.178 7.467h2.49v-2.49h-2.49v2.49zM21.156 7.467h2.488v-2.49h-2.488v2.49z"/><path d="M3.733 9.956h2.49v-2.49h-2.49v2.49zM8.71 9.956h2.49v-2.49H8.71v2.49zM13.69 9.956h2.488v-2.49h-2.49v2.49zM18.667 9.956h2.49v-2.49h-2.49v2.49zM23.644 9.956h2.49v-2.49h-2.49v2.49zM6.222 12.444h2.49V9.956H6.22v2.488zM11.2 12.444h2.49V9.956H11.2v2.488zM16.178 12.444h2.49V9.956h-2.49v2.488zM21.156 12.444h2.488V9.956h-2.488v2.488z"/><path d="M3.733 14.933h2.49v-2.49h-2.49v2.49zM8.71 14.933h2.49v-2.49H8.71v2.49zM13.69 14.933h2.488v-2.49h-2.49v2.49zM18.667 14.933h2.49v-2.49h-2.49v2.49zM23.644 14.933h2.49v-2.49h-2.49v2.49z"/></g></svg>