<svg width="31" height="33" xmlns="http://www.w3.org/2000/svg"><title>Imported Layers</title><g fill="#FFF" fill-rule="evenodd"><path d="M30.037 6.292L15.267.736c-.135-.05-.285-.05-.42.002L.668 6.295C.44 6.383.293 6.6.293 6.84c0 .24.148.456.372.544l7.272 2.85c-.592.333-1.168.698-1.712 1.112L2.6 9.533c-.198-.1-.438-.077-.615.06-.178.134-.263.36-.22.578l.99 4.943C1.55 17.028.918 19.117.918 21.17c0 2.748 0 11.113 14.532 11.113 9.32 0 14.044-3.74 14.044-11.113 0-1.944-.572-3.933-1.656-5.766l1.385-5.196c.058-.218-.014-.45-.185-.597-.17-.145-.413-.18-.617-.088l-4.185 1.86c-.547-.418-1.125-.787-1.72-1.125.01-.016.017-.034.026-.05l7.493-2.82c.227-.086.378-.304.378-.547 0-.244-.15-.462-.378-.548zm-7.255 2.574c-.298-1.98-3.385-3.49-7.282-3.49-4.035 0-7.202 1.62-7.302 3.703L2.482 6.84l12.584-4.93L28.17 6.84 22.78 8.866zm1.61 3.728l3.388-1.506-1.134 4.255c-.042.156-.018.32.067.458 1.055 1.71 1.613 3.565 1.613 5.37 0 2.46 0 9.943-12.874 9.943-11.978 0-13.363-5.675-13.363-9.943 0-1.9.613-3.842 1.774-5.62.084-.13.114-.285.084-.435l-.8-4 2.885 1.442c.203.102.448.076.627-.067.738-.59 1.537-1.09 2.372-1.514.117-.06.233-.12.35-.177.066-.03.13-.067.194-.097.187-.085.38-.156.57-.233l.053-.02c.254-.103.51-.2.77-.285 1.367-.45 2.796-.693 4.238-.693 1.42 0 2.826.238 4.173.674.286.093.568.195.847.307.12.048.242.094.36.145.14.06.28.122.418.187.065.03.13.066.194.097.186.092.374.182.558.282.71.39 1.39.84 2.03 1.352.17.137.403.167.603.078zm-2.91-2.872c-.143-.068-.284-.142-.43-.205-1.843-.793-3.834-1.215-5.844-1.215-1.99 0-3.963.415-5.79 1.193-.036-.105-.06-.21-.06-.316 0-1.245 2.523-2.633 6.142-2.633 3.62 0 6.142 1.388 6.142 2.632 0 .04-.01.08-.016.12-.018.14-.065.282-.144.422z"/><path d="M8.774 17.66c-.968 0-1.755.788-1.755 1.755 0 .968.786 1.755 1.754 1.755.967 0 1.754-.787 1.754-1.755 0-.967-.787-1.755-1.754-1.755zm0 2.34c-.323 0-.585-.263-.585-.585 0-.322.26-.585.584-.585.322 0 .584.263.584.585 0 .322-.262.585-.584.585z"/><path d="M16.962 19.415c0 .086.008.17.013.255-.43-.14-1.006-.255-1.767-.255-.76 0-1.338.116-1.768.255.005-.085.013-.17.013-.255 0-2.58-2.1-4.68-4.68-4.68-2.58 0-4.68 2.1-4.68 4.68 0 2.58 2.1 4.68 4.68 4.68 1.77 0 3.31-.987 4.107-2.44l1.84 2.764c.11.162.292.26.488.26.195 0 .378-.098.486-.26l1.84-2.764c.798 1.452 2.34 2.438 4.108 2.438 2.58 0 4.68-2.1 4.68-4.68 0-2.58-2.1-4.678-4.68-4.678-2.58 0-4.68 2.1-4.68 4.68zm4.68 3.51c-1.936 0-3.51-1.574-3.51-3.51 0-1.935 1.574-3.51 3.51-3.51 1.935 0 3.51 1.575 3.51 3.51 0 1.936-1.575 3.51-3.51 3.51zm-6.434-2.34c.68 0 1.168.11 1.488.222l-1.488 2.233-1.49-2.233c.322-.112.81-.222 1.49-.222zm-6.434 2.34c-1.936 0-3.51-1.574-3.51-3.51 0-1.935 1.574-3.51 3.51-3.51 1.935 0 3.51 1.575 3.51 3.51 0 1.936-1.575 3.51-3.51 3.51z"/><path d="M21.642 17.66c-.968 0-1.755.788-1.755 1.755 0 .968.787 1.755 1.755 1.755.967 0 1.754-.787 1.754-1.755 0-.967-.787-1.755-1.754-1.755zm0 2.34c-.323 0-.585-.263-.585-.585 0-.322.262-.585.585-.585.322 0 .584.263.584.585 0 .322-.262.585-.584.585z"/></g></svg>