<svg width="28" height="31" xmlns="http://www.w3.org/2000/svg"><title>Imported Layers</title><g fill="#FFF" fill-rule="evenodd"><path d="M28 30.8H0v-3.34c0-2.065 1.306-3.92 3.25-4.615l6.55-2.338v-3.314h1.4v4.3l-7.477 2.67c-1.39.497-2.323 1.82-2.323 3.297v1.94h25.2v-1.94c0-1.475-.934-2.8-2.324-3.297l-7.476-2.67v-4.56h1.4v3.574l6.548 2.338C26.692 23.54 28 25.395 28 27.46v3.34"/><path d="M13.825 18.9c-4.246 0-7.7-4.082-7.7-9.1S9.58.7 13.825.7s7.7 4.082 7.7 9.1-3.454 9.1-7.7 9.1zm0-16.8c-3.473 0-6.3 3.454-6.3 7.7s2.827 7.7 6.3 7.7 6.3-3.454 6.3-7.7-2.827-7.7-6.3-7.7z"/><path d="M18.957 9.92c-1.67 0-2.987-.736-4.103-2.29-1.196 1.256-3.305 2.17-5.23 2.17-1.116 0-2.08-.232-3.034-.732l.65-1.24c.755.396 1.49.572 2.385.572 1.83 0 4.005-1.086 4.65-2.325l.594-1.136.635 1.11c1.194 2.092 2.454 2.755 4.487 2.363.175-.034.316-.045.466-.055l.217-.018.17 1.39c-.108.013-.202.018-.294.025-.092.006-.18.01-.292.032-.456.09-.89.133-1.3.133"/></g></svg>