<svg width="26" height="39" xmlns="http://www.w3.org/2000/svg"><title>Imported Layers</title><g fill="#FFF" fill-rule="evenodd"><path d="M13 39C5.832 39 0 33.168 0 26s5.832-13 13-13 13 5.832 13 13-5.832 13-13 13zm0-24.375C6.728 14.625 1.625 19.727 1.625 26S6.728 37.375 13 37.375c6.273 0 11.375-5.102 11.375-11.375S19.273 14.625 13 14.625z"/><path d="M17.875 33.313c-.15 0-.3-.04-.43-.124L13 30.41l-4.444 2.78c-.286.178-.65.163-.92-.04-.268-.203-.385-.55-.293-.873L8.82 27.11l-3.64-2.912c-.27-.216-.373-.58-.26-.904.116-.326.423-.544.768-.544h4.372l2.214-4.425c.276-.55 1.176-.55 1.452 0l2.214 4.425h4.373c.344 0 .65.218.767.544.113.325.01.688-.26.904l-3.64 2.912 1.477 5.167c.092.324-.025.67-.293.873-.145.11-.317.163-.49.163zM13 28.639c.15 0 .3.04.43.122l3.083 1.928-1.045-3.655c-.09-.314.018-.65.273-.856l2.257-1.805h-2.56c-.307 0-.588-.174-.726-.448L13 20.504l-1.71 3.422c-.14.275-.42.45-.727.45h-2.56l2.254 1.803c.257.204.364.54.275.855L9.487 30.69l3.082-1.928c.13-.082.28-.123.43-.123zM7.38 13c-.34 0-.652-.21-.77-.55L4.107 5.14c-.03-.084-.043-.174-.043-.263V.812c0-.448.364-.812.812-.812H13c.448 0 .813.364.813.813 0 .45-.365.812-.813.812H5.687V4.74l2.462 7.184c.144.424-.082.886-.506 1.032-.088.03-.177.044-.265.044"/><path d="M18.754 13c-.08 0-.167-.013-.25-.04-.428-.137-.66-.595-.522-1.023l2.33-7.19V1.625H13c-.448 0-.813-.362-.813-.813 0-.448.365-.812.813-.812h8.125c.448 0 .813.364.813.813v4.062c0 .085-.014.17-.04.252l-2.37 7.312c-.11.342-.43.56-.774.56M9.75 11.375c-.448 0-.813-.362-.813-.813V.813c0-.448.365-.812.813-.812.448 0 .813.364.813.813v9.75c0 .45-.365.812-.813.812"/><path d="M16.25 11.375c-.448 0-.813-.362-.813-.813V.813c0-.448.365-.812.813-.812.448 0 .813.364.813.813v9.75c0 .45-.364.812-.813.812M12.188 10.563V.813c0-.45.364-.813.812-.813.448 0 .813.364.813.813v9.75c0 .45-.365.812-.813.812-.448 0-.813-.362-.813-.813z"/></g></svg>