<svg width="93" height="46" xmlns="http://www.w3.org/2000/svg"><title>Imported Layers</title><g fill="none" fill-rule="evenodd"><path d="M90.97 46H24.766c-.85 0-1.54-.685-1.54-1.533V1.533c0-.848.69-1.533 1.54-1.533H90.97c.852 0 1.54.685 1.54 1.533v42.934c0 .848-.688 1.533-1.54 1.533zm-64.665-3.067H89.43V3.067H26.306v39.866z" fill="#FFF"/><path d="M90.97 13.8c-6.79 0-12.317-5.503-12.317-12.267 0-.848.69-1.533 1.54-1.533H90.97c.852 0 1.54.685 1.54 1.533v10.734c0 .848-.688 1.533-1.54 1.533zM81.86 3.067c.652 3.847 3.708 6.89 7.57 7.54v-7.54h-7.57zM90.97 46H80.194c-.85 0-1.54-.685-1.54-1.533 0-6.764 5.526-12.267 12.318-12.267.852 0 1.54.685 1.54 1.533v10.734c0 .848-.688 1.533-1.54 1.533zm-9.11-3.067h7.57v-7.54c-3.862.65-6.918 3.693-7.57 7.54zM57.868 33.733c-6.368 0-11.547-5.158-11.547-11.5s5.18-11.5 11.548-11.5 11.547 5.158 11.547 11.5-5.18 11.5-11.547 11.5zm0-19.933c-4.668 0-8.468 3.784-8.468 8.433 0 4.65 3.8 8.434 8.468 8.434s8.468-3.785 8.468-8.434c0-4.65-3.8-8.433-8.468-8.433zM30.924 9.2H15.527c-.85 0-1.54-.685-1.54-1.533 0-.848.69-1.534 1.54-1.534h15.397c.85 0 1.54.686 1.54 1.534s-.69 1.533-1.54 1.533M37.083 19.933H12.448c-.85 0-1.54-.685-1.54-1.533 0-.848.69-1.533 1.54-1.533h24.635c.85 0 1.54.685 1.54 1.533 0 .848-.69 1.533-1.54 1.533M6.29 19.933H1.67c-.85 0-1.54-.685-1.54-1.533 0-.848.69-1.533 1.54-1.533h4.62c.85 0 1.54.685 1.54 1.533 0 .848-.69 1.533-1.54 1.533M32.464 30.667H21.686c-.85 0-1.54-.686-1.54-1.534s.69-1.533 1.54-1.533h10.778c.85 0 1.54.685 1.54 1.533 0 .848-.69 1.534-1.54 1.534M15.527 30.667H6.29c-.85 0-1.54-.686-1.54-1.534S5.44 27.6 6.29 27.6h9.237c.852 0 1.54.685 1.54 1.533 0 .848-.688 1.534-1.54 1.534M23.226 39.867H9.37c-.85 0-1.54-.686-1.54-1.534S8.52 36.8 9.37 36.8h13.856c.85 0 1.54.685 1.54 1.533 0 .848-.69 1.534-1.54 1.534M3.21 39.867H1.67c-.85 0-1.54-.686-1.54-1.534S.82 36.8 1.67 36.8h1.54c.852 0 1.54.685 1.54 1.533 0 .848-.688 1.534-1.54 1.534M10.908 9.2h-1.54c-.85 0-1.54-.685-1.54-1.533 0-.848.69-1.534 1.54-1.534h1.54c.852 0 1.54.686 1.54 1.534S11.76 9.2 10.908 9.2" fill="#FFF"/><path d="M21.686 30.667h4.62v3.066h-4.62v-3.066zM21.686 19.933h4.62V23h-4.62v-3.067zM21.686 9.2h4.62v3.067h-4.62V9.2z" fill="#39C2D7"/></g></svg>