<svg width="123" height="91" xmlns="http://www.w3.org/2000/svg" xmlns:xlink="http://www.w3.org/1999/xlink"><title>Ogilvy black</title><defs><path id="a" d="M0 .277h122.986v90.66H0"/></defs><g fill="none" fill-rule="evenodd"><mask id="b" fill="#fff"><use xlink:href="#a"/></mask><path d="M106.41 25.553c.483-.302 1.083-.592 1.474-.773.392-.182.904-.4 1.445-.4.54 0 .917.173 1.37.498.45.324.837.664 1.258 1.298.422.636 1.237 1.758 1.528 2.164.29.405 1.093 1.57 1.424 1.782.33.213.402.178.582.148.18-.03.384-.173.583-.74.18-.516.362-.908.602-1.483.24-.575.72-1.06 1.26-1.392.543-.333 1.746-.998 3.04-.907.956.066 1.608.33 1.837.725.21.364.302 1.09.182 1.543-.12.455-1.016 4.506-1.24 5.446-.223.94-2.494 10.344-2.764 11.676-.27 1.33-.933 4.81-1.265 6.442-.33 1.635-2.247 11.14-2.558 12.464-.31 1.323-2.08 9.376-2.71 11.827-.633 2.45-1.698 5.524-1.98 6.375-.342 1.027-1.048 2.8-1.424 3.596-.51 1.086-1.954 3.16-2.105 3.28-.15.12-.782.575-1.233.848-.45.272-1.234.696-2.047.877-.813.18-2.282.292-2.503.155-.4-.25-1.026-.535-1.537-1.107-.29-.323-1.258-1.498-2.19-3.767-.934-2.27-1.825-6.685-1.885-7.895-.06-1.21-.194-2.056-.193-2.238.003-.18-.05-.605-.05-.605s.118-.605.75-1.3c.633-.696.955-1.03 1.738-1.27.783-.243 1.384-.183 1.716-.03.33.15.602.27.602.543 0 .722-.133 1.358.023 2.293.182 1.09.43 2.366.73 3.424.302 1.06 1.264 3.842 1.715 4.568.453.726.633.968.965.938.33-.03.572-.12.993-.787.42-.665 1.238-2.39 1.6-3.508.36-1.12.868-3.177 1.2-4.266.33-1.09.99-3.643 1.53-5.972.542-2.33 1.088-5.1 1.33-6.58.24-1.484.746-4.873 1.04-6.383.297-1.51.627-3.155.752-4.024.124-.87.706-4.537.795-5.052.09-.513 1.656-8.318 1.927-9.71.27-1.39.45-2.056.48-2.267.032-.213.215-.422.245-.604.025-.153-.123-.336-.274-.456-.15-.12-.33-.212-.45-.212-.122 0-.343.114-.603.212-.482.18-.996.213-1.507.213-.512 0-.97-.317-1.533-.85-.562-.53-1.626-1.98-2.122-2.6-.496-.622-1.3-1.914-1.753-2.285-.45-.372-1.152-.59-1.514-.92-.36-.334-.45-.667-.54-1.09-.09-.424-.062-.757-.062-.91 0-.15.452-.543.573-.634.12-.09.628-.236.753-.315M46.854 5.888c-.334 0-.52.074-.716.165-.196.09-.692.27-1.114.24-.42-.03-.715.06-.986-.288-.27-.35-.45-.616-.48-.933-.03-.318.054-.46-.05-.673-.107-.212-.192-.598-.222-.75-.03-.15-.18-.74.03-1.104.21-.362.633-.877 1.04-1.12.406-.24 1.31-.86 2.046-1.013.737-.15.663-.136 1.1-.136.435 0 .962.12 1.218.227.255.106.833.618.89.726.105.212.194.53.014 1.105-.182.574-.753 1.39-.994 1.845-.242.453-.617.982-.888 1.225-.27.24-.752.483-.888.483" fill="#1A1918" mask="url(#b)"/><path d="M100.358 21.936c-.66-.09-2.684.16-3.27.247-.59.085-1.846.297-2.66.933-1.045.818-1.113 1.936-1.143 2.632-.03.695-.04 1.814-.065 2.62-.03.87-.087 1.13-.236 1.948-.09.332-.177.73-.248.927-.093.255-.28.306-.595.13-.215-.12-.524-.574-.708-.746-.45-.424-2.748-3.478-3.775-4.728-1.144-1.392-1.897-1.423-2.71-1.446-.648-.018-2.228.507-2.71.75-.576.29-.813.634-.813.634s-.12.756-.06 1.513c.06.757-.092 1.89-.317 2.612-.288.928-.848 1.375-1.183 1.45-.518.116-1.385-.464-3.22-2.774-1.55-1.948-3.286-5.674-3.857-7.548-.573-1.876-1.267-4.127-1.298-4.49-.03-.364-.057-.735-.14-.925-.07-.16-.113-.406-.113-.74 0-.332-.093-.6-.093-.6s-.223-2.38-.345-3.32c-.122-.936-.26-4.787-.412-5.875-.15-1.09-1.244-1.444-2.177-1.232-.917.208-2.077.664-2.98 1.24-.902.575-1.246 1.603-1.156 2.903.08 1.142.828 4.424.954 5.273.09.605.052 1.14.203 1.686.15.543-.03 1.452-.18 2.33-.152.876-.748 2.208-1.08 3-.33.79-1.202 2.62-1.355 2.926-.153.305-.923 1.682-1.183 2.204-.157.315-.807 1.45-1.442 2.435-.57.885-2.557 3.74-3.61 4.798-1.055 1.06-2.482 1.895-3.024 1.955-.542.06-.982-.086-1.434-.466-.56-.468-1.535-2.427-1.893-3.13-.36-.706-1.136-2.172-1.136-2.172s-.3-.485-.933-.696c-.63-.21-1.53-.095-2.335.174-1.04.348-1.923.75-2.914 1.246-.69.348-1.773 1.076-2.017.87-.28-.234-.03-.64-.272-1.61-.24-.966-1.078-1.165-2.01-1.085-.93.08-1.1-.69-1.325-1.237-.223-.546-.54-1.06-1.113-1.24-.542-.172-1.227-.352-1.77-.23-.54.12-1.15.503-1.69.926-.544.422-1.602 1.507-2.084 2.022-.48.515-.87.707-.87.707s-.435-.103-1.037-.406c-.6-.302-1.703-.896-2.425-1.5-.723-.606-1.32-1.376-1.32-1.376s-.06-1.598-.06-2.122c0-1.214-.45-3.69-.752-4.84-.3-1.15-1.133-3.29-1.313-3.836-.18-.544-.342-1.125-.673-1.7-.332-.574-1.826-2.828-2.312-3.43-.487-.602-1.79-1.926-1.902-2.14-.112-.21-.12.092-.782-.513-.66-.605-2.016-1.24-2.558-1.21l-.963.152c-.784.317-1.446.724-2.048 1.208-.602.485-.662 1.392-.662 1.997 0 .605.145 1.91.28 2.315.18.544.09.666-.152.967 0 0-.932.576-1.805 1.18-.874.605-2.5 1.997-3.522 3.025-1.023 1.03-2.347 2.965-3.22 4.538-.873 1.573-1.544 3.63-1.853 4.706-.2.7-.438 2.2-.477 2.896-.04.695.022 1.39.27 2.6.25 1.21 1.025 2.48 1.597 3.57.572 1.09 1.445 1.967 2.047 2.6.602.637 1.566 1.152 2.288 1.424.722.27 2.468.453 3.43.514.573.036 2.018-.243 2.44-.243.18 0 1.43-.395 1.852-.516.338-.097 1.062-.375 1.76-.602.933-.302 2.51-1.397 2.74-1.57.1-.078.38-.294.78-.638.402-.35.754-.726 1.356-1.3.602-.575 1.412-1.774 1.927-2.54l1.022-1.523s.728.45 1.294.705c.542.242 1.445.726 1.867.998.422.272.843.665.513 1.452-.143.34-.483 1.06-.813 1.725-.332.665-.456 1.305-.392 1.784.06.455.15.546.452.788.222.178.36.21.512.24.478.098.274-.003 1.324-.18.722-.12 2.95-.877 3.672-1.09.723-.21 1.064-.35 1.89-.707.673-.29.97.447.7 1.103-.12.292-.397.772-.573 1.3-.09.272-.328.68-.42 1.12-.092.423-.203.786-.234.937-.03.152-.164.22-.27.393-.24.393-.504 1.184-.802 1.938-.298.755-1.118 2.904-1.328 3.54-.21.634-.723 2.932-.843 3.447-.12.515-.226 1.06-.286 1.33-.06.273-.175 1.286-.218 1.914-.044.63-.168 2.345-.188 3.615-.022 1.27.045 2.7.257 3.79.21 1.09.48 2.018.69 2.38.21.364.515 1.402.98 1.834.25.233 1.01.572 1.853.572.842 0 1.66-.515 2.172-.726.512-.212 1-.99 1.05-1.06.05-.07.988-1.532 2.346-4.816 1.36-3.285 1.898-8.56 2.08-10.77.18-2.207.058-5.625.03-7.41-.03-1.785-.393-5.445-.393-5.778 0-.332-.12-.303-.03-.635.09-.333.6-.703.805-.82.27-.157.658-.352 1.02-.534.36-.18 1-.337 1.3-.36.35-.03.497.184.725.527.174.26.368.645.57 1.08.348.75 1.067 2.058 1.8 2.708.448.398.97.857 1.415 1.03.73.28 1.786.453 3.322.483 1.536.03 3.017-.615 3.56-.858.54-.24 1.497-.926 1.708-1.047.21-.12 1.147-.866 1.782-1.416.65-.568 2.282-2.523 2.884-3.25.602-.724 1.875-2.636 2.567-3.795.692-1.16 1.824-2.947 2.365-3.885.446-.77.532-.98.663-1.247 0 0 .37.434.596.658.225.224.42.908.795 1.74.377.832 1.107 2.01 1.47 2.574.83 1.29 1.812 2.682 3.282 4.386 1.146 1.328 2.498 2.19 3.522 2.673 1.022.484 1.873.568 2.476.568.602 0 1.023-.06 1.625-.21.603-.15 1.566-.817 2.26-1.392.69-.575 1.81-2.11 1.81-2.11s.51.35 1.07.926c.48.493.855.993 1.255 1.46.377.44.78.905 1.228 1.366.397.408.737.688.995.9.544.447.802.62 1.518.77.715.153 1.206.133 1.713.043.474-.085 1.137-.304 1.527-.435.362-.12.882-.295 1.15-.486.38-.268.782-.76 1.055-1.21.37-.61 1.297-2.53 1.84-4.525.54-1.997.792-3.75.874-4.492.055-.496.123-.64.96-1.044.84-.402 1.328-.714 1.747-1.15.42-.434.772-1.203.742-1.444-.03-.243-1.375-.31-2.037-.4zm-80.804 7.157c-.12.355-.423 1.18-.567 1.44-.144.258-.87 1.616-1.16 2.005-.287.39-.66 1.07-.833 1.24-.36.36-.705.678-1.118.985-.23.172-.974.533-1.115.59-.41.172-1.046.364-2.07.395-1.023.03-2.04-.158-2.95-.58-1.176-.544-2.154-1.313-3.207-3.43C5.48 29.62 5.088 28.56 5.088 27.29c0-1.27.48-3.478.904-4.476.42-1 1.17-3.064 1.6-3.866.37-.69 1.016-1.697 1.59-2.245.176-.168.3-.333.54-.484.243-.153.393-.243.875-.696.48-.455.812-.485.933-.545.12-.062.36.06.48.03.266-.068.367.027.547.51.124.333 1.026 2.24 1.267 2.723.235.474.452.48.484.727.03.24.057.816.39 1.602.33.788 1.35 2.3 1.803 2.995.453.696 2.005 2.47 2.456 3.074.45.606.834.98.834 1.22 0 .243-.117.87-.236 1.233zm13.768 4.264c-.782.03-.842 0-1.234.12-.39.122-.868.305-.92.032-.053-.273.118-1.054.118-1.054s.208-.342.81-.554c.602-.21 1.19-.28 1.618-.535.43-.255 1.144-.968 1.144-.968s.328.61.298 1.184c-.03.576-.208.987-.48 1.228-.27.243-.57.514-1.354.545zm2.586 16.61c-.096.886-.504 3.054-.628 4.043-.125.99-.457 2.204-.695 2.728-.238.524-.456 1.31-.71 1.31-.254 0-.372-.357-.532-1.043-.16-.686-.127-1.18-.167-1.824-.04-.644.277-2.255.328-2.943.05-.687.57-3 .847-4.192.272-1.17.86-3.082 1.062-3.405.2-.323.362-1.245.53-1.303.14-.05.162 1.132.162 1.777 0 .646-.102 3.97-.196 4.854z" fill="#1A1918" mask="url(#b)"/></g></svg>