<svg width="62" height="61" xmlns="http://www.w3.org/2000/svg"><title>Imported Layers</title><g fill="#FFF" fill-rule="evenodd"><path d="M46.5 31.942h2.214v2.218H46.5v-2.218zM46.5 48.27h2.214v4.7H46.5v-4.7zm0-9.406h2.214v4.702H46.5v-4.702zM47.607 61h-2.214v-2.218H46.5v-1.11h2.214v2.22c0 .61-.495 1.108-1.107 1.108M36.043 58.782h4.675V61h-4.675v-2.218zm-9.35 0h4.676V61h-4.676v-2.218zm-9.35 0h4.677V61h-4.675v-2.218zm-9.347 0h4.674V61H7.996v-2.218zM3.32 61H1.108C.497 61 0 60.503 0 59.89v-2.217h2.214v1.11H3.32V61M0 48.308h2.214v4.682H0v-4.682zm0-9.367h2.214v4.684H0V38.94zm0-9.364h2.214v4.684H0v-4.684zm0-9.366h2.214v4.682H0V20.21zM2.214 15.527H0V13.31c0-.613.496-1.11 1.107-1.11H3.32v2.218H2.215v1.11M17.404 12.2H22.1v2.218h-4.696V12.2zm-9.388 0h4.694v2.218H8.016V12.2zM26.793 12.2h2.214v2.218h-2.214V12.2zM31.75 39.984c-.283 0-.566-.11-.782-.325l-8.633-8.65c-.432-.432-.432-1.134 0-1.568L44.133 7.607c.433-.433 1.134-.433 1.565 0l8.634 8.648c.21.208.325.49.325.784 0 .293-.116.576-.324.783L32.536 39.66c-.217.215-.5.324-.784.324zm-7.066-9.758l7.067 7.08L51.984 17.04l-7.068-7.08-20.23 20.266z"/><path d="M21.5 41.605c-.292 0-.574-.115-.783-.325-.25-.25-.367-.606-.31-.957l1.617-10.27c.066-.41.356-.752.752-.882.393-.126.83-.023 1.125.272l8.635 8.65c.293.294.397.728.27 1.125-.13.398-.47.688-.882.754l-10.25 1.622c-.058.01-.116.013-.173.013zm2.372-9.054l-1.042 6.613 6.6-1.045-5.558-5.567zM53.853 18.365c-.48 0-.922-.187-1.276-.542l-7.553-7.566c-.496-.498-.805-1.333-.824-2.235-.02-.988.294-1.86.887-2.452 1.217-1.22 3.14-1.416 4.14-.416l7.553 7.566c1.043 1.046.86 2.867-.415 4.147-.79.79-1.574 1.498-2.512 1.498zM47.533 6.7c-.205 0-.557.114-.88.438-.35.35-.26 1.32-.06 1.553l7.357 7.372c.187-.13.472-.385.85-.763.47-.47.47-.944.414-1.012L47.66 6.722c-.005-.004-.046-.022-.128-.022z"/><path d="M56.73 14.96c-.285 0-.568-.107-.784-.324l-8.632-8.648c-.432-.434-.432-1.135 0-1.568l2.947-2.954c1.585-1.586 4.365-1.587 5.95 0l4.25 4.257c1.64 1.644 1.64 4.316 0 5.96l-2.948 2.953c-.216.217-.5.325-.783.325zM49.66 5.205l7.067 7.08 2.164-2.17c.777-.778.777-2.044 0-2.823l-4.25-4.256c-.747-.75-2.07-.748-2.816 0l-2.166 2.17zM26.598 33.713l-1.566-1.568L46.83 10.31l1.565 1.568-21.797 21.835M29.836 36.956l-1.565-1.568 21.797-21.836 1.566 1.568-21.797 21.836M20.96 42.145c-.283 0-.566-.108-.782-.325-.433-.433-.433-1.134 0-1.568l.54-.54c.432-.434 1.13-.434 1.564 0 .433.433.433 1.135 0 1.568l-.54.54c-.216.217-.498.325-.782.325"/></g></svg>