<svg width="273" height="274" xmlns="http://www.w3.org/2000/svg"><title>Imported Layers</title><g fill="none" fill-rule="evenodd"><path d="M271.667 136.833c0 74.697-60.554 135.25-135.25 135.25-74.697 0-135.25-60.553-135.25-135.25 0-74.696 60.553-135.25 135.25-135.25 74.696 0 135.25 60.554 135.25 135.25" fill="#C9F0F2"/><path d="M231 233l-11 9.962L53 243l-12-11V56h190v177" fill="#FFF"/><path d="M50.5 65.5h22v21h-22v-21z" fill="#9ADBE2"/><path d="M51 66h21v20H51V66zm-1 21h23V65H50v22zM79 68h37v5H79v-5z" fill="#39C2D7"/><path d="M50 92h146v3H50v-3zM50 98h85v3H50v-3z" fill="#9ADBE2"/><path d="M43 111h186v85H43v-85zm-1 86h188v-87H42v87z" fill="#FFF"/><path d="M79 77h20v2H79v-2z" fill="#9ADBE2"/><path d="M138 155.5v-.5h-3.5v-3h3v3.5h.5v-.5.5h.5V151h-5v5h5v-.5h-.5" fill="#000"/><path d="M136 153.5L96 111H57l79 42.5" fill="#9ADBE2"/><path d="M42 139v-28h17l79 43.5L42 139" fill="#C9F0F2"/><path d="M136 153.5L42 179v-41l94 15.5" fill="#9ADBE2"/><path d="M136 153.5L42 178v18h32l62-42.5" fill="#C9F0F2"/><path d="M135 154l-61 42h55l6-42" fill="#9ADBE2"/><path d="M176 196h-47l5-44 42 44" fill="#C9F0F2"/><path d="M135 153l95 18v25h-55l-40-43" fill="#9ADBE2"/><path d="M135 153l50-42h45v18l-95 24" fill="#C9F0F2"/><path d="M135 153l6-42h45l-51 42" fill="#9ADBE2"/><path d="M136 153l5-42H94l42 42" fill="#C9F0F2"/><path d="M54 85.5c0 .514-.098.015 0 .5h14.7c.097-.485.3.014.3-.5 0-2.918-1.67-5.44-4.103-6.68C66.177 77.813 67 76.254 67 74.5c0-3.038-2.463-5.5-5.5-5.5-3.038 0-5.5 2.462-5.5 5.5 0 1.754.824 3.313 2.103 4.32C55.67 80.06 54 82.582 54 85.5" fill="#D7F3F4"/><path d="M135 153l95-35v31l-95 4" fill="#9ADBE2"/><path d="M135 153l95-5v23l-95-18" fill="#C9F0F2"/><path d="M229 57v176.107l-8.765 7.856-167.462.035L43 232.115V57h186m2-2H41v178l11 9.998 169-.035L231 234V55" fill="#39C2D7"/><path d="M243 219c16.75-22.518 27-50.422 27-80.644 0-30.222-10.25-58.838-27-81.356v162" fill="#9ADBE2"/><path d="M204.58 20C184.564 8.297 161.276 1.583 136.417 1.583c-24.86 0-48.148 6.714-68.164 18.417H204.58" fill="#FFF"/><path d="M204.58 20l.252-.432c-20.09-11.746-43.466-18.485-68.415-18.485-24.95 0-48.327 6.74-68.416 18.485l-1.592.932h140.018l-1.594-.932-.252.432v-.5H68.253v.5l.253.432c19.942-11.66 43.142-18.35 67.91-18.35 24.77 0 47.97 6.69 67.912 18.35l.252-.432v-.5.5" fill="#39C2D7"/><path d="M237.512 47c-9.46-10.638-20.57-19.772-32.932-27H68.253C55.89 27.228 44.78 36.362 35.32 47h202.192" fill="#79CFD3"/><path d="M237.512 47l.748-.665c-9.53-10.715-20.72-19.916-33.175-27.198L204.85 19H67.983l-.233.137C55.293 26.42 44.102 35.62 34.573 46.335L33.094 48H239.74l-1.48-1.665-.748.665v-1H35.322v1l.746.664c9.39-10.56 20.42-19.626 32.69-26.8L68.253 20v1H204.58v-1l-.505.863c12.272 7.175 23.3 16.242 32.69 26.8l.747-.663v-1 1" fill="#39C2D7"/><path d="M104 39l-.042-10.958L56 28c-4.115 3.08-9.266 7.48-13 11h61" fill="#FFF"/><path d="M142 29h8v8h-8v-8z" fill="#9ADBE2"/><path d="M153 32h12v2h-12v-2zM169 32h12v2h-12v-2zM185 32h12v2h-12v-2z" fill="#FFF"/><path d="M50 202.187h108V207H50v-4.813z" fill="#39C2D7"/><path d="M50 211h146v3H50v-3zM50 217h85v3H50v-3zM62 228h19v3H62v-3zM52.323 231.643c0 .195-.162.357-.357.357h-1.61c-.194 0-.356-.162-.356-.357v-3.575c0-.195.162-.357.357-.357h1.61c.194 0 .356.163.356.358v3.575zm-1.25-1.073c-.202 0-.358.162-.358.358 0 .2.156.357.357.357.196 0 .358-.156.358-.357 0-.196-.162-.358-.358-.358zm7.555-1.67c.062.18.084.347.084.425.012.28-.072.54-.24.765.06.207.06.43 0 .653-.056.207-.162.392-.3.526.032.417-.063.758-.275 1.01-.24.284-.61.43-1.1.435h-.72c-.8 0-1.554-.263-2.156-.47-.352-.122-.687-.24-.882-.245-.19-.006-.357-.162-.357-.357v-3.58c0-.184.157-.34.342-.358.205-.017.742-.68.988-1.005.2-.257.39-.497.564-.67.218-.218.28-.553.346-.877.06-.33.13-.676.37-.91.066-.067.155-.106.25-.106 1.25 0 1.25 1 1.25 1.43 0 .457-.16.782-.312 1.072-.06.122-.117.177-.162.356h1.547c.58 0 1.072.49 1.072 1.072 0 .296-.117.615-.307.832zM103 228h19v3h-19v-3zM96.004 232c-.274 0-.547-.017-.81-.045-.73.648-1.602 1.106-2.57 1.352-.2.055-.418.094-.636.123-.123.01-.24-.078-.267-.212v-.006c-.028-.14.067-.224.15-.324.353-.397.755-.732 1.018-1.664-1.15-.654-1.888-1.664-1.888-2.798 0-1.972 2.24-3.574 5.004-3.574 2.765 0 5.004 1.597 5.004 3.574 0 1.976-2.24 3.574-5.004 3.574M145 228h19v3h-19v-3zM142.9 227.247l-2.858 2.86c-.066.067-.156.106-.25.106-.196 0-.358-.162-.358-.358v-1.43h-1.25c-2.41 0-3.99.465-3.99 3.128 0 .23.012.458.03.687.005.09.027.19.027.28 0 .105-.066.195-.178.195-.078 0-.117-.04-.156-.095-.084-.117-.145-.296-.207-.425-.32-.715-.71-1.736-.71-2.518 0-.626.06-1.268.296-1.86.776-1.926 3.055-2.25 4.887-2.25h1.25v-1.43c0-.196.163-.358.358-.358.096 0 .186.038.252.106l2.86 2.86c.067.065.106.155.106.25s-.04.185-.107.25" fill="#9ADBE2"/><path d="M271.667 136.833h-1c0 37.076-15.025 70.632-39.32 94.93-24.3 24.295-57.855 39.32-94.93 39.32-37.076 0-70.632-15.025-94.93-39.32-24.296-24.298-39.32-57.854-39.32-94.93 0-37.075 15.024-70.63 39.32-94.93 24.298-24.295 57.854-39.32 94.93-39.32 37.075 0 70.63 15.025 94.93 39.32 24.295 24.3 39.32 57.855 39.32 94.93h2c0-75.25-61-136.25-136.25-136.25S.167 61.583.167 136.833s61 136.25 136.25 136.25 136.25-61 136.25-136.25h-1" fill="#39C2D7"/><path d="M205.705 253H67.128c20.266 12.115 43.962 19.083 69.29 19.083 25.325 0 49.022-6.968 69.287-19.082" fill="#FFF"/><path d="M205.705 253v-1h-142.2l3.11 1.86c20.415 12.203 44.29 19.224 69.802 19.223 25.51 0 49.387-7.02 69.8-19.223l3.11-1.86h-3.622v1l-.513-.857c-20.116 12.024-43.633 18.94-68.775 18.94-25.143 0-48.66-6.916-68.776-18.94l-.512.858v1h138.577v-1l-.513-.857.513.858" fill="#39C2D7"/><path d="M136.092 154.192l.647.678-.628-.675-.02-.003M135 152h-.412l.482.512.055-.387L135 152m-7-7l5.647 6H134l-6-6" fill="#BEECF2"/><path d="M134 151h-.353l.94 1H135l-1-1" fill="#134047"/><path d="M117.578 134.578l-4.382 2.53c-1.038.6-1.947 1.362-2.703 2.246l23.475 12.926.032-.28.598.627.422.232.05-.348-7.07-7.51-10.422-10.424" fill="#7AD3DE"/><path d="M135.673 153.724l-.017.01.436.458.02.003-.44-.47m-1.074-1.098l.728.762.042.006L135 153l.42.08-.42-.08.02-.14-.422-.233m-24.105-13.273c-1.585 1.854-2.493 4.24-2.493 6.753v2.776l25.87 4.266.098-.87-23.475-12.926" fill="#9AE1E9"/><path d="M135.326 153.39l.22.228.023-.006-.202-.216-.042-.007M108 148.882v11.915l25.763-6.715.106-.934-25.87-4.267" fill="#7AD3DE"/><path d="M133.763 154.083L108 160.798v4.31c0 2.234.717 4.365 1.988 6.113l23.68-16.303.095-.834m1.806-.47l-.025.005.11.117.018-.01-.104-.113" fill="#9AE1E9"/><path d="M133.67 154.917l-23.682 16.304c.842 1.16 1.927 2.148 3.208 2.887l16.455 9.5c.235.136.474.26.715.377l3.304-29.067" fill="#7AD3DE"/><path d="M134 152l-3.635 31.984c1.417.677 2.95 1.016 4.482 1.016 1.794 0 3.588-.464 5.196-1.392l15.243-8.8-18.547-19.938-1.084-1.135-.11-.117L134 152" fill="#9AE1E9"/><path d="M135 153l.57.612.103.112 19.613 21.083 1.212-.7c3.215-1.856 5.195-5.286 5.195-9v-7.05l-26.272-4.977-.42-.08" fill="#7AD3DE"/><path d="M135.548 152.548L135 153l.73-.27-.182-.182m19.657-16.187l-19.096 15.727-.064.528 25.263-9.308c-.723-2.58-2.428-4.823-4.812-6.2l-1.293-.746" fill="#9AE1E9"/><path d="M135.125 152.125L135 153l.548-.452-.423-.423m3.956-25.008l-2.97 24.97 19.095-15.726-15.162-8.753c-.314-.18-.635-.344-.962-.49" fill="#7AD3DE"/><path d="M134.847 126.215c-1.794 0-3.59.464-5.196 1.392l-12.072 6.97 18.153 18.154.316-.115 3.035-25.498c-1.345-.6-2.79-.902-4.233-.902" fill="#9AE1E9"/><path d="M161.31 143.307l-25.264 9.308-.315.116-.73.27 26.693-1.405v-5.488c0-.96-.132-1.9-.384-2.8" fill="#7AD3DE"/><path d="M161.693 151.595L135 153l.42.08 26.273 4.978v-6.463" fill="#9AE1E9"/><path d="M135.02 180.108c-1.735 0-3.445-.46-4.947-1.326l-16.455-9.5c-3.05-1.76-4.946-5.044-4.946-8.567v-19c0-3.523 1.895-6.805 4.946-8.567l16.455-9.5c1.502-.867 3.212-1.325 4.947-1.325 1.733 0 3.444.458 4.945 1.325l16.455 9.5c3.05 1.762 4.946 5.044 4.946 8.567v19c0 3.523-1.895 6.806-4.946 8.567l-16.455 9.5c-1.502.867-3.212 1.326-4.945 1.326" fill="#FFF"/><path d="M135.02 122.823c1.646 0 3.27.435 4.695 1.258l16.455 9.5c2.897 1.674 4.696 4.79 4.696 8.135v19c0 3.345-1.8 6.462-4.696 8.134l-16.455 9.5c-1.426.822-3.05 1.258-4.696 1.258-1.647 0-3.27-.436-4.697-1.26l-16.455-9.5c-2.896-1.67-4.696-4.788-4.696-8.132v-19c0-3.346 1.8-6.462 4.696-8.135l16.455-9.5c1.426-.822 3.05-1.257 4.696-1.257m0-1c-1.795 0-3.59.464-5.197 1.392l-16.455 9.5c-3.215 1.857-5.195 5.287-5.195 9v19c0 3.713 1.98 7.144 5.195 9l16.455 9.5c1.608.93 3.402 1.393 5.196 1.393 1.793 0 3.587-.464 5.195-1.393l16.455-9.5c3.215-1.856 5.196-5.287 5.196-9v-19c0-3.713-1.98-7.143-5.196-9l-16.455-9.5c-1.608-.928-3.402-1.392-5.196-1.392" fill="#39C2D7"/><path d="M153 149.215c0 9.94-8.06 18-18 18s-18-8.06-18-18 8.06-18 18-18 18 8.06 18 18" fill="#C9F0F2"/><path d="M135 158.215c-5.683 0-9.5-2.068-9.5-4v-9.5h19v9.5c0 1.932-3.817 4-9.5 4" fill="#79CFD3"/><path d="M144 145.215v9c0 1.652-3.85 3.5-9 3.5s-9-1.848-9-3.5v-9h18m1-1h-20v10c0 2.485 4.477 4.5 10 4.5s10-2.015 10-4.5v-10" fill="#39C2D7"/><path d="M116.925 144.215L135 138.738l18.075 5.477L135 149.693l-18.075-5.478" fill="#9ADBE2"/><path d="M135 139.26l16.35 4.955L135 149.17l-16.35-4.955L135 139.26m0-1.045l-19.8 6 19.8 6 19.8-6-19.8-6" fill="#39C2D7"/><path d="M117 144.215h1v8h-1v-8zM120 160.215h-5l2-7h1l2 7" fill="#39C2D7"/><path d="M97.425 180.715l4.324-3.458-4.543-4.542H112.5v8H97.425" fill="#9ADBE2"/><path d="M112 173.215v7H98.85l3.647-2.917-4.083-4.083H112m1-1H96l5 5-5 4h17v-9" fill="#39C2D7"/><path d="M106.5 175.715h6v4.5l-6-4.5" fill="#79CFD3"/><path d="M112 176.215v3l-4-3h4m1-1h-8l8 6v-6" fill="#39C2D7"/><path d="M157.5 180.715v-8h15.293l-4.542 4.542 4.324 3.458H157.5" fill="#9ADBE2"/><path d="M171.586 173.215l-4.083 4.083 3.646 2.917H158v-7h13.586m2.414-1h-17v9h17l-5-4 5-5" fill="#39C2D7"/><path d="M157.5 175.715h6l-6 4.5v-4.5" fill="#79CFD3"/><path d="M162 176.215l-4 3v-3h4m3-1h-8v6l8-6" fill="#39C2D7"/><path d="M105.5 167.715h59v8h-59v-8z" fill="#9ADBE2"/><path d="M106 168.215h58v7h-58v-7zm-1 8h60v-9h-60v9z" fill="#39C2D7"/><path d="M110 170.215h12v2h-12v-2zM124 170.215h20v2h-20v-2zM146 170.215h14v2h-14v-2z" fill="#C9F0F2"/></g></svg>