<svg width="274" height="275" xmlns="http://www.w3.org/2000/svg"><title>Imported Layers</title><g fill="none" fill-rule="evenodd"><path d="M272.1 138.683c0 74.697-60.553 135.25-135.25 135.25-74.696 0-135.25-60.553-135.25-135.25 0-74.696 60.554-135.25 135.25-135.25 74.697 0 135.25 60.554 135.25 135.25" fill="#E2AFCF"/><path d="M272.1 138.683h-1c0 37.075-15.025 70.632-39.32 94.93-24.3 24.295-57.855 39.32-94.93 39.32-37.075 0-70.63-15.025-94.93-39.32-24.295-24.298-39.32-57.855-39.32-94.93 0-37.075 15.025-70.63 39.32-94.93 24.3-24.295 57.855-39.32 94.93-39.32 37.075 0 70.63 15.025 94.93 39.32 24.295 24.3 39.32 57.855 39.32 94.93h2c0-75.25-61-136.25-136.25-136.25S.6 63.433.6 138.683s61 136.25 136.25 136.25 136.25-61 136.25-136.25h-1" fill="#E20177"/><path d="M46.956 164.654c-.208.08-.422.14-.638.178l-1.042.4.023.057 1.656-.636m4.858-1.927l-1.34.513c-.37.23-.786.39-1.23.47l-1.69.648c-.188.117-.386.215-.59.293l4.872-1.864-.022-.06m5.268-3.02l-.358-.933.358.934.934-.358-.934.357m-13.012-36.78l-30.82 11.8 14.305 37.356 15.876-6.08-.714-1.867-14.01 5.364-12.87-33.62 27.08-10.37 12.874 33.62-2.802 1.073.716 1.868 4.67-1.787-14.304-37.355" fill="#E295C2"/><path d="M49.244 163.71c-.2.038-.407.057-.618.058-.112 0-.224-.006-.336-.016-.22.24-.47.442-.735.606l1.69-.647m-2.617-1.138l-.806.308c.292-.026.57-.125.806-.308m1.434-.55l-.758.29.565.34.192-.63m1.484-.568l-.808.31c.296-.023.575-.133.808-.31m6.8 10.313l.934-.357-.934.357m-3.38-11.623l-.806.31c-.08 1.182-.736 2.2-1.685 2.786l1.34-.513.02.06 2.604 6.796-2.113-1.156-.768 3.284-2.794-1.89-.847 2.314-2.62-6.845-.024-.06 1.042-.398c-.204.037-.41.055-.615.055h-.038c-.883 0-1.784-.343-2.46-1.004l-.51.195 5.267 13.76 1.803-4.927 3.08 2.087.83-3.552 4.578 2.507-5.265-13.75-.022-.058" fill="#E295C2"/><path d="M43.72 151.82h1-1m.858.517c.312-.512.8-.744 1.326-.75.554.006 1.072.266 1.37.824l.884-.47h-1 1l.24.972c.135-.034.264-.048.387-.048.417 0 .8.172 1.085.458.285.287.456.672.455 1.084 0 .148-.02.302-.07.465l-.045.144v.715l.484.29c.513.312.745.8.75 1.326-.006.555-.266 1.072-.823 1.37l-.53.283v.723l.03.118c.033.135.048.264.048.387 0 .418-.172.8-.46 1.085-.05.05-.105.1-.162.142-.233.177-.512.287-.808.31-.037.002-.075.004-.112.004-.15 0-.303-.022-.464-.072l-.293.957-.566-.34-.292-.176c-.11.178-.24.322-.384.435-.236.183-.514.282-.806.308-.045.004-.09.007-.137.007-.554-.006-1.07-.266-1.37-.823l-.883.47-.24-.972c-.136.034-.264.048-.388.048-.418 0-.8-.172-1.085-.458-.286-.287-.457-.672-.457-1.084 0-.148.022-.3.072-.463l.044-.144v-.714l-.485-.292c-.512-.312-.744-.802-.75-1.326.006-.555.266-1.072.823-1.37l.53-.283v-.724l-.03-.117c-.032-.135-.047-.263-.047-.386 0-.418.173-.8.46-1.085.287-.285.672-.456 1.083-.456.15 0 .303.022.466.072l.29-.957h-1 2-1 1-1l.858.517m1.344-2.75h-.035c-.937 0-1.896.385-2.587 1.136-.113-.01-.225-.017-.337-.017-1.94.008-3.532 1.578-3.542 3.54 0 .05.002.1.004.148-.846.7-1.285 1.728-1.28 2.734-.004.94.38 1.908 1.136 2.604-.01.112-.017.225-.016.336.007 1.94 1.577 3.533 3.54 3.542.05 0 .098 0 .147-.003.082.097.166.19.255.276.676.66 1.577 1.004 2.46 1.004h.038c.205 0 .41-.018.615-.055.216-.04.43-.098.638-.178l.01-.003c.202-.077.4-.175.59-.292.265-.164.513-.367.734-.606.112.01.224.016.336.016.21 0 .417-.02.618-.057.444-.08.86-.24 1.23-.47.95-.585 1.606-1.604 1.686-2.787.005-.075.007-.15.008-.226 0-.05 0-.098-.003-.147.846-.7 1.285-1.728 1.28-2.734.004-.94-.38-1.908-1.136-2.604.01-.113.015-.225.015-.336-.007-1.94-1.577-3.533-3.54-3.542-.05 0-.098 0-.147.003-.695-.84-1.716-1.28-2.716-1.28" fill="#E295C2"/><path d="M45.945 158.137c-.335 0-.653-.203-.778-.535-.04-.1-.056-.2-.056-.298.002-.334.204-.652.537-.778.1-.038.2-.055.297-.055.334.002.652.203.778.536.038.1.055.2.056.298 0 .334-.204.652-.536.778-.1.038-.2.055-.297.055m.777-1.13l1.868-.716-1.868.716m-.776-2.536h-.002c-.338 0-.682.062-1.012.188-1.128.433-1.822 1.506-1.82 2.646 0 .338.06.682.187 1.013.43 1.126 1.503 1.82 2.64 1.82h.007c.337 0 .68-.06 1.01-.188 1.127-.434 1.82-1.506 1.82-2.646 0-.337-.06-.682-.187-1.013-.433-1.125-1.504-1.82-2.644-1.82M41.765 128.093l-23.347 8.94 1.073 2.802 23.347-8.94-1.072-2.802M37.95 134.908l-17.744 6.794.357.934 17.744-6.794-.357-.934M32.485 140.213l-11.206 4.29.356.935 11.206-4.29-.357-.935M41.963 139.796l-19.612 7.51.36.934 19.61-7.51-.357-.934M34.63 145.816l-11.206 4.29.357.935 11.208-4.29-.357-.934M42.24 146.115l-17.743 6.794.357.933 17.744-6.794-.358-.935M36.776 151.42l-11.207 4.29.357.934 11.206-4.29-.357-.934M33.18 156.01l-6.538 2.502.358.934 6.537-2.503-.358-.934M220.323 214.706l-.017.06.828.234h.23l-1.04-.294m-7.436-43.597l-10.867 38.494 16.362 4.62.543-1.926-14.436-4.075 9.78-34.646 27.91 7.88L232.71 215h2.078l9.86-34.925-31.76-8.966" fill="#E295C2"/><path d="M228.698 214.993l-.007.007h.035l-.027-.007m-3.528-.997c.248.16.53.233.823.236h.01l-.833-.236m-1.477-.416l.25.61.53-.39-.78-.22m-1.53-.433c.24.15.52.236.806.236h.025l-.833-.236m-3.22-.91l-.017.06-.763 2.703h2.078l.083-.294 1.04.294h.017c-.33-.166-.63-.382-.89-.638-.526-.512-.9-1.2-1.022-1.975l-.526-.15" fill="#E295C2"/><path d="M227.093 203.028h1-1m-3.485.907c.136-.322.34-.547.59-.707.25-.16.547-.243.845-.243.474.005.918.195 1.244.634l.806-.592h-1 2-1 1-1l.38.925c.203-.083.4-.118.59-.12h.003c.403 0 .792.17 1.08.45.287.285.462.66.463 1.092l-.02.25-.012.075v.74l.613.258c.323.137.548.34.708.59.16.25.243.547.243.846-.004.474-.194.918-.633 1.244l-.408.3v.703l.073.182c.083.205.12.4.12.59 0 .405-.17.796-.45 1.085-.285.288-.66.462-1.092.463l-.247-.02-1.153-.177v.94c-.132.237-.306.414-.512.546-.246.156-.54.24-.834.242h-.01c-.294-.003-.576-.077-.824-.236-.155-.098-.297-.23-.42-.398l-.808.592-.378-.926c-.197.08-.386.116-.57.12H222.97c-.287 0-.567-.086-.808-.237-.098-.06-.19-.133-.273-.214-.29-.284-.463-.66-.464-1.09l.02-.247.01-.078v-.742l-.612-.257c-.32-.138-.547-.342-.707-.59-.16-.25-.243-.55-.243-.847.005-.474.195-.918.634-1.243l.41-.3v-.704l-.076-.18c-.083-.207-.12-.403-.12-.593 0-.404.17-.795.45-1.083.285-.288.66-.462 1.092-.463l.25.02.152-.99h-1 1l.922.388m1.45-2.95h-.015c-.67 0-1.337.186-1.917.554-.39.245-.74.577-1.015.98-.925.046-1.753.453-2.346 1.06-.632.646-1.02 1.528-1.02 2.483 0 .215.02.433.06.65-.61.674-.914 1.535-.91 2.37 0 .67.187 1.337.554 1.917.246.39.578.74.982 1.015.006.126.02.25.038.372.12.775.496 1.463 1.022 1.975.26.256.56.472.89.638h7.31c.004-.002.006-.005.008-.007.08-.095.156-.194.227-.297.925-.045 1.753-.452 2.346-1.06.633-.645 1.02-1.527 1.022-2.483 0-.214-.02-.432-.06-.65.61-.673.913-1.534.91-2.37 0-.67-.187-1.336-.555-1.916-.246-.39-.578-.74-.982-1.016-.045-.924-.452-1.752-1.06-2.345-.645-.63-1.527-1.02-2.482-1.02-.215 0-.432.02-.65.06-.67-.606-1.524-.91-2.354-.91" fill="#E295C2"/><path d="M225.6 209.585l-.228-.032c-.368-.102-.607-.44-.608-.8l.032-.225v-.003c.102-.367.44-.606.8-.607l.228.032c.367.102.606.44.607.8l-.03.23v-.002c-.102.367-.44.606-.8.607m-.003-3.667c-1.24 0-2.37.816-2.726 2.064l.002-.003c-.073.257-.108.518-.108.772 0 1.24.816 2.37 2.064 2.726.255.072.515.107.77.107 1.24 0 2.372-.816 2.726-2.064.072-.254.107-.514.107-.77.002-1.238-.814-2.37-2.062-2.725-.256-.072-.516-.107-.77-.107M215.65 176.045l-.814 2.887 24.06 6.793.815-2.888-24.06-6.792M214.293 180.857l-.272.963 18.287 5.162.27-.962-18.284-5.163M213.478 183.744l-.272.963 11.55 3.26.27-.962-11.548-3.26M212.663 186.632l-.272.962 20.21 5.705.273-.963-20.21-5.705M211.848 189.52l-.272.96 11.55 3.262.27-.963-11.548-3.26M211.033 192.406l-.272.962 18.286 5.162.272-.962-18.285-5.162M210.218 195.293l-.272.962 11.548 3.26.272-.962-11.548-3.26M209.402 198.18l-.27.963 6.736 1.9.27-.96-6.736-1.903" fill="#E295C2"/><path d="M127.03.363l-1.602.133c-12.878 1.07-25.248 3.93-36.86 8.333l-.413.155-1.12 2.843c.837-.33 1.683-.653 2.53-.966l.125-.32c10.836-4.066 22.336-6.772 34.295-7.91l-.164.416c.74-.07 1.485-.135 2.228-.193l.983-2.492" fill="#FBD9EC"/><path d="M88.573 13.375c-.854.33-1.703.666-2.55 1.013l-.435 1.105 15.814 6.238.734-1.86-13.954-5.504.39-.99m36.658-8.447c-.747.063-1.49.133-2.234.21l-7.837 19.868-2.792-1.1-.734 1.86 4.652 1.834L125.23 4.93" fill="#E295C2"/><path d="M89.564 10.862c-.846.313-1.692.636-2.53.966l-1.01 2.56c.846-.347 1.695-.684 2.55-1.013l.99-2.513m36.484-8.007c-.743.058-1.487.123-2.227.193l-.824 2.09c.743-.075 1.487-.145 2.234-.21l.818-2.073" fill="#E20177"/><path d="M103.285 22.407l-.023.058 6.512 2.57.023-.06-1.33-.525c-.43-.082-.85-.244-1.232-.485l-1.684-.665c-.442-.084-.857-.25-1.226-.483l-1.04-.41" fill="#E295C2"/><path d="M105.55 23.3l1.685.665c-.265-.168-.51-.373-.73-.615-.1.01-.2.013-.3.013-.224 0-.443-.022-.654-.063m2.63-1.113c.233.185.51.288.8.316l-.8-.316m-2.908-1.147c.23.18.51.293.805.318l-.805-.318m-3.113-1.228L96.75 33.518l4.656-2.416.864 3.618 3.01-2.058 1.684 4.94 5.425-13.753-.8-.318c-.676.646-1.565.98-2.437.98H109.117c-.217 0-.435-.02-.65-.062l1.33.525-.023.06-2.67 6.768-.777-2.278-2.785 1.903-.783-3.28-2.187 1.135 2.712-6.876 1.04.41c-.943-.595-1.59-1.62-1.657-2.804l-.51-.2" fill="#E295C2"/><path d="M111.194 11.466h1-1m-3.933 1.24l.375-.687c.3-.55.813-.804 1.362-.81.457.005.888.182 1.197.565v1.03l1.283-.38c.157-.046.306-.066.45-.066.414 0 .797.17 1.084.455.287.286.46.668.46 1.084 0 .128-.017.26-.053.4l-.032.124v.722l.522.284c.55.3.803.813.81 1.362-.007.53-.244 1.025-.764 1.335l-.673.396.22.75c.047.156.068.305.068.45 0 .412-.17.796-.456 1.083-.287.286-.67.458-1.085.458-.128 0-.26-.016-.4-.052l-.757-.196-.373.686c-.3.55-.813.804-1.363.81-.05 0-.102-.004-.153-.01-.29-.027-.567-.13-.8-.315-.145-.114-.274-.26-.38-.438l-.397-.675-.748.22c-.158.048-.307.068-.45.068h-.002c-.043 0-.085-.002-.126-.005-.296-.025-.574-.14-.805-.318-.053-.04-.104-.085-.152-.133-.286-.286-.458-.668-.458-1.085 0-.128.016-.26.052-.4l.198-.756-.688-.374c-.548-.3-.803-.813-.81-1.362.007-.53.243-1.025.765-1.335l.492-.29v-.717l-.042-.14c-.046-.156-.067-.305-.067-.45 0-.41.17-.795.456-1.082.286-.286.668-.458 1.084-.458.128 0 .26.016.402.052l.755.196m1.72-3.496c-.99 0-2 .428-2.693 1.253-.06-.004-.122-.005-.183-.005-1.958.01-3.532 1.597-3.54 3.54 0 .1.004.202.013.303-.773.698-1.167 1.676-1.162 2.63-.006.993.423 2.01 1.252 2.71-.003.06-.005.122-.005.182 0 .064.003.128.006.19.068 1.185.714 2.21 1.656 2.805.37.232.784.4 1.227.483.212.04.43.062.654.063.1 0 .2-.004.3-.013.22.242.466.447.73.615.383.24.802.403 1.232.485.216.04.434.062.65.062h.038c.87 0 1.76-.334 2.435-.98.088-.085.173-.176.255-.273.06.003.12.004.178.004h.004c1.958-.01 3.532-1.597 3.54-3.542 0-.1-.004-.2-.012-.3.772-.698 1.166-1.676 1.16-2.63.007-.994-.42-2.01-1.25-2.71.002-.06.004-.122.004-.183-.01-1.96-1.598-3.533-3.543-3.54-.1 0-.2.003-.3.012-.694-.768-1.664-1.162-2.612-1.162h-.036" fill="#E295C2"/><path d="M109.13 17.845c-.1 0-.202-.02-.304-.06-.33-.127-.527-.442-.528-.774 0-.1.018-.2.058-.303.13-.33.444-.528.775-.53.102 0 .203.02.307.06.328.128.526.443.527.775 0 .1-.018.202-.058.305-.128.328-.444.527-.775.528m0-3.667c-1.128 0-2.194.68-2.634 1.794-.134.338-.2.693-.198 1.04 0 1.128.68 2.194 1.794 2.635.337.133.69.198 1.036.198h.006c1.128 0 2.192-.682 2.632-1.794.134-.338.198-.69.198-1.038 0-1.13-.68-2.195-1.794-2.636-.338-.134-.692-.198-1.04-.198" fill="#E295C2"/><path d="M240.14 49.826c2.622 3.043 5.107 6.2 7.454 9.47l.756.47 1.875 2.75-.578-.283c3.035 4.47 5.808 9.124 8.305 13.952l.61-1.218-.23-.45c-4.127-8.106-9.044-15.74-14.646-22.81l-.137-.173-3.41-1.708" fill="#FBD9EC"/><path d="M246.565 96.67l.448-.893-.448.894m9.14-20.467L246.12 95.33l-2.683-1.345-.896 1.788 4.47 2.24 9.83-19.61c-.372-.736-.75-1.47-1.134-2.2m-20.3-28.68L217.51 83.226l15.197 7.617.896-1.788-13.41-6.72 16.132-32.184 2.56 1.284c-1.135-1.327-2.295-2.63-3.48-3.91" fill="#E295C2"/><path d="M248.473 61.66c.788 1.177 1.557 2.365 2.308 3.567l1.182.592-.366.728c1.673 2.747 3.25 5.557 4.725 8.428l-.614 1.227c.384.73.762 1.464 1.133 2.2l1.112-2.218c-2.497-4.828-5.27-9.482-8.305-13.952l-1.174-.572m-13.04-14.194l-.028.057c1.185 1.28 2.345 2.584 3.48 3.91l3.37 1.69c1.38 1.748 2.72 3.53 4.013 5.346l1.326.825c-2.347-3.268-4.832-6.426-7.453-9.47l-4.707-2.36" fill="#E20177"/><path d="M238.886 93.94l1.867.937.028-.056-1.282-.642c-.21-.06-.414-.14-.612-.237m-4.363-2.256l-.028.056 4.373 2.192c-.08-.04-.158-.084-.235-.13-.11-.066-.216-.14-.318-.218l-1.61-.806c-.434-.123-.835-.328-1.183-.593l-1-.5" fill="#E295C2"/><path d="M236.706 92.778l1.61.806c-.248-.19-.474-.415-.67-.674-.325 0-.64-.047-.94-.132m2.71-.878c.08.073.163.136.252.19.16.097.338.164.523.198l-.773-.388m-1.372-.688l.13.646.595-.283-.725-.363m-1.423-.713c.216.2.48.335.774.387l-.774-.388m-2.99-1.5l-6.603 13.17 4.85-1.99.54 3.68 3.182-1.784 1.238 5.07 6.597-13.16.028-.057-.77-.388c-.642.513-1.428.772-2.196.772h-.018c-.332 0-.663-.045-.984-.136l1.283.643-.027.057-3.262 6.506-.57-2.34-2.943 1.65-.488-3.337-2.28.936 3.313-6.608 1 .5c-.134-.1-.26-.212-.376-.33-.633-.642-1.03-1.526-1.03-2.488 0-.04 0-.08.003-.12l-.49-.246" fill="#E295C2"/><path d="M243.372 81.49l.903-.43-.903.43m-4.027.885l.432-.65c.32-.476.787-.687 1.287-.692h.002c.285 0 .57.077.81.224.244.148.447.36.592.66l.335.707.766-.154c.11-.022.216-.032.318-.032.424 0 .802.173 1.087.46.284.288.453.676.453 1.083 0 .17-.028.346-.094.53l.91.324.002.056-.524.788c.476.32.686.787.692 1.287 0 .286-.078.57-.224.813-.15.243-.36.446-.662.59l-.57.272v.73l.02.1c.02.11.03.216.03.32 0 .423-.173.8-.46 1.086-.287.283-.674.452-1.08.452h-.003c-.17 0-.345-.028-.528-.093l-.736-.263-.43.65c-.32.477-.788.687-1.288.692h-.002c-.097 0-.193-.008-.29-.026-.184-.034-.362-.1-.522-.198-.09-.054-.173-.117-.25-.19-.134-.125-.25-.28-.34-.47l-.308.145-.596.283-.197-.98c-.11.02-.217.032-.32.032-.09 0-.176-.008-.26-.023-.295-.052-.56-.188-.775-.388l-.05-.05c-.285-.29-.455-.677-.454-1.084 0-.17.028-.344.093-.528l.06-.163v-.71l-.446-.296c-.476-.32-.687-.788-.692-1.287 0-.287.077-.572.224-.814.148-.244.36-.447.662-.59l.57-.273v-.73l-.02-.1c-.02-.11-.03-.216-.03-.32 0-.423.172-.8.46-1.086.287-.282.675-.452 1.083-.45.17 0 .345.027.53.092l.735.263m1.702-3.342c-.884 0-1.79.343-2.474 1.02-.164-.023-.328-.034-.49-.034h-.002c-.962 0-1.846.394-2.487 1.028-.64.63-1.054 1.518-1.056 2.5-.367.276-.668.614-.892.986-.342.566-.513 1.207-.513 1.85-.005.887.34 1.802 1.02 2.49-.017.123-.028.247-.032.37-.002.04-.002.082-.002.122 0 .962.396 1.846 1.03 2.488.115.118.24.23.374.33.348.266.75.47 1.184.594.3.085.615.13.94.132.196.26.422.485.67.674.1.08.208.152.317.218.077.046.155.09.235.13l.018.01c.198.097.403.176.612.236.32.09.652.136.984.136h.017c.767 0 1.553-.26 2.194-.772.096-.077.19-.16.28-.248.164.023.328.034.49.034.963 0 1.847-.395 2.49-1.03.64-.628 1.052-1.517 1.055-2.5.366-.275.667-.613.89-.985.343-.566.514-1.206.514-1.848.004-.89-.34-1.804-1.02-2.49.022-.166.034-.33.033-.494 0-.96-.395-1.845-1.028-2.487-.63-.64-1.52-1.053-2.5-1.056-.278-.367-.616-.668-.988-.892-.566-.34-1.206-.512-1.848-.512h-.017" fill="#E295C2"/><path d="M240.823 87.662c-.125 0-.25-.027-.37-.088-.294-.146-.46-.44-.462-.746.002-.126.03-.25.09-.37v-.002c.146-.293.44-.46.746-.46.125 0 .25.027.372.09.292.144.458.437.46.745 0 .126-.028.25-.09.373-.145.292-.438.458-.745.46m0-3.667c-1.036 0-2.034.575-2.53 1.564-.204.404-.302.84-.302 1.268 0 1.036.575 2.037 1.565 2.534.404.202.84.3 1.266.3h.007c1.035 0 2.033-.575 2.53-1.563v-.002c.203-.404.3-.84.3-1.267.002-1.036-.573-2.036-1.563-2.533-.404-.203-.84-.3-1.266-.3h-.005" fill="#E295C2"/><path d="M247.594 59.295c.695.967 1.383 1.953 2.053 2.938l.578.282-1.875-2.75-.756-.47" fill="#FBD9EC"/><path d="M237.217 52.835l-1.344 2.682 10.074 4.912c-.982-1.367-1.988-2.713-3.02-4.04l-5.71-3.555" fill="#E295C2"/><path d="M242.928 56.39c1.03 1.327 2.037 2.673 3.02 4.04l3.7 1.803c-.67-.985-1.36-1.97-2.054-2.938l-4.666-2.905" fill="#E20177"/><path d="M234.977 57.305l-.448.894 15.044 7.54c-.363-.56-.73-1.116-1.1-1.67l-13.497-6.765" fill="#E295C2"/><path d="M248.473 64.07c.37.554.738 1.11 1.1 1.67l1.94.973.45-.894-3.49-1.75" fill="#E20177"/><path d="M233.632 59.987l-.448.894 10.728 5.378.448-.894-10.728-5.377M232.288 62.67l-.448.893 18.773 9.41.45-.894-18.775-9.41M230.944 65.35l-.448.894 10.727 5.378.448-.894-10.726-5.378M229.6 68.032l-.45.894 16.987 8.515.448-.894-16.986-8.514M228.255 70.714l-.448.894 10.728 5.378.448-.894-10.728-5.378M226.91 73.396l-.447.894 6.257 3.137.45-.894-6.26-3.137M95.958 93.615L86.9 111.687c.152.33.305.652.458.964l9.103 4.564c-.11-.786-.205-1.58-.28-2.38l-6.89-3.452 6.66-13.288.008-4.48" fill="#E295C2"/><path d="M95.942 102.573l-.383.765.38.192.002-.957M148.587 27.817c-.426.505-.8 1.068-1.105 1.684l15.222 7.57c.307-.617.53-1.253.676-1.897l-14.793-7.356m-6.482-3.223l-14.248 28.653L155.515 67h.125l14.223-28.604-4.65-2.312c-.175.637-.414 1.265-.718 1.877l2.687 1.337-12.467 25.07-24.177-12.02 12.467-25.072 2.686 1.336c.306-.61.663-1.18 1.064-1.704l-4.65-2.312" fill="#E295C2"/><path d="M155.124 22.79h-.003c-3.22 0-6.35 1.486-8.366 4.116-.4.524-.758 1.093-1.062 1.705l-2.227 4.478 1.79.89 2.227-4.477c.306-.615.68-1.178 1.105-1.683 1.632-1.935 4.05-3.025 6.534-3.026 1.27.002 2.55.284 3.758.885 2.976 1.478 4.71 4.506 4.71 7.64 0 .62-.068 1.242-.208 1.858-.145.644-.37 1.28-.676 1.897l-2.226 4.477 1.79.89 2.227-4.476c.304-.61.543-1.24.718-1.876.253-.915.375-1.847.374-2.77 0-3.863-2.135-7.596-5.82-9.43-1.488-.74-3.08-1.093-4.643-1.093M155.918 43.516l-16.365 5.495.636 1.897 16.364-5.496-.636-1.894M146.168 39.13c-.735.002-1.443.408-1.792 1.11-.492.99-.09 2.19.9 2.683.286.142.59.21.89.21.734 0 1.442-.408 1.79-1.11.493-.99.09-2.19-.9-2.682-.285-.14-.59-.21-.888-.21M150.22 51.197c-.736 0-1.443.407-1.793 1.11-.49.99-.088 2.19.9 2.68.287.144.59.21.89.21.735 0 1.442-.406 1.792-1.11.49-.988.088-2.188-.9-2.68-.287-.143-.59-.21-.89-.21M241.437 121.295l-15.354 6.102c.092.654.262 1.307.517 1.947l15.798-6.278c-.254-.64-.578-1.232-.96-1.77m17.247 26.503l-.37-.93.37.93.93-.37-.93.37m-10.52-29.18l-4.827 1.92c.357.555.665 1.152.92 1.787l2.786-1.108 10.342 26.02-25.09 9.97-10.343-26.02 2.788-1.107c-.25-.634-.437-1.28-.56-1.93l-4.824 1.918 11.82 29.738 28.807-11.45-11.82-29.737" fill="#E295C2"/><path d="M234.473 115.708c-1.233 0-2.487.22-3.7.68h-.005l-.148.06c-4.11 1.635-6.618 5.603-6.618 9.782 0 .64.06 1.283.18 1.924.12.65.307 1.295.56 1.93l1.846 4.645 1.858-.74-1.846-4.646c-.255-.64-.425-1.293-.517-1.947-.054-.39-.08-.78-.08-1.167 0-3.384 2.037-6.608 5.356-7.924 1.02-.406 2.074-.598 3.113-.598 2.733 0 5.36 1.33 6.964 3.587.383.54.707 1.13.96 1.77l1.848 4.647 1.858-.74-1.846-4.645c-.254-.635-.562-1.232-.92-1.788-1.95-3.038-5.33-4.832-8.864-4.832M242.665 132.42l-6.835 15.854 1.836.792 6.835-15.853-1.835-.792M234.38 136.09c-.246 0-.497.044-.74.14-1.025.41-1.527 1.57-1.12 2.598.313.784 1.065 1.262 1.86 1.262.246 0 .496-.046.74-.142 1.025-.408 1.526-1.57 1.118-2.597-.31-.784-1.063-1.26-1.86-1.26M246.067 141.128c-.246 0-.496.046-.738.142-1.028.408-1.53 1.57-1.12 2.597.31.785 1.063 1.262 1.858 1.262.246 0 .496-.047.738-.143 1.026-.408 1.528-1.57 1.12-2.597-.312-.784-1.064-1.262-1.86-1.262M176.723 135.687c-.834.278-1.685.522-2.552.734l-10.59 22.6-8.66-4.058c-.497.516-.983 1.024-1.455 1.526l11.077 5.19 12.18-25.99M95.623 163.902c-.498.435-.952.934-1.348 1.497l13.89 9.798c.398-.563.716-1.158.958-1.772l-13.5-9.524m-5.916-4.173L71.26 185.877l25.332 17.87 18.447-26.15-4.244-2.992c-.264.587-.586 1.158-.966 1.703l.546-.776-.576.817.03-.04-.03.04 2.452 1.73-16.14 22.88-22.064-15.564 16.14-22.88 2.452 1.73c.394-.56.834-1.067 1.31-1.524l-4.243-2.993" fill="#E295C2"/><path d="M110.376 175.534l-.546.775-.03.04.576-.816m-9.133-15.726h-.002c-2.66 0-5.298 1.006-7.29 2.914-.476.457-.916.965-1.31 1.524l-2.882 4.085 1.634 1.154 2.883-4.085c.396-.564.85-1.063 1.348-1.498 1.572-1.37 3.582-2.093 5.618-2.094 1.697 0 3.4.5 4.88 1.545 2.338 1.648 3.59 4.285 3.59 6.967 0 1.05-.192 2.104-.587 3.106-.242.614-.56 1.21-.957 1.772l-2.882 4.086 1.634 1.153 2.912-4.128c.38-.546.702-1.117.966-1.704.615-1.372.915-2.835.914-4.286 0-3.134-1.394-6.234-4.014-8.286v-.017l-.423-.3c-1.828-1.288-3.942-1.91-6.03-1.91M100.477 180.534l-17.012 2.94.34 1.97 17.012-2.94-.34-1.97M91.204 174.693c-.628 0-1.247.295-1.636.847-.637.903-.42 2.15.48 2.787.352.247.754.366 1.153.366.63 0 1.247-.295 1.637-.847.636-.903.42-2.15-.482-2.787-.35-.248-.753-.367-1.15-.367M93.37 187.235c-.628 0-1.246.295-1.636.847-.637.903-.42 2.15.48 2.787.352.247.754.365 1.153.365.628 0 1.246-.295 1.636-.847.636-.903.42-2.15-.482-2.787-.35-.246-.75-.365-1.15-.365M41.423 71.09l-14.875 7.192c.14.646.356 1.284.655 1.905l15.306-7.4c-.3-.62-.667-1.186-1.087-1.696m19.11 25.195l-.435-.9.435.9.9-.435-.9.435M47.94 67.94l-4.675 2.26c.396.53.747 1.102 1.044 1.718l2.7-1.306L59.197 95.82 34.89 107.572 22.7 82.362l2.7-1.304c-.296-.615-.528-1.246-.696-1.885l-4.675 2.26 13.93 28.81L61.87 96.75 47.94 67.94" fill="#E295C2"/><path d="M34.83 65.993h-.002c-1.528 0-3.08.335-4.542 1.04l-.564.274v.022c-3.396 1.903-5.36 5.48-5.36 9.186 0 .885.112 1.778.344 2.657.168.64.4 1.27.697 1.885l2.176 4.5 1.8-.87-2.177-4.5c-.3-.622-.516-1.26-.655-1.906-.125-.586-.187-1.178-.187-1.766.002-3.167 1.774-6.222 4.797-7.68 1.184-.573 2.434-.843 3.67-.843 2.518 0 4.965 1.12 6.596 3.098.42.51.787 1.078 1.086 1.698l2.175 4.5 1.8-.87-2.176-4.5c-.298-.616-.65-1.19-1.045-1.717-2.01-2.683-5.174-4.207-8.436-4.207M43.45 82.1L37.77 98.403l1.888.658 5.677-16.302-1.888-.658M35.59 86.35c-.29 0-.587.063-.868.2-.994.48-1.41 1.675-.93 2.67.345.714 1.06 1.13 1.802 1.13.292 0 .59-.064.87-.2.993-.48 1.41-1.677.93-2.67-.346-.715-1.06-1.13-1.803-1.13M47.61 90.535c-.29 0-.587.064-.868.2-.994.48-1.41 1.676-.93 2.67.345.714 1.06 1.13 1.802 1.13.292 0 .59-.064.87-.2.994-.48 1.41-1.676.93-2.67-.346-.714-1.06-1.13-1.803-1.13M81.355 64.62c-1.647 0-3.063-1.23-3.294-2.866l-.746-5.28c-.257-1.82 1.014-3.51 2.834-3.768l22.628-3.2 6.423 4.71-4.822 7.184-22.55 3.188c-.157.022-.316.033-.473.033m21.947-17.207l-23.434 3.313c-2.916.412-4.946 3.11-4.534 6.027l.747 5.28c.377 2.665 2.66 4.588 5.275 4.588.248 0 .5-.016.753-.052l23.434-3.312 6.387-9.52-8.628-6.323" fill="#E295C2"/><path d="M101.89 53.745c-.092 0-.185.006-.278.02-1.077.15-1.826 1.147-1.674 2.224.14.982.982 1.692 1.947 1.692.092 0 .185-.006.278-.02 1.077-.152 1.826-1.148 1.674-2.224-.14-.983-.982-1.693-1.947-1.693M189.203 170.844c-1.366 0-2.616-.856-3.11-2.13l-1.927-4.973c-.32-.83-.3-1.735.06-2.55.36-.814 1.014-1.44 1.844-1.76l21.31-8.258 7.324 3.125-3.062 8.092-21.236 8.228c-.388.15-.793.226-1.203.226m18.213-21.83l-22.07 8.55c-2.745 1.064-4.11 4.153-3.045 6.9l1.93 4.973c.818 2.113 2.835 3.407 4.973 3.407.64 0 1.292-.116 1.925-.36l22.07-8.552 4.055-10.72-9.837-4.2" fill="#E295C2"/><path d="M207.924 155.448c-.237 0-.477.043-.71.134-1.015.392-1.52 1.533-1.125 2.547.3.78 1.045 1.257 1.835 1.257.236 0 .477-.043.71-.134 1.014-.393 1.518-1.533 1.125-2.547-.302-.78-1.047-1.258-1.836-1.258M82.527 211.328H58.86c-2.366 0-4.37 1.54-5.07 3.672h2.18c.577-.998 1.656-1.672 2.89-1.672h22.853L83.427 215h2.864l-3.763-3.672M207.532 58.86l-8.408-2.042-10.783-20.06c-.87-1.62-.26-3.644 1.358-4.514l4.7-2.526c.49-.264 1.02-.398 1.573-.398 1.232 0 2.358.673 2.94 1.756l10.82 20.13-2.198 7.653m-11.56-31.54h-.002c-.852 0-1.717.205-2.52.637l-4.7 2.525c-2.593 1.395-3.565 4.628-2.17 7.222l11.205 20.846 11.14 2.705 2.953-10.28-11.206-20.846c-.963-1.792-2.8-2.81-4.7-2.81" fill="#E295C2"/><path d="M203.598 50.546c-.314 0-.634.076-.93.235-.958.516-1.317 1.71-.802 2.668.355.66 1.034 1.037 1.735 1.037.316 0 .635-.076.932-.236.958-.515 1.317-1.71.802-2.667-.355-.66-1.034-1.037-1.736-1.037" fill="#E295C2"/><path d="M25.875 216c24.443 35.02 65.03 57.933 110.975 57.933 45.945 0 86.53-22.914 110.975-57.933H25.875" fill="#E2AFCF"/><path d="M25.875 216l-.82.572c24.62 35.276 65.512 58.36 111.795 58.36 46.282 0 87.174-23.084 111.795-58.36l1.097-1.572H23.957l1.098 1.572.82-.572v1h221.95v-1l-.82-.572c-24.266 34.76-64.548 57.505-110.155 57.505S50.96 250.19 26.695 215.428l-.82.572v1-1" fill="#E20177"/><path d="M101 204h72v2h-72v-2z" fill="#FFF"/><path d="M175 222.973V233H99v-9.615c-8.09 1.763-13 4.08-13 6.615 0 5.523 23.28 10 52 10s52-4.477 52-10c0-2.74-5.725-5.22-15-7.027" fill="#E295C2"/><path d="M100 232v-28.938l15.508-.013c.84-4.583 5.114-8.05 10.136-8.05h1.553l3.592-16.22c-1.455-.43-2.19-1.524-2.19-3.264v-1c0-1.01.336-2.542 2.23-3.2-.155-.246-.23-.512-.23-.8 0-5.74-5.037-10.723-11.412-17.033-4.91-4.858-10.46-10.35-14.8-17.4-7.233-1-13.405-4.17-18.352-9.432C70.903 110.558 71.95 76.41 72 74.965l.035-.964h24.957l.01-6h81.07l-.012 6h24.88l.034.964c.05 1.446 1.097 35.593-14.036 51.687-5.12 5.447-11.543 8.65-19.1 9.53-4.024 6.216-8.99 11.29-13.386 15.778-6.356 6.493-11.845 12.1-11.845 18.558 0 .212-.03.486-.134.784 1.713.6 2.127 1.997 2.127 3.216v1c0 1.396-.67 2.43-1.91 2.993l4.038 16.49H150c4.91 0 8.797 3.316 9.56 8.01L174 203v29h-74m78-123.482c0 6.577-1.1 12.61-3.362 18.373 3.195-1.19 5.98-3.07 8.462-5.708 10.014-10.64 11.372-29.544 11.432-38.182h-16.487L178 108.518M80.442 83c.06 8.638 1.418 27.543 11.432 38.182 2.36 2.508 4.983 4.33 7.975 5.525-1.963-5.425-2.92-11.07-2.92-17.19L96.977 83H80.442" fill="#FFF"/><path d="M177.07 69l-.01 6h24.914s1.256 34.99-13.764 50.967c-5.073 5.395-11.44 8.5-18.955 9.27-9.865 15.52-25.648 23.706-25.648 35.28 0 .675-.452 1.157-1.175 1.483h.04c1.925 0 3.128.59 3.128 2.515v1c0 1.396-.885 2.068-2.102 2.335l4.445 18.15H150c4.716 0 8.34 3.41 8.673 8.012L173 204v27h-72v-26.94l15.385-.012c.365-4.62 4.53-8.048 9.26-8.048H128l3.99-18.022c-1.568-.107-2.39-.728-2.39-2.462v-1c0-1.926 1.475-2.516 3.4-2.516h1.258c-1.545-.386-2.658-.927-2.658-1.484 0-10.932-16.736-19.015-26.608-35.363-7.2-.892-13.32-3.966-18.228-9.186C71.744 109.99 73 75 73 75h24.99l.01-6h79.07m-4.19 59.5c4.222-1.14 7.843-3.333 10.95-6.633 10.796-11.47 11.736-32.222 11.704-39.867h-18.487L177 108.515c0 7.79-1.61 14.335-4.12 19.986m-71.323-.145c-2.22-5.387-3.627-11.568-3.627-18.84L97.978 82H79.44c-.03 7.645.908 28.396 11.705 39.867 2.975 3.16 6.42 5.31 10.412 6.488M179.073 67h-83.07l-.01 6H71.07l-.068 1.928c-.053 1.463-1.11 36.013 14.305 52.41 5 5.317 11.214 8.567 18.477 9.668 4.364 6.958 9.845 12.382 14.7 17.188 6.21 6.146 11.116 11 11.116 16.322 0 .09.005.18.013.266-1.823 1.083-2.013 2.993-2.013 3.733v1c0 1.168.31 2.95 2.03 3.875L126.395 194h-.75c-5.205 0-9.68 3.412-10.935 8.05l-13.712.01-1.998.003V233h76v-31.002l-2.002.002-12.618.01c-1.147-4.737-5.258-8.01-10.38-8.01h-.487l-3.675-15.003c1.128-.785 1.762-2 1.762-3.48v-1.002c0-.953-.247-2.796-2-3.808l.006-.19c0-6.05 5.102-11.26 11.56-17.858 4.335-4.43 9.225-9.424 13.255-15.546 7.596-.98 14.066-4.268 19.247-9.777 15.415-16.396 14.358-50.946 14.306-52.41l-.07-1.927h-24.84l.01-6m-.03 17h14.48c-.33 22.55-7.857 32.998-11.15 36.496-1.816 1.93-3.798 3.435-5.996 4.545 1.762-5.21 2.623-10.655 2.623-16.525L179.043 84M81.45 84h14.524l-.043 25.512c0 5.408.733 10.453 2.23 15.306-2.02-1.086-3.86-2.517-5.56-4.322C89.31 116.998 81.783 106.55 81.45 84" fill="#E20177"/><path d="M147.943 196H128l4.47-20.18H143l4.943 20.18" fill="#EDD1E3"/><path d="M149.705 218.058H125.35c-4.95 0-9-4.05-9-9v-4.354c0-4.95 4.344-8.704 9.294-8.704H150c4.95 0 8.705 3.754 8.705 8.704v4.355c0 4.948-4.05 8.998-9 8.998" fill="#EDD1E3"/><path d="M173 231h-72v-26.94l72-.06v27" fill="#EDD1E3"/><path d="M116 212h42v10h-42v-10zm-2 12h46v-14h-46v14z" fill="#EB92C2"/><path d="M118.094 214.03l-.032 5.94L156 220l-.062-5.938-37.844-.03" fill="#EB92C2"/><path d="M109.513 135.433c-9.19 0-16.843-3.185-22.75-9.466C71.744 109.99 73 75 73 75h31.513v7H79.44c-.03 7.645.908 28.396 11.705 39.867 4.792 5.092 10.8 7.566 18.368 7.566v6M165.46 135.433c9.19 0 16.844-3.185 22.75-9.466C203.23 109.99 201.974 75 201.974 75H170.46v7h25.074c.03 7.645-.908 28.396-11.705 39.867-4.793 5.092-10.8 7.566-18.37 7.566v6" fill="#EDD1E3"/><path d="M143.607 170.516c0 3.5-12.007 1.833-12.007 0 0-15.5-33.6-26.008-33.6-61.758V69h79l-.07 39.515c0 35.5-33.323 45.167-33.323 62" fill="#EDD1E3"/><path d="M142 178h-9.472c-1.925 0-2.928-.56-2.928-2.484v-1c0-1.926 1.475-2.516 3.4-2.516h9.472c1.925 0 3.128.59 3.128 2.516v1c0 1.925-1.675 2.484-3.6 2.484" fill="#EDD1E3"/><path d="M129.286 98.336c-1.245-.858-3-.835-4.3-.576-.894.18-1.544.308-2.438.487-.325.064-.652.047-.97.398-.238.293-.23.7-.22 1.108l.62 25.966c.008.284.018.732.228.977.21.286.576.172.982.09l2.52-.502c.934-.186 2.88-.78 4.224-2.604 1.422-2.002 1.39-3.307 1.367-4.285l-.41-17.12c-.034-1.468-.358-3.04-1.604-3.94zm-.626 21.627c.014.61.03 1.263-.762 2.322-.712.92-1.685 1.237-2.132 1.326-.162.034-.77.196-.937.066-.292-.23-.262-.685-.273-1.134l-.5-20.91c-.005-.245-.01-.45.106-.718.155-.318.562-.4 1.293-.545 1.097-.22 1.426-.12 1.884.238.75.588.89 1.297.91 2.194l.41 17.16zM142.623 108.133c-.64-1.1-2.026-1.07-2.03-1.233-.004-.162 1.248-.74 1.83-2.003.466-.994.41-1.68.385-2.657l-.087-3.668c-.034-1.468-.358-3.042-1.603-3.94-1.246-.857-3.042-.827-4.3-.576l-2.317.463c-.325.063-.65.088-.97.438-.237.293-.23.66-.22 1.067l.614 25.68c.026 1.1.106 1.003.358 1.32.168.213.898-.014 1.387-.07.73-.106 1.258-.252 1.99-.398.975-.194 2.88-.78 4.224-2.604 1.422-2.003 1.392-3.267 1.367-4.286l-.12-5.055c-.022-.978.003-1.597-.507-2.48zm-6.432-2.607l-.18-7.623c-.006-.244-.01-.448.105-.717.156-.318.602-.407 1.17-.52 1.14-.227 1.428-.12 1.885.238.75.588.887 1.257.91 2.194l.092 3.873c.016.652.03 1.264-.76 2.323-.714.92-1.646 1.23-2.214 1.342-.325.065-.486.138-.736-.057-.292-.23-.26-.604-.27-1.052zm4.462 10.7c.016.693-.01 1.272-.802 2.33-.713.92-1.726 1.246-2.172 1.335-.366.074-.407.083-.733.107-.366.032-.426-.735-.436-1.183l-.206-8.56c-.023-.978.096-1.125 1.843-1.473 1.22-.242 2.336.354 2.38 2.23l.125 5.216zM154.788 116.807c-1.636-10.364-2.52-16.576-4.15-26.736-.057-.684-.383-.66-1.4-.456-.892.178-1.094.26-1.162.846-.92 9.398-1.83 17.443-2.836 28.292-.032.375.496.27 1.106.148 1.3-.26 1.667-.29 1.697-.748.146-2.404.302-4.442.492-6.773.03-.417.437-.458 1.21-.612.65-.13 1.217-.283 1.268.116.378 2.177.67 4.167 1.05 6.384.095.555.296.433 1.475.198 1.097-.22 1.3-.22 1.25-.66zm-5.056-8.288c-.57.112-.937.104-.903-.19.138-2.73.232-5.617.394-9.09-.002-.12.032-.415.234-.455.244-.05.29.228.295.39.32 3.173.497 5.39.865 8.84.048.317-.4.406-.886.504z" fill="#FFF"/><path d="M130.49 99.456c-1.244-.858-3-.835-4.3-.576-.893.18-1.543.308-2.437.486-.325.065-.652.05-.97.4-.238.292-.23.7-.22 1.107l.62 25.966c.008.284.018.732.228.977.212.286.577.172.983.09l2.52-.502c.934-.186 2.88-.78 4.224-2.604 1.422-2.003 1.39-3.307 1.367-4.285l-.408-17.12c-.035-1.468-.36-3.04-1.605-3.94zm-.625 21.627c.014.61.03 1.263-.762 2.322-.712.92-1.685 1.237-2.132 1.326-.16.034-.77.196-.936.065-.292-.228-.262-.684-.272-1.133l-.5-20.91c-.005-.245-.01-.45.106-.718.155-.318.562-.4 1.293-.545 1.098-.22 1.427-.12 1.885.238.75.587.888 1.297.91 2.194l.41 17.16zM143.828 109.253c-.64-1.1-2.026-1.07-2.03-1.233-.004-.163 1.248-.74 1.83-2.003.466-.994.408-1.68.385-2.657l-.087-3.67c-.035-1.466-.36-3.04-1.604-3.938-1.246-.857-3.042-.827-4.3-.576l-2.317.463c-.326.063-.65.088-.97.437-.237.294-.23.66-.22 1.068l.614 25.68c.025 1.1.104 1.003.357 1.32.168.213.898-.014 1.386-.07.733-.106 1.26-.252 1.99-.398.977-.194 2.882-.78 4.226-2.604 1.42-2.004 1.39-3.267 1.366-4.286l-.12-5.055c-.024-.978.002-1.598-.508-2.48zm-6.432-2.607l-.182-7.623c-.005-.245-.01-.448.106-.717.156-.318.602-.407 1.172-.52 1.137-.227 1.426-.12 1.883.24.75.586.888 1.255.91 2.192l.092 3.872c.016.652.03 1.264-.76 2.323-.714.92-1.646 1.23-2.214 1.342-.325.065-.487.138-.737-.057-.29-.23-.26-.604-.27-1.052zm4.46 10.7c.017.693-.01 1.272-.8 2.33-.714.92-1.727 1.246-2.174 1.335-.365.074-.406.082-.732.106-.367.032-.426-.734-.437-1.182l-.204-8.56c-.024-.978.095-1.125 1.842-1.474 1.22-.243 2.336.354 2.38 2.23l.125 5.216zM155.993 117.927c-1.636-10.364-2.52-16.576-4.15-26.736-.057-.684-.383-.66-1.398-.456-.894.178-1.096.258-1.164.845-.918 9.398-1.828 17.443-2.835 28.292-.032.375.496.27 1.106.148 1.3-.26 1.668-.29 1.698-.748.146-2.404.302-4.442.492-6.774.03-.415.437-.456 1.21-.61.65-.13 1.217-.283 1.268.116.378 2.177.67 4.167 1.05 6.384.095.555.296.433 1.475.198 1.097-.22 1.3-.22 1.25-.66zm-5.056-8.288c-.57.112-.937.104-.903-.19.14-2.73.233-5.617.395-9.09-.003-.12.03-.415.233-.455.244-.05.29.228.295.39.32 3.173.497 5.39.865 8.84.048.317-.4.406-.886.504zM97 74h1v9h-1v-9zM177 75h1v9h-1v-9zM130 171h14v1h-14v-1zM130 178h16v1h-16v-1zM126 195h24v1h-24v-1zM114 203h48v1h-48v-1z" fill="#E20177"/><path d="M100 127s.458 1.583 4.542 8.625" fill="#EDD1E3"/><path d="M99.52 127.14c.028.086.497 1.676 4.59 8.736l.864-.502c-2.037-3.513-3.168-5.66-3.785-6.922-.31-.63-.49-1.04-.592-1.285-.05-.123-.082-.206-.1-.254l-.017-.05v-.006l-.214.066.214-.062v-.003l-.214.066.214-.062-.96.28" fill="#E20177"/><path d="M174.542 127s-.46 1.583-4.542 8.625" fill="#EDD1E3"/><path d="M174.06 126.86l.213.062-.21-.065-.002.004.213.062-.21-.065c-.005.022-.548 1.713-4.496 8.517l.866.502c4.09-7.06 4.56-8.65 4.59-8.737l-.962-.28" fill="#E20177"/><path d="M138 195h-6l1-16h5v16M131 203h-9l5-7h4v7M132 172h4v6h-4v-6zM129.31 152.854c-1.216-2.02-2.53-3.967-3.86-5.88l-2-2.845c-.685-.965-1.264-1.83-1.845-2.782-.58-.93-1.127-1.88-1.638-2.845-.522-.958-1.003-1.937-1.453-2.922-.458-.98-.87-1.98-1.257-2.977-.388-1-.724-2.008-1.046-3.013-.292-1.012-.574-2.02-.792-3.028-.216-1.008-.418-2.013-.53-3.01-.148-.995-.207-1.983-.243-2.952.002-.483-.026-.967-.005-1.44l.074-1.41-.004.586.93-41.336h-13.534l1.184 40.664-.005.586.34 2.026c.12.67.294 1.32.443 1.974.334 1.295.705 2.568 1.163 3.79.428 1.234.942 2.417 1.472 3.58.53 1.162 1.122 2.28 1.722 3.384.625 1.088 1.263 2.16 1.945 3.193.682 1.033 1.383 2.046 2.125 3.023.733.982 1.492 1.94 2.287 2.863.785.93 1.6 1.83 2.445 2.703.82.87 1.745 1.74 2.562 2.515l2.502 2.37c1.653 1.58 3.27 3.172 4.8 4.837 1.525 1.666 2.972 3.4 4.202 5.288 1.227 1.883 2.255 3.934 2.706 6.205.013-2.317-.605-4.65-1.475-6.838-.872-2.2-2-4.29-3.214-6.308" fill="#FFF"/><path d="M177 75h-.01l-.004 2H177v-2M176.99 75H98v2h78.986l.004-2" fill="#ECA7CD"/><path d="M98 69h14v6H98v-6z" fill="#FFF"/></g></svg>