<svg width="273" height="274" xmlns="http://www.w3.org/2000/svg"><title>icon 1</title><g fill="none" fill-rule="evenodd"><path d="M271.667 136.833c0 74.697-60.554 135.25-135.25 135.25-74.697 0-135.25-60.553-135.25-135.25 0-74.696 60.553-135.25 135.25-135.25 74.696 0 135.25 60.554 135.25 135.25z" fill="#D7EBB9"/><path d="M271.667 136.833c0 74.697-60.554 135.25-135.25 135.25-74.697 0-135.25-60.553-135.25-135.25 0-74.696 60.553-135.25 135.25-135.25 74.696 0 135.25 60.554 135.25 135.25z" stroke="#8EC63F" stroke-width="2"/><path d="M105.792 28.792l57.985 6.068c4.208.44 8.127 2.35 11.068 5.39l3.822 3.98c.962.994.302 2.66-1.08 2.725l-3.34-.026c-.704-.006-1.34-.378-1.74-.958-3.192-4.63-3.937-7.557-9.59-7.93l-57.125-3.375v-5.875z" fill="#FFF"/><path d="M105.792 28.792l57.985 6.068c4.208.44 8.127 2.35 11.068 5.39l3.822 3.98c.962.994.302 2.66-1.08 2.725l-3.34-.026c-.704-.006-1.34-.378-1.74-.958-3.192-4.63-3.937-7.557-9.59-7.93l-57.125-3.375v-5.875z" stroke="#8EC63F" stroke-width="2"/><path d="M176.566 28.792L118.58 34.86c-4.208.44-8.126 2.35-11.067 5.39l-4.127 3.98c-.963.994-.303 2.66 1.08 2.725l3.34-.026c.703-.006 1.34-.378 1.74-.958 3.19-4.63 4.242-7.557 9.895-7.93l57.126-3.375v-5.875z" fill="#FFF"/><path d="M176.566 28.792L118.58 34.86c-4.208.44-8.126 2.35-11.067 5.39l-4.127 3.98c-.963.994-.303 2.66 1.08 2.725l3.34-.026c.703-.006 1.34-.378 1.74-.958 3.19-4.63 4.242-7.557 9.895-7.93l57.126-3.375v-5.875z" stroke="#8EC63F" stroke-width="2"/><path d="M80 232c-4.4 0-8-3.6-8-8V66c0-4.4 3.6-8 8-8h120c4.4 0 8 3.6 8 8v158c0 4.4-3.6 8-8 8H80z" fill="#FFF"/><path d="M200 232H80c-4.4 0-8-3.6-8-8V66c0-4.4 3.6-8 8-8h120c4.4 0 8 3.6 8 8v158c0 4.4-3.6 8-8 8z" stroke="#8EC63F" stroke-width="2"/><path d="M82.47 69.5h113.988v142H82.468v-142z" fill="#E6EFD3"/><path d="M82.47 69.5h113.988v142H82.468v-142z" stroke="#8EC63F"/><path d="M145.583 221c0 3.038-2.462 5.5-5.5 5.5-3.037 0-5.5-2.462-5.5-5.5s2.463-5.5 5.5-5.5c3.038 0 5.5 2.462 5.5 5.5z" fill="#E6EFD3"/><path d="M145.583 221c0 3.038-2.462 5.5-5.5 5.5-3.037 0-5.5-2.462-5.5-5.5s2.463-5.5 5.5-5.5c3.038 0 5.5 2.462 5.5 5.5zM141.542 63.49c0 1.12-.91 2.03-2.032 2.03-1.12 0-2.03-.91-2.03-2.03 0-1.122.91-2.032 2.03-2.032 1.122 0 2.032.91 2.032 2.032z" stroke="#8EC63F"/><path d="M82.437 69.5h114.02v16H82.438v-16z" fill="#B3DD72"/><path d="M82.437 69.5h114.02v16H82.438v-16z" stroke="#8EC63F"/><path d="M83 85.187h113V94H83v-8.813z" fill="#FFF"/><path d="M88 100h50v28H88v-28zM142.062 100H190v28h-47.938v-28zM88 153h50v28H88v-28zM142.062 153H190v28h-47.938v-28zM89 204.083h48.958V211H89v-6.917zM142 204.083h47.938V211H142v-6.917z" fill="#B3DD72"/><path d="M160.604 74.5H188.5v6.083h-27.896V74.5z" stroke="#FFF"/><path d="M235.948 129.525l-4.447-11.018-4.49 10.99H227v68.44h8.917v-68.412h.03z" fill="#FFF"/><path d="M235.948 129.525l-4.447-11.018-4.49 10.99H227v68.44h8.917v-68.412h.03z" stroke="#8EC63F" stroke-width="2"/><path d="M227 198.03v4.49c0 2.467 2.018 4.485 4.485 4.485 2.467 0 4.485-2.018 4.485-4.485v-4.49H227z" fill="#FFF"/><path d="M227 198.03v4.49c0 2.467 2.018 4.485 4.485 4.485 2.467 0 4.485-2.018 4.485-4.485v-4.49H227z" stroke="#8EC63F" stroke-width="2"/><path d="M229.5 129.5v68.333m3.97-68.333v68.333" stroke="#8EC63F" stroke-linejoin="round"/><path d="M177.867 27.688l-.48-.063c-1.3 0-1.578-.888-2.635-1.647-.418-.3-.93-.978-1.482-.978h-26.708c-1.41 0-2.562 1.653-2.562 3.063v1.504c-.817-.27-1.643-.567-3.417-.567-1.8 0-2.787.264-3.625.538V28.02c0-1.408-1.153-3.062-2.562-3.062L107.812 25c-.552 0-1.063.678-1.482.978-1.056.76-1.958 1.647-3.26 1.647h.567c-1.113 0-2.637.9-2.637 2v2.625c0 1.1 1.15 2 2.25 2 1.45 0 1.812 1.175 1.812 2.625V39c0 2.75 2.25 5 5 5l21.896-.042c2.75 0 5-2.25 5-5v-5.82c1.03-.294 2.305-.638 3.625-.638 1.72 0 2.66.31 3.5.585L144 39c0 2.75 2.25 5 5 5h21.875c2.75 0 5-2.25 5-5v-2.125c0-1.45.655-2.562 2.105-2.562 1.1 0 1.958-.9 1.958-2v-3.125c0-1.1-.958-1.5-2.07-1.5z" fill="#FFF"/><path d="M177.867 27.688l-.48-.063c-1.3 0-1.578-.888-2.635-1.647-.418-.3-.93-.978-1.482-.978h-26.708c-1.41 0-2.562 1.653-2.562 3.063v1.504c-.817-.27-1.643-.567-3.417-.567-1.8 0-2.787.264-3.625.538V28.02c0-1.408-1.153-3.062-2.562-3.062L107.812 25c-.552 0-1.063.678-1.482.978-1.056.76-1.958 1.647-3.26 1.647h.567c-1.113 0-2.637.9-2.637 2v2.625c0 1.1 1.15 2 2.25 2 1.45 0 1.812 1.175 1.812 2.625V39c0 2.75 2.25 5 5 5l21.896-.042c2.75 0 5-2.25 5-5v-5.82c1.03-.294 2.305-.638 3.625-.638 1.72 0 2.66.31 3.5.585L144 39c0 2.75 2.25 5 5 5h21.875c2.75 0 5-2.25 5-5v-2.125c0-1.45.655-2.562 2.105-2.562 1.1 0 1.958-.9 1.958-2v-3.125c0-1.1-.958-1.5-2.07-1.5z" stroke="#8EC63F" stroke-width="2"/><path d="M224.5 78.562v-7.248c0-1.582 1.92-2.875 3.5-2.875s3.458 1.292 3.458 2.874V82.61c0 1.39-.62 2.848-2.458 2.848-1.917 0-2.458-1.557-2.458-2.835v-9.007c0-.856.633-1.557 1.49-1.557.856 0 1.414.7 1.414 1.556v4.926" stroke="#8EC63F" stroke-linecap="round" stroke-linejoin="round"/><path d="M43 39.26C17.167 63.5 1.083 98.122 1.083 136.167c0 17.662 3.807 35.366 9.965 50.833H43V39.26z" fill="#FFF"/><path d="M43 39.26C17.167 63.5 1.083 98.122 1.083 136.167c0 17.662 3.807 35.366 9.965 50.833H43V39.26z" stroke="#8EC63F" stroke-width="2" stroke-linejoin="round"/><path d="M1.5 136.25c0 13.925 2.107 27.546 6.015 40.188H32.5V50.082c-19.363 23.4-31 53.424-31 86.168z" fill="#FFF"/><path d="M1.5 136.25c0 13.925 2.107 27.546 6.015 40.188H32.5V50.082c-19.363 23.4-31 53.424-31 86.168z" stroke="#8EC63F" stroke-linejoin="round"/><path d="M88 130h35v3H88v-3z" fill="#8EC63F"/><path d="M88 135.062h32V136H88v-.938zM88 138.062h19.66V139H88v-.938zM88 141.062h32V142H88v-.938z" fill="#B3DD72"/><path d="M142 130h20.992v3H142v-3z" fill="#8EC63F"/><path d="M142 135.062h32V136h-32v-.938zM142 138.062h19.66V139H142v-.938zM142 141.062h32V142h-32v-.938z" fill="#B3DD72"/><path d="M88 183h35v3H88v-3z" fill="#8EC63F"/><path d="M88 188.063h32V189H88v-.937zM88 191.063h19.66V192H88v-.937zM88 194.062h32V195H88v-.938z" fill="#B3DD72"/><path d="M142 183h20.992v3H142v-3z" fill="#8EC63F"/><path d="M142 188.063h32V189h-32v-.937zM142 191.063h19.66V192H142v-.937zM142 194.062h32V195h-32v-.938z" fill="#B3DD72"/><path d="M97.542 77.5c0 2.76-2.24 5-5 5-2.762 0-5-2.24-5-5s2.238-5 5-5c2.76 0 5 2.24 5 5M108 107.124l11.32 6.398-11.32 5.895v-12.293M108 160.124l11.32 6.398-11.32 5.895v-12.293M162 107.124l11.32 6.398-11.32 5.895v-12.293M162 160.124l11.32 6.398-11.32 5.895v-12.293" fill="#FFF"/><path d="M134.625 37.5c0 2.2-1.8 4-4 4H111.5c-2.2 0-4-1.8-4-4v-8.563c0-.825.675-1.5 1.5-1.5h24.125c.825 0 1.5.675 1.5 1.5V37.5z" fill="#E6EFD3"/><path d="M134.625 37.5c0 2.2-1.8 4-4 4H111.5c-2.2 0-4-1.8-4-4v-8.563c0-.825.675-1.5 1.5-1.5h24.125c.825 0 1.5.675 1.5 1.5V37.5z" stroke="#8EC63F"/><path d="M173.563 37.438c0 2.2-1.8 4-4 4h-19.105c-2.2 0-4-1.8-4-4V29c0-.825.675-1.5 1.5-1.5h24.105c.824 0 1.5.675 1.5 1.5v8.438z" fill="#E6EFD3"/><path d="M173.563 37.438c0 2.2-1.8 4-4 4h-19.105c-2.2 0-4-1.8-4-4V29c0-.825.675-1.5 1.5-1.5h24.105c.824 0 1.5.675 1.5 1.5v8.438zM227.187 200.5h8.688m-8.5-71.063h8.406" stroke="#8EC63F"/><path d="M123.875 28.042L110.958 41h6.094l12.964-12.984-6.14.026M162.917 28l-12.855 13h6.094l12.907-13h-6.146M118.083 28.042l-4.458 4.396" fill="#FFF"/><path d="M118.083 28.042l-4.458 4.396" stroke="#FFF"/><path d="M157.187 28.063l-4.562 4.375" fill="#FFF"/><path d="M157.187 28.063l-4.562 4.375" stroke="#FFF"/></g></svg>