<svg width="65" height="40" xmlns="http://www.w3.org/2000/svg"><title>Imported Layers Copy 2</title><g fill="none" fill-rule="evenodd"><path d="M.26 4.65V.778h14.553V4.65H9.49v13.97H5.584V4.65H.26" fill="#FFF"/><path d="M.26 4.65V.778h14.553V4.65H9.49v13.97H5.584V4.65H.26z"/><path d="M29.335.777V4.65h-9.378V7.9h8.606v3.05h-8.606v4.372h9.577v3.3H16.052V.776h13.283" fill="#FFF"/><path d="M29.335.777V4.65h-9.378V7.9h8.606v3.05h-8.606v4.372h9.577v3.3H16.052V.776h13.283z"/><path d="M53.385.777v6.847h7.19V.777h3.904V18.62h-3.906v-7.696h-7.19v7.697H49.48V.778h3.905" fill="#FFF"/><path d="M53.385.777v6.847h7.19V.777h3.904V18.62h-3.906v-7.696h-7.19v7.697H49.48V.778h3.905z"/><path d="M37.1 26.244h3.904V38.41H37.1V26.243z" fill="#FFF"/><path d="M37.1 26.244h3.904V38.41H37.1V26.243z"/><path d="M50.202 25.368h4.38l1.414 2.245 4.13-7.048h4.353l-6.593 10.997v6.848h-3.904v-6.95l-3.78-6.092" fill="#FFF"/><path d="M50.202 25.368h4.38l1.414 2.245 4.13-7.048h4.353l-6.593 10.997v6.848h-3.904v-6.95l-3.78-6.092z"/><path d="M32.02 31.52c-.787 2.065-2.773 3.445-4.977 3.445-2.942 0-5.335-2.405-5.335-5.36 0-2.958 2.393-5.364 5.335-5.364 1.94 0 3.728 1.062 4.67 2.767l.06.112h.247l3.592-1.805c-1.6-3.204-4.923-5.332-8.57-5.332-5.278 0-9.573 4.317-9.573 9.62 0 5.303 4.294 9.618 9.573 9.618 3.86 0 7.292-2.342 8.786-5.787l-3.81-1.913M34.373 14.224c-.13-.137-.26-.284-.393-.45l-.01-.014c-.042-.045-.078-.095-.11-.144-.86-1.154-1.316-2.52-1.316-3.958.003-3.634 2.948-6.59 6.567-6.59 1.756 0 3.406.688 4.644 1.934.528.533.953 1.138 1.27 1.796l2.268-1.14C45.755 2.58 42.562.536 39.06.536c-5.073 0-9.2 4.147-9.2 9.244 0 4.292 2.932 7.912 6.89 8.944-.557-1.573-1.325-3.21-2.377-4.5M45.135 12.27c-.2.462-.452.905-.76 1.318-.038.064-.082.123-.135.176-.168.216-.35.42-.538.605-.54.672-1.507 2.082-2.325 4.35 2.72-.716 4.996-2.663 6.123-5.264l-2.365-1.187M40.805 20.565l-.044.166-.422 2.013c-.08.468-.148.954-.205 1.464-.006.045-.017.09-.03.13h4.802V38.41h3.905V24.338h5.324v-3.773h-13.33" fill="#FFF"/><path d="M40.805 20.565l-.044.166-.422 2.013c-.08.468-.148.954-.205 1.464-.006.045-.017.09-.03.13h4.802V38.41h3.905V24.338h5.324v-3.773h-13.33z"/><path d="M44.63 9.668c.002-3.066-2.468-5.55-5.517-5.554-3.05 0-5.523 2.48-5.527 5.544 0 1.27.428 2.44 1.144 3.376h-.01l.056.06c.118.15.242.295.374.433 3.202 3.89 3.946 10.56 3.946 10.56.67-5.903 2.803-9.16 3.835-10.427.193-.184.37-.384.53-.594.013-.01.022-.02.027-.026h-.005c.715-.936 1.147-2.103 1.147-3.372zm-5.967.99c0 .343-.03.627-.088.856-.058.228-.14.41-.253.548-.112.136-.25.23-.412.28-.163.05-.35.077-.567.077-.21 0-.398-.028-.564-.078-.166-.05-.304-.144-.415-.28-.11-.138-.194-.32-.253-.548-.06-.23-.087-.513-.087-.856V7.455h1.014v3.524c0 .237.025.396.08.476.055.08.13.12.223.12.095 0 .17-.04.223-.12.056-.08.083-.24.083-.477V7.454h1.013v3.203zm2.218 1.684l-.592-1.705-.214.412v1.292H39.06V7.455h1.014V9.33h.012l.753-1.875h1.077l-.982 2.134 1.1 2.752h-1.154z" fill="#FFF"/></g></svg>