<svg width="98" height="59" xmlns="http://www.w3.org/2000/svg"><title>Imported Layers</title><g fill="none" fill-rule="evenodd"><path d="M.393 6.976v-5.81h21.94v5.81h-8.025v20.956h-5.89V6.976H.394" fill="#0B0B0A"/><path d="M.393 6.976v-5.81h21.94v5.81h-8.025v20.956h-5.89V6.976H.394z" stroke="#0B0B0A" stroke-width=".248"/><path d="M44.23 1.166v5.81H30.087v4.873h12.977v4.573H30.088v6.56h14.44v4.95H24.202V1.165h20.03" fill="#0B0B0A"/><path d="M44.23 1.166v5.81H30.087v4.873h12.977v4.573H30.088v6.56h14.44v4.95H24.202V1.165h20.03z" stroke="#0B0B0A" stroke-width=".248"/><path d="M80.487 1.166v10.27h10.84V1.167h5.888v26.766h-5.888V16.386h-10.84v11.546H74.6V1.166h5.887" fill="#0B0B0A"/><path d="M80.487 1.166v10.27h10.84V1.167h5.888v26.766h-5.888V16.386h-10.84v11.546H74.6V1.166h5.887z" stroke="#0B0B0A" stroke-width=".248"/><path d="M55.934 39.366h5.887v18.247h-5.886V39.366z" fill="#0B0B0A"/><path d="M55.934 39.366h5.887v18.247h-5.886V39.366z" stroke="#0B0B0A" stroke-width=".248"/><path d="M75.69 38.052h6.6l2.135 3.368 6.227-10.573h6.563l-9.94 16.495v10.273H81.39V47.192l-5.7-9.14" fill="#0B0B0A"/><path d="M75.69 38.052h6.6l2.135 3.368 6.227-10.573h6.563l-9.94 16.495v10.273H81.39V47.192l-5.7-9.14z" stroke="#0B0B0A" stroke-width=".248"/><path d="M48.278 47.28c-1.188 3.098-4.183 5.167-7.505 5.167-4.436 0-8.045-3.607-8.045-8.04 0-4.436 3.61-8.046 8.045-8.046 2.923 0 5.62 1.593 7.04 4.15l.093.17h.37l5.416-2.707c-2.412-4.806-7.423-8-12.92-8-7.958 0-14.434 6.476-14.434 14.433 0 7.953 6.476 14.426 14.435 14.426 5.82 0 10.993-3.516 13.246-8.683l-5.742-2.87M51.824 21.337c-.198-.206-.392-.426-.592-.676l-.017-.02c-.06-.067-.117-.142-.164-.217-1.298-1.73-1.984-3.78-1.984-5.936.005-5.45 4.446-9.887 9.9-9.887 2.648.004 5.135 1.034 7 2.904.798.798 1.438 1.707 1.916 2.692l3.42-1.708C68.985 3.87 64.17.802 58.89.802c-7.648 0-13.87 6.22-13.87 13.866 0 6.44 4.42 11.87 10.387 13.418-.84-2.36-1.997-4.815-3.583-6.75M68.05 18.403c-.3.695-.682 1.36-1.145 1.98-.058.095-.124.184-.205.263-.254.325-.527.628-.81.907-.817 1.01-2.273 3.125-3.507 6.527 4.1-1.074 7.533-3.994 9.232-7.896l-3.565-1.78M61.52 30.847c-.02.084-.043.168-.064.25l-.638 3.017c-.12.703-.223 1.432-.31 2.196-.01.068-.026.133-.043.197h7.238v21.108h5.888V36.507h8.027v-5.66H61.52" fill="#0B0B0A"/><path d="M61.52 30.847c-.02.084-.043.168-.064.25l-.638 3.017c-.12.703-.223 1.432-.31 2.196-.01.068-.026.133-.043.197h7.238v21.108h5.888V36.507h8.027v-5.66H61.52z" stroke="#0B0B0A" stroke-width=".248"/><path d="M67.287 14.502c.005-4.598-3.72-8.327-8.317-8.33-4.597-.003-8.327 3.72-8.332 8.315 0 1.906.645 3.66 1.725 5.064h-.015l.083.09c.18.226.366.443.566.65 4.826 5.836 5.95 15.84 5.95 15.84 1.01-8.854 4.225-13.74 5.78-15.64.29-.276.555-.576.8-.89l.04-.04h-.01c1.08-1.403 1.73-3.154 1.73-5.058zm-8.995 1.485c0 .514-.044.94-.133 1.284-.088.343-.214.616-.382.823-.17.203-.376.345-.622.42-.245.075-.53.115-.854.115-.318 0-.6-.04-.85-.115-.25-.075-.457-.217-.625-.42-.166-.207-.292-.48-.382-.822-.088-.343-.13-.77-.13-1.283v-4.805h1.528v5.286c0 .358.04.596.122.716.084.12.195.18.337.18.142 0 .256-.06.336-.18.084-.12.125-.358.125-.716v-5.286h1.53v4.805zm3.344 2.526l-.894-2.558-.323.618v1.94h-1.53v-7.33h1.53v2.813h.018l1.134-2.814h1.626l-1.48 3.202 1.66 4.13h-1.742z" fill="#39B5AD"/></g></svg>