<svg width="109" height="32" xmlns="http://www.w3.org/2000/svg"><title>Fill 1</title><path d="M54.382 31.18c1.727-1.63 2.503-3.72 2.55-6.017.098-4.72.057-9.44.07-14.16.002-.07-.022-.137-.048-.28h-.5c-2.04 0-4.084.012-6.127-.012-.454-.004-.544.155-.543.572.013 4.6.01 9.198.003 13.797 0 .398-.02.808-.11 1.195-.345 1.457-1.8 2.338-3.453 2.12-1.845-.24-2.724-1.26-2.727-3.206-.008-4.583-.003-9.164-.003-13.745v-.694h-7.15c-.01.173-.032.325-.032.476.003 4.564-.006 9.128.02 13.69.012 1.82.247 3.61 1.35 5.137.48.667 1.087 1.244 1.643 1.87H.545V.084H108.45V31.91h-6.587V27.4h-9.337V10.73h-7.133v21.19H78.72c1.717-1.166 2.872-2.635 3.722-4.42-2.012-.97-4.003-1.93-6.024-2.902-.205.432-.374.846-.59 1.235-.935 1.684-2.37 2.516-4.297 2.44-1.963-.075-3.29-1.104-3.956-2.907-.868-2.353-.95-4.76-.013-7.116.642-1.61 1.87-2.612 3.622-2.804 1.832-.2 3.33.447 4.362 2.015.342.52.62 1.082.948 1.66l5.92-2.927c-.838-1.698-2.018-3.074-3.58-4.053-4.46-2.796-9.083-3.157-13.7-.472-2.905 1.69-4.494 4.437-5.162 7.685-.77 3.735-.164 7.237 2.13 10.344.594.805 1.364 1.48 2.052 2.214H53.556c.313-.274.577-.493.826-.73zm-21.51-11.333c-.036-.202-.018-.37-.093-.456-.22-.25-.486-.46-.71-.706-.083-.093-.134-.247-.137-.375-.02-.612-.028-1.223-.016-1.834.003-.144.09-.29.153-.428.096-.215.204-.425.325-.676-1.166-.247-2.22-.473-3.275-.694-.186-.04-.387-.116-.563-.08-1.192.237-2.378.5-3.608.764.046.222.08.407.126.59.064.263.18.524.194.79.023.47-.055.945-.018 1.412.044.543-.428.77-.618 1.163-.076.157-.178.3-.315.53h8.553zm-4.29-9.31c-.094.352-.14.555-.204.752-.077.233-.104.564-.27.673-.99.65-1.114 1.643-1.212 2.78 1.182-.497 2.315-.427 3.503-.025-.156-.943-.14-1.82-.86-2.42-.395-.33-.76-.633-.66-1.23.02-.113-.136-.254-.3-.53z" fill="#FFF" fill-rule="evenodd"/></svg>