<svg width="79" height="62" xmlns="http://www.w3.org/2000/svg"><title>Imported Layers Copy</title><g fill="#FFF" fill-rule="evenodd"><path d="M77.683 62H1.317C.59 62 0 61.41 0 60.68V1.32C0 .59.59 0 1.317 0h76.366C78.41 0 79 .59 79 1.32v59.36c0 .73-.59 1.32-1.317 1.32zm-75.05-2.638h73.734V2.638H2.633v56.724z"/><path d="M2.633 11.872h75.05v2.64H2.633v-2.64zM71.758 10.553c-1.814 0-3.29-1.48-3.29-3.298 0-1.817 1.476-3.298 3.29-3.298 1.815 0 3.292 1.48 3.292 3.298s-1.477 3.298-3.292 3.298zm0-3.957c-.363 0-.658.295-.658.66 0 .363.295.66.658.66.364 0 .66-.297.66-.66 0-.365-.296-.66-.66-.66zM63.858 10.553c-1.814 0-3.29-1.48-3.29-3.298 0-1.817 1.476-3.298 3.29-3.298 1.815 0 3.292 1.48 3.292 3.298s-1.477 3.298-3.292 3.298zm0-3.957c-.363 0-.658.295-.658.66 0 .363.295.66.658.66.364 0 .66-.297.66-.66 0-.365-.296-.66-.66-.66zM55.958 10.553c-1.814 0-3.29-1.48-3.29-3.298 0-1.817 1.476-3.298 3.29-3.298 1.815 0 3.292 1.48 3.292 3.298s-1.477 3.298-3.292 3.298zm0-3.957c-.363 0-.658.295-.658.66 0 .363.295.66.658.66.364 0 .66-.297.66-.66 0-.365-.296-.66-.66-.66zM21.72 51.442c-8.345 0-15.137-6.805-15.137-15.167S13.375 21.11 21.72 21.11c.728 0 1.318.59 1.318 1.318v13.68h12.446c.368 0 .72.157.968.427.25.272.374.635.344 1.003-.644 7.796-7.266 13.904-15.075 13.904zm-1.316-27.626c-6.277.662-11.187 5.997-11.187 12.46 0 6.906 5.61 12.527 12.504 12.527 5.966 0 11.09-4.313 12.25-10.056H21.72c-.726 0-1.316-.59-1.316-1.32v-13.61z"/><path d="M36.867 34.298H26.333c-.726 0-1.316-.59-1.316-1.32V22.427c0-.73.59-1.32 1.316-1.32 6.534 0 11.85 5.327 11.85 11.873 0 .727-.59 1.318-1.316 1.318zM27.65 31.66h7.807c-.58-4.038-3.777-7.24-7.807-7.822v7.822zM48.717 51.447H43.45c-.727 0-1.317-.59-1.317-1.32v-14.51c0-.728.59-1.32 1.317-1.32h5.267c.726 0 1.316.592 1.316 1.32v14.51c0 .73-.59 1.32-1.316 1.32zm-3.95-2.638H47.4V36.935h-2.633V48.81zM59.25 51.447h-5.267c-.726 0-1.316-.59-1.316-1.32V27.703c0-.728.59-1.32 1.316-1.32h5.267c.727 0 1.317.592 1.317 1.32v22.426c0 .728-.59 1.32-1.317 1.32zM55.3 48.81h2.633V29.02H55.3v19.79zM69.783 51.447h-5.266c-.727 0-1.317-.59-1.317-1.32v-29.02c0-.73.59-1.32 1.317-1.32h5.266c.727 0 1.317.59 1.317 1.32v29.02c0 .73-.59 1.32-1.317 1.32zm-3.95-2.638h2.634V22.425h-2.634V48.81z"/><path d="M39.5 48.81h34.233v2.637H39.5V48.81z"/></g></svg>