<svg xmlns="http://www.w3.org/2000/svg" viewBox="0 0 21.59 18.56"><defs><style>.cls-1{fill:#071d28}</style></defs><title>black-cam-ico</title><g id="Layer_2" data-name="Layer 2"><g id="Layer_1-2" data-name="Layer 1"><g id="black-cam-ico"><path class="cls-1" d="M20.83 10.86a.28.28 0 0 1-.18.27.27.27 0 0 1-.3-.06l-4.73-4.53a.28.28 0 0 1-.08-.21.28.28 0 0 1 .08-.2l4.74-4.38a.26.26 0 0 1 .19-.08.29.29 0 0 1 .29.29zm-6.06-.32a1.2 1.2 0 0 1-1.2 1.2H1.81a1.06 1.06 0 0 1-1.05-1.05V1.87A1.11 1.11 0 0 1 1.87.76h11.79a1.12 1.12 0 0 1 1.12 1.11zM21 1a1 1 0 0 0-1.12.2l-4.31 4V1.87A1.88 1.88 0 0 0 13.66 0H1.87A1.88 1.88 0 0 0 0 1.87v8.81a1.82 1.82 0 0 0 1.81 1.82h5.6L4.85 18a.38.38 0 0 0 .19.5.37.37 0 0 0 .16 0 .38.38 0 0 0 .34-.22L8 13l2.47 5.32a.38.38 0 0 0 .34.22.37.37 0 0 0 .16 0 .38.38 0 0 0 .18-.5L8.6 12.5h5a2 2 0 0 0 2-2v-3l4.29 4.1a1 1 0 0 0 1.78-.74V2A1 1 0 0 0 21 1"/><path class="cls-1" d="M4.74 6.44a1.71 1.71 0 1 1 1.57-1l-.74-.74a.38.38 0 0 0-.57.49l.85.81a1.7 1.7 0 0 1-1.12.43M6.87 6a2.48 2.48 0 1 0-.48.59l.54.54a.38.38 0 1 0 .54-.53z"/></g></g></g></svg>