<svg xmlns="http://www.w3.org/2000/svg" viewBox="0 0 15.5 16.44"><defs><style>.cls-1{fill:#071d28}</style></defs><title>black-lock-ico</title><g id="Layer_2" data-name="Layer 2"><g id="Layer_1-2" data-name="Layer 1"><path class="cls-1" d="M12.56 15.52a2 2 0 1 1 2-2 2 2 0 0 1-2 2m-9.62-5.28a2 2 0 1 1 2-2 2 2 0 0 1-2 2M12.56.93a2 2 0 1 1-2 2 2 2 0 0 1 2-2m0 9.64a3 3 0 0 0-2.33 1.15L5.71 9.19a3 3 0 0 0 .16-1 2.87 2.87 0 0 0-.17-1l4.51-2.52a2.94 2.94 0 1 0-.61-1.79 2.87 2.87 0 0 0 .17 1l-4.5 2.55a2.94 2.94 0 1 0 0 3.57l4.51 2.52a2.94 2.94 0 1 0 2.77-2" id="black-lock-ico"/></g></g></svg>