<svg xmlns="http://www.w3.org/2000/svg" viewBox="0 0 29.77 22.59"><defs><style>.cls-1{fill:#1a1a1a}</style></defs><title>Asset 35</title><g id="Layer_2" data-name="Layer 2"><g id="Layer_1-2" data-name="Layer 1"><path class="cls-1" d="M11.29 17.25V6.11l9.71 5.7zM29.46 4.88a7.55 7.55 0 0 0-1.18-3.18 4 4 0 0 0-3-1.33C21.15.05 14.89 0 14.89 0s-1.57 0-3.65.07-4.7.14-6.78.29a4.15 4.15 0 0 0-3 1.33A6.86 6.86 0 0 0 .31 4.88 51.36 51.36 0 0 0 0 10.11v2.41a49.68 49.68 0 0 0 .31 5.18 7.54 7.54 0 0 0 1.18 3.18 4.94 4.94 0 0 0 3.29 1.38c2.36.26 10.11.31 10.11.31s6.26 0 10.42-.36a4.15 4.15 0 0 0 3-1.33 7.55 7.55 0 0 0 1.18-3.18 51 51 0 0 0 .31-5.18v-2.41a51.36 51.36 0 0 0-.31-5.24" id="blue-y-ico"/></g></g></svg>