<svg xmlns="http://www.w3.org/2000/svg" viewBox="0 0 72.57 64.27"><defs><style>.cls-1{fill:#f99f1c}</style></defs><title>check-ico</title><g id="Layer_2" data-name="Layer 2"><g id="Layer_1-2" data-name="Layer 1"><path id="check-ico" class="cls-1" d="M20.6 26.38a2.67 2.67 0 1 0-3.8 3.77l12.66 12.74a2.65 2.65 0 0 0 1.88.79 2.7 2.7 0 0 0 1.88-.77L71.79 4.57A2.67 2.67 0 0 0 68 .78L54.4 14.31a30.63 30.63 0 1 0-26 49.88c.74.06 1.5.07 2.24.07A30.64 30.64 0 0 0 60.9 38.34a31.13 31.13 0 0 0 .36-4.71 2.67 2.67 0 1 0-5.34 0 26.37 26.37 0 0 1-.3 3.9A25.3 25.3 0 0 1 5.4 35.46a25.1 25.1 0 0 1 6.71-19.08 25.29 25.29 0 0 1 38.47 1.72L31.37 37.23z"/></g></g></svg>