<svg xmlns="http://www.w3.org/2000/svg" viewBox="0 0 41.38 7.06"><title>copyrt-img</title><g data-name="Layer 1"><path d="M26.61 7.06h-5.7l.01-1.3h3.2V1.3H20.8l.38-1.3h4.62v5.76h.81v1.3zM26.57 0h1.36v2.86h-1.36zM34.38 7.06h-5.69l.01-1.3h3.2V1.3h-3.17V0h4.85v5.76h.8v1.3zM39.56 7.06l-2.5-3.86a1.24 1.24 0 0 0-.33.14.6.6 0 0 0-.2.21.86.86 0 0 0-.09.31 3.75 3.75 0 0 0 0 .45v2.75h-1.63V4.71a4.29 4.29 0 0 1 .08-.82 2.38 2.38 0 0 1 .26-.72 1.72 1.72 0 0 1 .5-.55 1.84 1.84 0 0 1 .79-.31L34.86 0h1.76l2.15 3.25a1.34 1.34 0 0 0 .44-.1.68.68 0 0 0 .28-.21.81.81 0 0 0 .14-.33 2.36 2.36 0 0 0 0-.46V0h1.6v2a3 3 0 0 1-.13.92 2 2 0 0 1-.36.68 1.81 1.81 0 0 1-.57.45 2.51 2.51 0 0 1-.75.24l1.92 2.8zM20.07 0l-2.13 7.06h-1.2L18.87 0h1.2zM2.36 4.65l1-3h.3l.94 3zm4.11 1.1l-.11-.3L4.8 1.3 4.61.8 4.32 0H2.63L0 7h1.57L2 5.71h2.89L5.34 7h1.6zM10.63.57l-.24-.15A3.92 3.92 0 0 0 8.56 0h-3v.76l1.56 4.15V1.3h1.1a2 2 0 0 1 2.23 2.19c0 1.58-.65 2.24-2.22 2.27h-.8L7.91 7h.65a3.41 3.41 0 0 0 2.52-.9 3 3 0 0 0 .72-1.2c0-.11.06-.22.09-.34A5.13 5.13 0 0 0 12 3.49a3.55 3.55 0 0 0-.91-2.56 2.75 2.75 0 0 0-.45-.37"/><path d="M16.12 0h-.4l-1.37 5L13 0h-1.88l.09.28a3.42 3.42 0 0 1 1.64 3.2 5 5 0 0 1-.18 1.4L13.33 7h1.94l2.27-7z"/></g></svg>