<svg xmlns="http://www.w3.org/2000/svg" viewBox="0 0 49.8 26.45"><defs><style>.cls-1{fill:#1a1a1a}</style></defs><title>gray-bad-ico</title><g id="Layer_2" data-name="Layer 2"><g id="Layer_1-2" data-name="Layer 1"><g id="gray-bad-ico"><path class="cls-1" d="M48.24 21H1.56v-2.33h46.68zM0 17.12v5.45h6.22v3.89h1.56v-3.9H42v3.89h1.56v-3.89h6.24v-5.44zM43.57 16.34v-1.62a3.83 3.83 0 0 0-3.82-3.82H10a3.83 3.83 0 0 0-3.82 3.82v1.62h1.6v-1.62A2.27 2.27 0 0 1 10 12.45h29.7a2.27 2.27 0 0 1 2.3 2.27v1.62z"/><path class="cls-1" d="M4.67 1.56h40.46v14.78h1.56V0H3.11v16.34h1.56V1.56z"/><path class="cls-1" d="M24.12 10.11V8.18a2.73 2.73 0 0 0-2.73-2.73h-7.77a2.73 2.73 0 0 0-2.73 2.73v1.94h1.56V8.18A1.18 1.18 0 0 1 13.62 7h7.77a1.18 1.18 0 0 1 1.17 1.18v1.94zM38.9 10.11V8.18a2.73 2.73 0 0 0-2.73-2.73h-7.76a2.73 2.73 0 0 0-2.73 2.73v1.94h1.56V8.18A1.18 1.18 0 0 1 28.41 7h7.77a1.18 1.18 0 0 1 1.17 1.18v1.94z"/></g></g></g></svg>