<svg xmlns="http://www.w3.org/2000/svg" viewBox="0 0 19.82 19.82"><defs><style>.cls-1{fill:#93a33a}</style></defs><title>green-location-ico</title><g id="Layer_2" data-name="Layer 2"><g id="Layer_1-2" data-name="Layer 1"><g id="green-location-ico"><path class="cls-1" d="M10 4.34a4.21 4.21 0 0 0-4.23 4.2v.06a4.23 4.23 0 0 1 8.46 0v-.06A4.21 4.21 0 0 0 10 4.34m9.81 5.57A9.91 9.91 0 0 1 0 9.91V10a9.91 9.91 0 0 0 19.82 0v-.09"/><path class="cls-1" d="M13 8.69a3 3 0 0 1-6 0v.07a3 3 0 0 0 6.07 0v-.07"/><path class="cls-1" d="M9.91 0A9.88 9.88 0 0 0 0 9.84v.07a9.91 9.91 0 0 1 19.82 0v-.07A9.88 9.88 0 0 0 9.91 0m4.33 8.6c-.06 3-4 7.13-4.23 7.13S5.84 11.65 5.79 8.6v.07c0 3.06 3.91 7.19 4.23 7.19s4.23-4.19 4.23-7.19V8.6"/><path class="cls-1" d="M9.91.13A9.88 9.88 0 0 0 0 9.91a9.91 9.91 0 0 0 19.82 0A9.88 9.88 0 0 0 9.91.13M5.79 8.6v-.06a4.23 4.23 0 0 1 8.46 0v.13c0 3-4 7.19-4.23 7.19s-4.24-4.13-4.24-7.19V8.6"/><path class="cls-1" d="M10 5.61a3 3 0 0 0-3 3v.07a3 3 0 0 1 6.07 0v-.07a3 3 0 0 0-3-3"/><path class="cls-1" d="M10 5.75a3 3 0 0 0-3 2.94 3 3 0 0 0 6.07 0 3 3 0 0 0-3-2.95"/></g></g></g></svg>