<svg xmlns="http://www.w3.org/2000/svg" viewBox="0 0 19.82 19.96"><defs><style>.cls-1{fill:#93a33a}</style></defs><title>Asset 33</title><g id="Layer_2" data-name="Layer 2"><g id="Layer_1-2" data-name="Layer 1"><g id="green-time-ico"><path class="cls-1" d="M11.46 8.45a.57.57 0 0 0-.41.17l-1.93 2 .06.07L11 8.76a.57.57 0 0 1 .41-.17.56.56 0 0 1 .39.16.55.55 0 0 1 .17.34.56.56 0 0 0-.56-.63m2.74 2.27a4.31 4.31 0 0 1-8.61 0v.07a4.31 4.31 0 1 0 8.61 0v-.07m-3.48 0l-.06.06 1.65 1.86a.55.55 0 0 1 .14.31.56.56 0 0 0-.14-.44z"/><path class="cls-1" d="M13.18 4.71a2.31 2.31 0 0 0-1.52.57h.12a2.32 2.32 0 0 1 3.73 1.79V7a2.33 2.33 0 0 0-2.33-2.33m-6.54 0A2.33 2.33 0 0 0 4.32 7v.07A2.32 2.32 0 0 1 8 5.32h.12a2.32 2.32 0 0 0-1.52-.57m3.24.78a5.16 5.16 0 0 0-5.15 5.16v.07a5.15 5.15 0 0 1 10.31 0v-.07A5.16 5.16 0 0 0 9.89 5.5m9.93 4.5A9.91 9.91 0 0 1 0 10a9.91 9.91 0 1 0 19.82 0"/><path class="cls-1" d="M9.89 6.34a4.31 4.31 0 0 0-4.31 4.31v.07a4.31 4.31 0 0 1 8.61 0v-.07a4.31 4.31 0 0 0-4.3-4.31M12 9.08a.56.56 0 0 1-.15.32l-1.21 1.26.06.07 1.15-1.2a.56.56 0 0 0 .15-.45m-2.82 1.63l-.06.06 2.34 2.64a.57.57 0 0 0 1-.44.57.57 0 0 1-1 .31z"/><path class="cls-1" d="M9.89 6.48a4.31 4.31 0 0 0-4.31 4.24 4.31 4.31 0 0 0 8.61 0 4.31 4.31 0 0 0-4.3-4.24m-.7 4.23l-.06-.07 1.93-2a.57.57 0 0 1 1 .46.56.56 0 0 1-.15.46l-1.15 1.2 1.58 1.79a.57.57 0 0 1 .14.44.57.57 0 0 1-1 .44l-2.36-2.66z"/><path class="cls-1" d="M9.91 0A9.91 9.91 0 0 0 0 9.91V10a9.91 9.91 0 0 1 19.82 0v-.09A9.91 9.91 0 0 0 9.91 0m1.87 5.32l-.12.1a5.64 5.64 0 0 1 3.42 3.09 2.31 2.31 0 0 0 .42-1.33v-.07a2.32 2.32 0 0 1-.42 1.27 5.64 5.64 0 0 0-3.31-3.05M8 5.32a5.64 5.64 0 0 0-3.26 3.05 2.32 2.32 0 0 1-.42-1.27v.07a2.32 2.32 0 0 0 .42 1.33 5.64 5.64 0 0 1 3.42-3.09L8 5.32m7 5.4a5.15 5.15 0 0 1-10.31 0v.07a5.15 5.15 0 1 0 10.31 0v-.07"/><path class="cls-1" d="M9.91.13A9.91 9.91 0 0 0 0 10a9.91 9.91 0 0 0 19.82 0A9.91 9.91 0 0 0 9.91.13m1.87 5.18h-.12A2.32 2.32 0 0 1 15.51 7v.14a2.31 2.31 0 0 1-.42 1.33 5.64 5.64 0 0 0-3.42-3.09l.12-.1M4.32 7.11v-.07a2.32 2.32 0 0 1 3.84-1.76L8 5.32l.12.1a5.64 5.64 0 0 0-3.38 3.09 2.32 2.32 0 0 1-.42-1.33v-.07m.42 3.61v-.07a5.15 5.15 0 1 1 10.31 0v.13a5.15 5.15 0 1 1-10.31 0v-.07"/></g></g></g></svg>