<svg xmlns="http://www.w3.org/2000/svg" viewBox="0 0 19.82 19.82"><defs><style>.cls-1{fill:#93a33a}</style></defs><title>green-email-ico</title><g id="Layer_2" data-name="Layer 2"><g id="Layer_1-2" data-name="Layer 1"><g id="green-email-ico"><path class="cls-1" d="M14.12 5.87H5.68a.75.75 0 0 0-.58.43v.1a.74.74 0 0 1 .58-.4h8.44a.71.71 0 0 1 .59.44.75.75 0 0 0-.63-.54M4.9 7.24v.13l3 2.53.1-.07zm9.94.09l-3.11 2.53.08.07 3-2.47v-.13zm5 2.58A9.91 9.91 0 0 1 0 9.91V10a9.91 9.91 0 0 0 19.82 0v-.09m-11.17.34l-3.4 3.2.08.06 3.32-3.13 1.25 1 1.25-1 3.34 3.09.08-.06-3.42-3.16-1.25 1z"/><path class="cls-1" d="M9.91 0A9.88 9.88 0 0 0 0 9.84v.07a9.91 9.91 0 0 1 19.82 0v-.07A9.88 9.88 0 0 0 9.91 0m-4.8 6.41v.13l4.81 4 4.85-4v-.1l-4.86 3.94zm-.21 1v5.49L8 10l-.05-.1-3 2.86zm6.9 2.56l-.08.06 3.12 2.89v-.13zm2.69 3.57a.66.66 0 0 1-.37.11H5.68a.66.66 0 0 1-.36-.1l-.08.07a.66.66 0 0 0 .44.16h8.44a.67.67 0 0 0 .45-.17z"/><path class="cls-1" d="M9.91.13A9.88 9.88 0 0 0 0 9.91a9.91 9.91 0 0 0 19.82 0A9.88 9.88 0 0 0 9.91.13m-4.8 6.28V6.3a.75.75 0 0 1 .58-.43h8.44a.75.75 0 0 1 .63.54v.1l-4.85 4-4.8-4v-.1m-.21 1v-.17L8 9.83l-.07.07.07.1-3.1 2.9zm6.9 2.56l-.08-.07 3.12-2.54v5.56L11.73 10zm-6.47 3.54l-.08-.06 3.4-3.2 1.25 1 1.25-1 3.42 3.16-.08.06.08.07a.67.67 0 0 1-.45.17H5.68a.66.66 0 0 1-.44-.16z"/></g></g></g></svg>