<svg xmlns="http://www.w3.org/2000/svg" viewBox="0 0 50.18 67.95"><defs><style>.cls-1{fill:#f99f1c}</style></defs><title>list-ico</title><g id="Layer_2" data-name="Layer 2"><g id="Layer_1-2" data-name="Layer 1"><path id="list-ico" class="cls-1" d="M11.6 59.72l3.78-3.79a1.51 1.51 0 1 0-2.14-2.14l-2.71 2.71L10 56a1.51 1.51 0 0 0-2.14 2.14l1.56 1.56a1.36 1.36 0 0 0 1.07.41 1.26 1.26 0 0 0 1.16-.4m0-9l3.78-3.79a1.51 1.51 0 0 0-2.14-2.14l-2.71 2.71L10 47a1.51 1.51 0 1 0-2.1 2.1l1.56 1.56a1.57 1.57 0 0 0 1.07.41 1.88 1.88 0 0 0 1.07-.4m0-9l3.78-3.79a1.51 1.51 0 0 0-2.14-2.14l-2.71 2.71-.53-.53a1.51 1.51 0 0 0-2.14 2.14l1.56 1.56a1.56 1.56 0 0 0 1.07.41 1.26 1.26 0 0 0 1.16-.4m0-9l3.78-3.79a1.51 1.51 0 1 0-2.14-2.14l-2.71 2.71L10 29a1.51 1.51 0 1 0-2.1 2.09l1.56 1.56a1.57 1.57 0 0 0 1.07.41 1.44 1.44 0 0 0 1.07-.4m0-9l3.78-3.79a1.51 1.51 0 1 0-2.14-2.14l-2.71 2.71L10 20a1.51 1.51 0 1 0-2.1 2.13l1.56 1.56a1.57 1.57 0 0 0 1.07.41 1.89 1.89 0 0 0 1.07-.4m0-9.3l3.78-3.78a1.51 1.51 0 1 0-2.14-2.14l-2.71 2.72-.5-.49a1.51 1.51 0 1 0-2.13 2.12l1.56 1.57a1.36 1.36 0 0 0 1.07.41 1.9 1.9 0 0 0 1.07-.41M40 11.68a1.47 1.47 0 0 0-1.48-1.48H21a1.48 1.48 0 0 0 0 3h17.5a1.42 1.42 0 0 0 1.5-1.52m0 9a1.47 1.47 0 0 0-1.48-1.48H21a1.48 1.48 0 0 0 0 3h17.5a1.47 1.47 0 0 0 1.5-1.47m.17 9a1.47 1.47 0 0 0-1.48-1.48H21a1.48 1.48 0 1 0 0 3h17.6a1.55 1.55 0 0 0 1.57-1.48m0 9a1.47 1.47 0 0 0-1.48-1.48H21a1.48 1.48 0 1 0 0 3h17.6a1.45 1.45 0 0 0 1.57-1.48m0 18.18a1.47 1.47 0 0 0-1.48-1.48H21a1.48 1.48 0 1 0 0 3h17.6a1.55 1.55 0 0 0 1.57-1.48m0-9.13a1.47 1.47 0 0 0-1.48-1.48H21a1.48 1.48 0 1 0 0 3h17.6a1.55 1.55 0 0 0 1.57-1.48M4 3a1 1 0 0 0-1 1v59.92a1 1 0 0 0 1 1h42.15a1 1 0 0 0 1-1V4a1 1 0 0 0-1-1H4zm42.12 64.9H4a4 4 0 0 1-4-4V4a4 4 0 0 1 4-4h42.15a4 4 0 0 1 4 4v59.91a4 4 0 0 1-4 4"/></g></g></svg>