<svg xmlns="http://www.w3.org/2000/svg" viewBox="0 0 21 22.03"><defs><style>.cls-1{fill:#f99f1c}</style></defs><title>Asset 8</title><g id="Layer_2" data-name="Layer 2"><g id="Layer_1-2" data-name="Layer 1"><path id="lock-ico" class="cls-1" d="M17 20.79a2.7 2.7 0 1 1 2.73-2.7 2.72 2.72 0 0 1-2.73 2.7M4 13.71A2.7 2.7 0 1 1 6.72 11 2.72 2.72 0 0 1 4 13.71M17 1.24a2.7 2.7 0 1 1-2.73 2.7A2.72 2.72 0 0 1 17 1.24m0 12.91a4 4 0 0 0-3.16 1.54l-6.1-3.38A3.92 3.92 0 0 0 8 11a3.82 3.82 0 0 0-.23-1.3l6.11-3.38A4 4 0 0 0 21 3.94a4 4 0 0 0-8 0 3.81 3.81 0 0 0 .23 1.3L7.14 8.62a3.94 3.94 0 1 0 0 4.78l6.11 3.38a3.88 3.88 0 0 0-.25 1.31 4 4 0 1 0 4-3.94"/></g></g></svg>