<svg xmlns="http://www.w3.org/2000/svg" viewBox="0 0 104.61 30.32"><defs><style>.cls-1{fill:#071d28}</style></defs><title>main-logo-text</title><g id="Layer_2" data-name="Layer 2"><g id="Layer_1-2" data-name="Layer 1"><g id="main-logo-text"><path d="M63.15 1.18L60 10.79a5.69 5.69 0 0 1-1.37 2.05l-1.74 1.74a18.21 18.21 0 0 1 1.42 7.78v7.14a.59.59 0 0 1-.68.65H53a.58.58 0 0 1-.65-.65v-7.06A20.92 20.92 0 0 0 49 11.84l-.15-.26-6-10.15V1q0-.64.7-.64H49a1 1 0 0 1 .69.53L55.09 11c.05.11.13.13.21 0a.25.25 0 0 0 .13-.27l-.34-1.53a4.83 4.83 0 0 1 .08-2.2l1.4-6.2a.63.63 0 0 1 .68-.51h5.45q.7 0 .45.87"/><path d="M62.7.32h-5.46a.63.63 0 0 0-.68.51L55.17 7a4.82 4.82 0 0 0-.08 2.18l.34 1.54a.26.26 0 0 1-.13.28c-.09.08-.16.07-.21 0L49.72.87A1 1 0 0 0 49 .34h-5.49l-.71 1.1 6 10.15.15.26a20.92 20.92 0 0 1 3.34 10.6v7.05a.58.58 0 0 0 .66.65h4.67a.59.59 0 0 0 .68-.65v-7.15a18.23 18.23 0 0 0-1.42-7.78l1.73-1.74A5.68 5.68 0 0 0 60 10.78l3.13-9.6q.27-.86-.43-.86M80.7 23.35a.58.58 0 0 1-.7.65h-4.88a.58.58 0 0 1-.66-.66V8.5q0-3.43-3.68-3.43a23.1 23.1 0 0 0-6.11.93q-.55.13-.57-.47l-.29-3.6q0-.66.38-.82Q66.66 0 72.24 0q8.45 0 8.46 8zM104.5 23.14a.68.68 0 0 1 .08.57c0 .2-.16.3-.4.3h-5.83a.76.76 0 0 1-.7-.34L90.16 12q-.19-.3-.23 0l-2 11.65q0 .34-.66.34H82q-.59 0-.36-.87L84 13a4 4 0 0 1 1.52-2.43l1.95-1.37q.25-.21 0-.57l-5.73-7.4a.83.83 0 0 1-.13-.57.43.43 0 0 1 .44-.3h6.09a1.1 1.1 0 0 1 .91.55L96.4 11.1a.18.18 0 0 0 .25 0 .29.29 0 0 0 .08-.27l-.33-1.5a4.72 4.72 0 0 1 0-2.18L97.52.78c.06-.31.29-.47.7-.47h5.27c.45 0 .6.29.44.87l-2.47 9.52a3.91 3.91 0 0 1-1.25 1.86l-.85.78-.85.78z"/><path class="cls-1" d="M8.44 0Q2.86 0 .39 1.1c-.29.11-.39.39-.39.82l.3 3.6q0 .59.57.47A23.07 23.07 0 0 1 7 5.08q3.68 0 3.68 3.43v14.84a.58.58 0 0 0 .66.66h4.93a.58.58 0 0 0 .66-.66V8q0-8-8.46-8M22.63.11a18.32 18.32 0 0 0-4.7.38c-.25.08-.37.32-.34.7L18 4.91c0 .28.23.4.57.34l1-.13h.46q1.16 0 1.16 1.29V13q0 .63.7.64h4.89q.7 0 .7-.64V4.38q0-4.27-4.8-4.27M48.52 13.85l-.15-.25-5.59-9.44-.3 11.21Q42.39 19 39.09 19h-.49L36.09.87a.62.62 0 0 0-.68-.55h-5.64q-.68 0-.51.87L32 15.25a4.18 4.18 0 0 0 1.16 2.18l.91.91a.24.24 0 0 1 0 .29.3.3 0 0 1-.25.17h-4.69q-.66 0-.66.83v3.72a.58.58 0 0 0 .66.65H39q4.55 0 7-2.52a9.62 9.62 0 0 0 2.64-6.7l.12-.51-.25-.43"/><path d="M95.23 27.09a1 1 0 1 1-1-1 1 1 0 0 1 1 1M92.38 27.09a1 1 0 1 1-1-1 1 1 0 0 1 1 1"/><path class="cls-1" d="M37.39 27.09a1 1 0 1 1-1-1 1 1 0 0 1 1 1"/><path d="M93.81 29.35a1 1 0 1 1-1-1 1 1 0 0 1 1 1"/></g></g></g></svg>