<svg xmlns="http://www.w3.org/2000/svg" viewBox="0 0 43.88 42.93"><defs><style>.cls-1{fill:#071d28}.cls-2{fill:#064870}.cls-3{fill:#f99f1c}.cls-4{fill:#93a33a}.cls-5{fill:#fff}</style></defs><title>main-logo</title><g id="Layer_2" data-name="Layer 2"><g id="Layer_1-2" data-name="Layer 1"><g id="main-logo"><path class="cls-1" d="M31.63 8.07l-2.09-1.74-.54-.42L22.75.68a1.27 1.27 0 0 0-1.63 0l-6.28 5.23L.46 17.9a1.27 1.27 0 0 0-.46 1v20.81a3.22 3.22 0 0 0 3.22 3.22h37.44a3.22 3.22 0 0 0 3.22-3.22V18.88a1.27 1.27 0 0 0-.46-1z"/><path class="cls-2" d="M43.88 12.89V3.22A3.22 3.22 0 0 0 40.66 0h-6a1.27 1.27 0 0 0-1.27 1.27v4.86a1.27 1.27 0 0 0 .45 1l8 6.76a1.27 1.27 0 0 0 2.04-1z"/><path class="cls-3" d="M31 4.89V1.27A1.27 1.27 0 0 0 29.71 0h-1.08a1.27 1.27 0 0 0-.81 2.25l1.73 1.44z"/><path class="cls-4" d="M15.25 0h-12A3.22 3.22 0 0 0 0 3.22v9.7a1.27 1.27 0 0 0 2.08 1l9.58-8 4.39-3.66a1.27 1.27 0 0 0-.8-2.26z"/><path class="cls-5" d="M38 38.56l-4.31-6.49.31-3.16a3.56 3.56 0 0 0 1.14-1.7l2.26-8.7q.21-.79-.4-.79h-4.77c-.37 0-.59.14-.64.43L30.53 24a4.3 4.3 0 0 0 0 2l.31 1.41a.26.26 0 0 1-.08.25.17.17 0 0 1-.23 0l-5.72-8-1-1.37a1 1 0 0 0-.83-.5h-3.44c-.42 0-.64.19-.64.58l-.06 2.36-.25 10.81q-.08 3.32-3.09 3.32h-.44l-2.3-16.58a.56.56 0 0 0-.62-.5H7q-.62 0-.46.79L9 31.35a3.81 3.81 0 0 0 1.06 2l.83.83a.22.22 0 0 1 0 .27.28.28 0 0 1-.23.15H6.4q-.6 0-.6.76v2.13a1.87 1.87 0 0 0 1.87 1.87h7.75a13 13 0 0 0 1.71-.11 7.73 7.73 0 0 0 4.69-2.19 7.46 7.46 0 0 0 1.85-3 11.35 11.35 0 0 0 .57-3.15v-.16l.41-2.37c0-.18.1-.18.21 0L31.71 39a.7.7 0 0 0 .64.31h5.33c.22 0 .34-.09.37-.27a.63.63 0 0 0-.08-.52"/></g></g></g></svg>