<svg xmlns="http://www.w3.org/2000/svg" viewBox="0 0 57.85 57.86"><defs><style>.cls-1{fill:#f99f1c}</style></defs><title>person-ico</title><g id="Layer_2" data-name="Layer 2"><g id="Layer_1-2" data-name="Layer 1"><g id="person-ico"><path class="cls-1" d="M24 3.62a9 9 0 1 1-9 9 9 9 0 0 1 9-9m0 21.7a12.66 12.66 0 1 0-12.7-12.66A12.67 12.67 0 0 0 24 25.31M40.89 54.24H5.21a1.49 1.49 0 0 1-1.09-.49 1.89 1.89 0 0 1-.51-1.31v-4.9-.31c.47-5.23 5.45-9.88 12.72-11.87a29.45 29.45 0 0 1 15.25 0 1.81 1.81 0 1 0 1-3.49 33.05 33.05 0 0 0-17.16 0C6.62 34.27.6 40.18 0 46.94v5.5a5.5 5.5 0 0 0 1.49 3.8 5.08 5.08 0 0 0 3.72 1.63h35.68a1.81 1.81 0 0 0 0-3.62"/><path class="cls-1" d="M56 38.87h-8.09v-8.13a1.81 1.81 0 0 0-3.62 0v8.14h-8.13a1.81 1.81 0 0 0 0 3.62h8.14v8.14a1.81 1.81 0 0 0 3.62 0v-8.15H56a1.81 1.81 0 0 0 0-3.62"/></g></g></g></svg>