<svg xmlns="http://www.w3.org/2000/svg" viewBox="0 0 23 23"><defs><style>.cls-1{fill:#071d28}</style></defs><title>person-ico2</title><g id="Layer_2" data-name="Layer 2"><g id="Layer_1-2" data-name="Layer 1"><g id="person-ico2"><path class="cls-1" d="M9.52 1.44A3.59 3.59 0 1 1 5.93 5a3.6 3.6 0 0 1 3.6-3.6m0 8.62a5 5 0 1 0-5-5 5 5 0 0 0 5 5M16.26 21.56H2.07a.6.6 0 0 1-.43-.2.76.76 0 0 1-.2-.52V18.77c.17-2.07 2.15-3.93 5-4.72a11.7 11.7 0 0 1 6.06 0 .72.72 0 1 0 .38-1.39 13.12 13.12 0 0 0-6.82 0c-3.48 1-5.87 3.3-6.1 6V19.08H0v1.76a2.19 2.19 0 0 0 .59 1.51 2 2 0 0 0 1.48.65h14.19a.72.72 0 1 0 0-1.44"/><path class="cls-1" d="M22.28 15.45H19v-3.23a.72.72 0 0 0-1.44 0v3.23h-3.18a.72.72 0 1 0 0 1.44h3.23v3.24a.72.72 0 0 0 1.44 0v-3.24h3.23a.72.72 0 1 0 0-1.44"/></g></g></g></svg>