<svg xmlns="http://www.w3.org/2000/svg" viewBox="0 0 19.63 19.63"><defs><style>.cls-1{fill:none;stroke:#fff}</style></defs><title>phone-ico</title><g id="Layer_2" data-name="Layer 2"><path class="cls-1" d="M19.13 16.91a2.21 2.21 0 0 0-.93-1.8c-1.58-1.22-2.83-2.2-3.93-2.2a1.8 1.8 0 0 0-1.08.36c-.66.48-.61 1.8-.61 1.8a.64.64 0 0 1-.27 0c-.55 0-2-.37-4.83-3.32-2.53-2.63-3-4.06-3.09-4.72a.55.55 0 0 1 .06-.22 5.06 5.06 0 0 0 .71.05 2.2 2.2 0 0 0 1.34-.29 1.44 1.44 0 0 0 .56-1.27c.08-1-.8-2.19-1.87-3.72A2.54 2.54 0 0 0 3.24.5c-.91 0-1.88.67-2.47 2.69A7.09 7.09 0 0 0 .5 5.28C.44 8.86 3 12.26 4.69 14c1.88 2 5.77 5.09 10.18 5.09a9.13 9.13 0 0 0 .94 0c2.63-.28 3.39-1.25 3.32-2.18z" id="Layer_1-2" data-name="Layer 1"/></g></svg>