<svg xmlns="http://www.w3.org/2000/svg" viewBox="0 0 38.38 38.38"><defs><style>.cls-1{fill:#fff}</style></defs><title>white-tab-ico</title><g id="Layer_2" data-name="Layer 2"><g id="Layer_1-2" data-name="Layer 1"><g id="white-tab-ico"><path class="cls-1" d="M27.44 10.94a.82.82 0 0 0 1.16 0l9.54-9.54A.82.82 0 1 0 37 .24l-9.56 9.54a.82.82 0 0 0 0 1.16"/><path class="cls-1" d="M35.68 18.16l-1-11.5-2.92 2.87a3.5 3.5 0 1 1-2.91-2.91l2.87-2.87-11.5-1a1.53 1.53 0 0 0-1.22.39L.45 21.69a1.53 1.53 0 0 0 0 2.16L4.58 28l2-2 5.82 5.82-2 2 4.13 4.13a1.53 1.53 0 0 0 2.16 0l18.55-18.57a1.53 1.53 0 0 0 .44-1.22"/></g></g></g></svg>