<svg xmlns="http://www.w3.org/2000/svg" viewBox="0 0 30.53 30.53"><defs><style>.cls-1{fill:#fff}</style></defs><title>white-arrow-ico</title><g id="Layer_2" data-name="Layer 2"><g id="Layer_1-2" data-name="Layer 1"><path class="cls-1" d="M30.43.78a1.29 1.29 0 0 0-.69-.68l-.49-.1H16.53a1.27 1.27 0 0 0 0 2.55h7.77a.78.78 0 0 1 .55 1.33l-21 21a.78.78 0 0 1-1.33-.55v-7.8a1.27 1.27 0 0 0-2.55 0v12.73l.1.47.26.4.4.27.48.1H14a1.27 1.27 0 1 0 0-2.5H6.23a.78.78 0 0 1-.55-1.33l21-21a.78.78 0 0 1 1.32.55V14a1.27 1.27 0 1 0 2.55 0V1.27z" id="white-arrow-ico"/></g></g></svg>