<svg xmlns="http://www.w3.org/2000/svg" viewBox="0 0 19.82 19.96"><defs><style>.cls-1{fill:#fff}</style></defs><title>white-phone-ico</title><g id="Layer_2" data-name="Layer 2"><g id="Layer_1-2" data-name="Layer 1"><g id="white-phone-ico"><path class="cls-1" d="M19.82 10A9.91 9.91 0 0 1 0 10a9.91 9.91 0 0 0 19.82 0M7.35 8.25c0 .27.09 1.05 1.52 2.7s2.11 1.81 2.37 1.81a.29.29 0 0 0 .13 0s0-.72.3-1a.83.83 0 0 1 .53-.2c.54 0 1.15.53 1.93 1.2a1.3 1.3 0 0 1 .46.85 1.25 1.25 0 0 0-.46-1c-.78-.66-1.39-1.2-1.93-1.2a.83.83 0 0 0-.53.2c-.33.26-.3 1-.3 1a.29.29 0 0 1-.13 0c-.27 0-1-.2-2.37-1.81a5.18 5.18 0 0 1-1.52-2.55m-.56-3.58c-.45 0-.93.36-1.21 1.47a4.26 4.26 0 0 0-.13 1.14 4.22 4.22 0 0 1 .13-1c.29-1.1.77-1.47 1.21-1.47a1.22 1.22 0 0 1 1 .59 5 5 0 0 1 .92 1.89 4.18 4.18 0 0 0-.92-2 1.22 1.22 0 0 0-1-.59"/><path class="cls-1" d="M8.67 7.28a.82.82 0 0 1-.28.56 1 1 0 0 1-.66.16 2.26 2.26 0 0 1-.35 0 .49.49 0 0 0 0 .25.35.35 0 0 1 0-.12 2.28 2.28 0 0 0 .35 0A1 1 0 0 0 8.39 8a.82.82 0 0 0 .28-.69m-3.23 0A7.75 7.75 0 0 0 7.5 12c.92 1.06 2.84 2.77 5 2.77h.46c1.29-.15 1.66-.68 1.63-1.18 0 .46-.45.91-1.63 1h-.46c-2.17 0-4.08-1.71-5-2.77a7.87 7.87 0 0 1-2.06-4.55M9.91 0A9.91 9.91 0 0 0 0 9.91V10a9.91 9.91 0 0 1 19.82 0v-.09A9.91 9.91 0 0 0 9.91 0"/><path class="cls-1" d="M5.44 7.27a4.26 4.26 0 0 1 .13-1.14c.29-1.1.77-1.46 1.21-1.46a1.22 1.22 0 0 1 1 .59 4.18 4.18 0 0 1 .92 2 .83.83 0 0 1-.31.74 1 1 0 0 1-.66.19 2.25 2.25 0 0 1-.35 0 .33.33 0 0 0 0 .12 5.18 5.18 0 0 0 1.52 2.57c1.4 1.61 2.11 1.81 2.37 1.81a.3.3 0 0 0 .13 0s0-.72.3-1a.83.83 0 0 1 .53-.2c.54 0 1.16.53 1.93 1.2a1.25 1.25 0 0 1 .46 1c0 .51-.34 1-1.63 1.18h-.46c-2.17 0-4.08-1.71-5-2.77a7.74 7.74 0 0 1-2.09-4.83M9.91.13A9.91 9.91 0 0 0 0 10a9.91 9.91 0 0 0 19.82 0A9.91 9.91 0 0 0 9.91.13"/></g></g></g></svg>