<svg xmlns="http://www.w3.org/2000/svg" viewBox="0 0 24.51 30.55"><defs><style>.cls-1{fill:#fff}</style></defs><title>white-location-ico</title><g id="Layer_2" data-name="Layer 2"><g id="Layer_1-2" data-name="Layer 1"><g id="white-location-ico"><path class="cls-1" d="M22.57 14.25l-.06.28a10.21 10.21 0 0 1-.71 2.09c-1.2 2.84-3.82 7.17-9.54 11.89-5.71-4.72-8.34-9.05-9.54-11.89A10.88 10.88 0 0 1 2 14.57c0-.15-.05-.24-.06-.28a10.52 10.52 0 1 1 20.84-2 10.43 10.43 0 0 1-.19 2M12.25 0A12.26 12.26 0 0 0 0 12.25a12.09 12.09 0 0 0 .22 2.3s0 .18.08.41a12 12 0 0 0 .82 2.42c1.32 3.11 4.22 7.88 10.59 13a.87.87 0 0 0 1.09 0c6.36-5.11 9.27-9.88 10.59-13a11.94 11.94 0 0 0 .82-2.38c.05-.23.08-.36.08-.41a12.59 12.59 0 0 0 .22-2.3A12.28 12.28 0 0 0 12.25 0"/><path class="cls-1" d="M12.25 18.43a6 6 0 1 1 6-6 6.05 6.05 0 0 1-6 6m0-13.82A7.78 7.78 0 1 0 20 12.38a7.79 7.79 0 0 0-7.78-7.78"/></g></g></g></svg>