<svg xmlns="http://www.w3.org/2000/svg" viewBox="0 0 49.8 26.45"><defs><style>.cls-1{fill:#fff}</style></defs><title>white-bed-ico</title><g id="Layer_2" data-name="Layer 2"><g id="Layer_1-2" data-name="Layer 1"><g id="white-bed-ico"><path class="cls-1" d="M47.46 21H2.33a.78.78 0 0 1-.78-.78v-.78a.78.78 0 0 1 .78-.78h45.13a.78.78 0 0 1 .78.78v.78a.78.78 0 0 1-.78.78zM0 17.9v3.89a.78.78 0 0 0 .78.78h4.67a.78.78 0 0 1 .78.78v2.34a.78.78 0 0 0 .78.78H7a.78.78 0 0 0 .78-.78v-2.35a.78.78 0 0 1 .78-.78h32.68a.78.78 0 0 1 .78.78v2.34a.78.78 0 0 0 .78.78.78.78 0 0 0 .78-.78v-2.34a.78.78 0 0 1 .78-.78H49a.78.78 0 0 0 .78-.78V17.9a.78.78 0 0 0-.78-.78H.78a.78.78 0 0 0-.78.78zM43.57 15.56v-.07a4.6 4.6 0 0 0-4.6-4.6H10.83a4.6 4.6 0 0 0-4.6 4.6v.07a.78.78 0 0 0 .78.78H7a.78.78 0 0 0 .78-.78v-.07a3 3 0 0 1 3-3H39a3 3 0 0 1 3 3v.07a.78.78 0 0 0 .78.78.78.78 0 0 0 .79-.78z"/><path class="cls-1" d="M5.45 1.56h38.9a.78.78 0 0 1 .78.78v13.22a.78.78 0 0 0 .78.78.78.78 0 0 0 .78-.78V.78a.78.78 0 0 0-.78-.78h-42a.78.78 0 0 0-.78.78v14.78a.78.78 0 0 0 .78.78.78.78 0 0 0 .78-.78V2.33a.78.78 0 0 1 .76-.77z"/><path class="cls-1" d="M24.12 9.34V9a3.51 3.51 0 0 0-3.51-3.51H14.4A3.51 3.51 0 0 0 10.89 9v.38a.78.78 0 0 0 .78.78.78.78 0 0 0 .78-.78V9a2 2 0 0 1 2-2h6.21a2 2 0 0 1 2 2v.38a.78.78 0 0 0 .78.78.78.78 0 0 0 .68-.82zM38.9 9.34V9a3.51 3.51 0 0 0-3.5-3.55h-6.21A3.51 3.51 0 0 0 25.68 9v.38a.78.78 0 0 0 .78.78.78.78 0 0 0 .78-.78V9a2 2 0 0 1 2-2h6.16a2 2 0 0 1 2 2v.38a.78.78 0 0 0 .78.78.78.78 0 0 0 .72-.82z"/></g></g></g></svg>