<svg xmlns="http://www.w3.org/2000/svg" viewBox="0 0 23 23"><defs><style>.cls-1{fill:#fff}</style></defs><title>zoom-ico-white</title><g id="Layer_2" data-name="Layer 2"><g id="Layer_1-2" data-name="Layer 1"><path class="cls-1" d="M9.62 2.42a7 7 0 0 1 7.11 6.86 7 7 0 0 1-7.11 6.86 7 7 0 0 1-7.11-6.85 7 7 0 0 1 7.11-6.87m13 18.52L17 15.26a9.07 9.07 0 0 0 2.26-6A9.47 9.47 0 0 0 9.62 0 9.47 9.47 0 0 0 0 9.29a9.47 9.47 0 0 0 9.62 9.29 9.74 9.74 0 0 0 5.51-1.68l5.71 5.74a1.28 1.28 0 0 0 1.77 0 1.18 1.18 0 0 0 0-1.71" id="zoom-ico-white"/></g></g></svg>